STARTFONT 2.1
COMMENT
COMMENT Converted from OpenType font "super-mario-bros-nes.otf" by "otf2bdf 3.0".
COMMENT
FONT -FreeType-Super Mario Bros. NES-Medium-R-Normal--11-80-100-100-P-97-ISO10646-1
SIZE 8 100 100
FONTBOUNDINGBOX 11 12 0 -1
STARTPROPERTIES 19
FOUNDRY "FreeType"
FAMILY_NAME "Super Mario Bros. NES"
WEIGHT_NAME "Medium"
SLANT "R"
SETWIDTH_NAME "Normal"
ADD_STYLE_NAME ""
PIXEL_SIZE 11
POINT_SIZE 80
RESOLUTION_X 100
RESOLUTION_Y 100
SPACING "P"
AVERAGE_WIDTH 97
CHARSET_REGISTRY "ISO10646"
CHARSET_ENCODING "1"
FONT_ASCENT 11
FONT_DESCENT 1
COPYRIGHT "Copyright TheWolfBunny 2016  Arcade Classic, which is based on KonaM by igorcbarros (https://fontstruct.com/fontstructors/show/972420/igorcbarros)"
_OTF_FONTFILE "super-mario-bros-nes.otf"
_OTF_PSNAME "Super-Mario-Bros.-NES"
ENDPROPERTIES
CHARS 1086
STARTCHAR 0020
ENCODING 32
SWIDTH 990 0
DWIDTH 11 0
BBX 0 0 0 0
BITMAP
ENDCHAR
STARTCHAR 0021
ENCODING 33
SWIDTH 990 0
DWIDTH 11 0
BBX 4 10 3 0
BITMAP
F0
F0
F0
F0
E0
E0
E0
00
00
E0
ENDCHAR
STARTCHAR 0022
ENCODING 34
SWIDTH 990 0
DWIDTH 11 0
BBX 7 6 1 4
BITMAP
E6
E6
E6
22
C4
C4
ENDCHAR
STARTCHAR 0023
ENCODING 35
SWIDTH 990 0
DWIDTH 11 0
BBX 10 10 0 0
BITMAP
7300
7300
7300
FFC0
7300
7300
FFC0
7300
7300
7300
ENDCHAR
STARTCHAR 0024
ENCODING 36
SWIDTH 990 0
DWIDTH 11 0
BBX 10 10 0 0
BITMAP
0C00
0C00
7F00
EC00
7F00
7F00
0DC0
FF00
FF00
0C00
ENDCHAR
STARTCHAR 0025
ENCODING 37
SWIDTH 990 0
DWIDTH 11 0
BBX 10 10 0 0
BITMAP
60C0
60C0
9100
6200
0C00
0C00
1100
62C0
62C0
8100
ENDCHAR
STARTCHAR 0026
ENCODING 38
SWIDTH 990 0
DWIDTH 11 0
BBX 10 10 0 0
BITMAP
1C00
1C00
6200
7200
7C00
7C00
8EC0
8300
8300
7EC0
ENDCHAR
STARTCHAR 0027
ENCODING 39
SWIDTH 990 0
DWIDTH 11 0
BBX 3 6 3 4
BITMAP
E0
E0
E0
60
80
80
ENDCHAR
STARTCHAR 0028
ENCODING 40
SWIDTH 990 0
DWIDTH 11 0
BBX 5 10 3 0
BITMAP
18
18
70
E0
E0
E0
E0
70
70
18
ENDCHAR
STARTCHAR 0029
ENCODING 41
SWIDTH 990 0
DWIDTH 11 0
BBX 6 10 1 0
BITMAP
E0
E0
38
1C
1C
1C
1C
38
38
E0
ENDCHAR
STARTCHAR 002A
ENCODING 42
SWIDTH 990 0
DWIDTH 11 0
BBX 10 10 0 0
BITMAP
8CC0
8CC0
6D00
1E00
FFC0
FFC0
1E00
6D00
6D00
8CC0
ENDCHAR
STARTCHAR 002B
ENCODING 43
SWIDTH 990 0
DWIDTH 11 0
BBX 7 7 1 1
BITMAP
18
18
FE
FE
18
18
18
ENDCHAR
STARTCHAR 002C
ENCODING 44
SWIDTH 990 0
DWIDTH 11 0
BBX 5 4 1 -1
BITMAP
38
38
38
E0
ENDCHAR
STARTCHAR 002D
ENCODING 45
SWIDTH 990 0
DWIDTH 11 0
BBX 9 3 1 3
BITMAP
FF80
FF80
FF80
ENDCHAR
STARTCHAR 002E
ENCODING 46
SWIDTH 990 0
DWIDTH 11 0
BBX 3 3 3 0
BITMAP
E0
E0
E0
ENDCHAR
STARTCHAR 002F
ENCODING 47
SWIDTH 990 0
DWIDTH 11 0
BBX 10 10 0 0
BITMAP
00C0
00C0
0100
0200
0C00
0C00
1000
6000
6000
8000
ENDCHAR
STARTCHAR 0030
ENCODING 48
SWIDTH 990 0
DWIDTH 11 0
BBX 10 10 0 0
BITMAP
1E00
1E00
6300
E1C0
E1C0
E1C0
E1C0
7100
7100
1E00
ENDCHAR
STARTCHAR 0031
ENCODING 49
SWIDTH 990 0
DWIDTH 11 0
BBX 9 10 1 0
BITMAP
1C00
1C00
3C00
1C00
1C00
1C00
1C00
1C00
1C00
FF80
ENDCHAR
STARTCHAR 0032
ENCODING 50
SWIDTH 990 0
DWIDTH 11 0
BBX 10 10 0 0
BITMAP
7F00
7F00
E1C0
03C0
1F00
1F00
7E00
F000
F000
FFC0
ENDCHAR
STARTCHAR 0033
ENCODING 51
SWIDTH 990 0
DWIDTH 11 0
BBX 10 10 0 0
BITMAP
7FC0
7FC0
0300
0E00
1F00
1F00
01C0
E1C0
E1C0
7F00
ENDCHAR
STARTCHAR 0034
ENCODING 52
SWIDTH 990 0
DWIDTH 11 0
BBX 10 10 0 0
BITMAP
0F00
0F00
1F00
7300
E300
E300
FFC0
0300
0300
0300
ENDCHAR
STARTCHAR 0035
ENCODING 53
SWIDTH 990 0
DWIDTH 11 0
BBX 10 10 0 0
BITMAP
FF00
FF00
E000
FF00
01C0
01C0
01C0
E1C0
E1C0
7F00
ENDCHAR
STARTCHAR 0036
ENCODING 54
SWIDTH 990 0
DWIDTH 11 0
BBX 10 10 0 0
BITMAP
1F00
1F00
7000
E000
FF00
FF00
E1C0
E1C0
E1C0
7F00
ENDCHAR
STARTCHAR 0037
ENCODING 55
SWIDTH 990 0
DWIDTH 11 0
BBX 10 10 0 0
BITMAP
FFC0
FFC0
E1C0
0300
0E00
0E00
1C00
1C00
1C00
1C00
ENDCHAR
STARTCHAR 0038
ENCODING 56
SWIDTH 990 0
DWIDTH 11 0
BBX 10 10 0 0
BITMAP
7F00
7F00
E1C0
E1C0
7F00
7F00
E1C0
E1C0
E1C0
7F00
ENDCHAR
STARTCHAR 0039
ENCODING 57
SWIDTH 990 0
DWIDTH 11 0
BBX 10 10 0 0
BITMAP
7F00
7F00
E1C0
E1C0
7FC0
7FC0
01C0
0300
0300
7E00
ENDCHAR
STARTCHAR 003A
ENCODING 58
SWIDTH 990 0
DWIDTH 11 0
BBX 3 7 3 1
BITMAP
E0
E0
00
00
E0
E0
E0
ENDCHAR
STARTCHAR 003B
ENCODING 59
SWIDTH 990 0
DWIDTH 11 0
BBX 5 8 1 0
BITMAP
38
38
00
00
38
38
38
E0
ENDCHAR
STARTCHAR 003C
ENCODING 60
SWIDTH 990 0
DWIDTH 11 0
BBX 7 10 1 0
BITMAP
06
06
1C
38
E0
E0
38
1C
1C
06
ENDCHAR
STARTCHAR 003D
ENCODING 61
SWIDTH 990 0
DWIDTH 11 0
BBX 7 6 1 1
BITMAP
FE
00
00
00
FE
FE
ENDCHAR
STARTCHAR 003E
ENCODING 62
SWIDTH 990 0
DWIDTH 11 0
BBX 7 10 1 0
BITMAP
E0
E0
38
1C
06
06
1C
38
38
E0
ENDCHAR
STARTCHAR 003F
ENCODING 63
SWIDTH 990 0
DWIDTH 11 0
BBX 10 10 0 0
BITMAP
7F00
7F00
E1C0
E1C0
0F00
0F00
1C00
0000
0000
1C00
ENDCHAR
STARTCHAR 0040
ENCODING 64
SWIDTH 990 0
DWIDTH 11 0
BBX 10 10 0 0
BITMAP
7F00
7F00
80C0
9EC0
92C0
92C0
9FC0
8000
8000
7F00
ENDCHAR
STARTCHAR 0041
ENCODING 65
SWIDTH 990 0
DWIDTH 11 0
BBX 10 10 0 0
BITMAP
1E00
1E00
7300
E1C0
E1C0
E1C0
FFC0
E1C0
E1C0
E1C0
ENDCHAR
STARTCHAR 0042
ENCODING 66
SWIDTH 990 0
DWIDTH 11 0
BBX 10 10 0 0
BITMAP
FF00
FF00
E1C0
E1C0
FF00
FF00
E1C0
E1C0
E1C0
FF00
ENDCHAR
STARTCHAR 0043
ENCODING 67
SWIDTH 990 0
DWIDTH 11 0
BBX 10 10 0 0
BITMAP
1F00
1F00
71C0
E000
E000
E000
E000
71C0
71C0
1F00
ENDCHAR
STARTCHAR 0044
ENCODING 68
SWIDTH 990 0
DWIDTH 11 0
BBX 10 10 0 0
BITMAP
FE00
FE00
E300
E1C0
E1C0
E1C0
E1C0
E300
E300
FE00
ENDCHAR
STARTCHAR 0045
ENCODING 69
SWIDTH 990 0
DWIDTH 11 0
BBX 10 10 0 0
BITMAP
FFC0
FFC0
E000
E000
FF00
FF00
E000
E000
E000
FFC0
ENDCHAR
STARTCHAR 0046
ENCODING 70
SWIDTH 990 0
DWIDTH 11 0
BBX 10 10 0 0
BITMAP
FFC0
FFC0
E000
E000
FF00
FF00
E000
E000
E000
E000
ENDCHAR
STARTCHAR 0047
ENCODING 71
SWIDTH 990 0
DWIDTH 11 0
BBX 10 10 0 0
BITMAP
1FC0
1FC0
7000
E000
E3C0
E3C0
E1C0
71C0
71C0
1FC0
ENDCHAR
STARTCHAR 0048
ENCODING 72
SWIDTH 990 0
DWIDTH 11 0
BBX 10 10 0 0
BITMAP
E1C0
E1C0
E1C0
E1C0
FFC0
FFC0
E1C0
E1C0
E1C0
E1C0
ENDCHAR
STARTCHAR 0049
ENCODING 73
SWIDTH 990 0
DWIDTH 11 0
BBX 9 10 1 0
BITMAP
FF80
FF80
1C00
1C00
1C00
1C00
1C00
1C00
1C00
FF80
ENDCHAR
STARTCHAR 004A
ENCODING 74
SWIDTH 990 0
DWIDTH 11 0
BBX 10 10 0 0
BITMAP
0FC0
0FC0
01C0
01C0
01C0
01C0
E1C0
E1C0
E1C0
7F00
ENDCHAR
STARTCHAR 004B
ENCODING 75
SWIDTH 990 0
DWIDTH 11 0
BBX 10 10 0 0
BITMAP
E1C0
E1C0
E300
EE00
FC00
FC00
FE00
EF00
EF00
E3C0
ENDCHAR
STARTCHAR 004C
ENCODING 76
SWIDTH 990 0
DWIDTH 11 0
BBX 9 10 1 0
BITMAP
E000
E000
E000
E000
E000
E000
E000
E000
E000
FF80
ENDCHAR
STARTCHAR 004D
ENCODING 77
SWIDTH 990 0
DWIDTH 11 0
BBX 10 10 0 0
BITMAP
E1C0
E1C0
F3C0
FFC0
FFC0
FFC0
EDC0
E1C0
E1C0
E1C0
ENDCHAR
STARTCHAR 004E
ENCODING 78
SWIDTH 990 0
DWIDTH 11 0
BBX 10 10 0 0
BITMAP
E1C0
E1C0
F1C0
FDC0
FFC0
FFC0
EFC0
E3C0
E3C0
E1C0
ENDCHAR
STARTCHAR 004F
ENCODING 79
SWIDTH 990 0
DWIDTH 11 0
BBX 10 10 0 0
BITMAP
7F00
7F00
E1C0
E1C0
E1C0
E1C0
E1C0
E1C0
E1C0
7F00
ENDCHAR
STARTCHAR 0050
ENCODING 80
SWIDTH 990 0
DWIDTH 11 0
BBX 10 10 0 0
BITMAP
FF00
FF00
E1C0
E1C0
E1C0
E1C0
FF00
E000
E000
E000
ENDCHAR
STARTCHAR 0051
ENCODING 81
SWIDTH 990 0
DWIDTH 11 0
BBX 10 10 0 0
BITMAP
7F00
7F00
E1C0
E1C0
E1C0
E1C0
EFC0
E300
E300
7EC0
ENDCHAR
STARTCHAR 0052
ENCODING 82
SWIDTH 990 0
DWIDTH 11 0
BBX 10 10 0 0
BITMAP
FF00
FF00
E1C0
E1C0
E3C0
E3C0
FE00
EF00
EF00
E3C0
ENDCHAR
STARTCHAR 0053
ENCODING 83
SWIDTH 990 0
DWIDTH 11 0
BBX 10 10 0 0
BITMAP
7E00
7E00
E300
E000
7F00
7F00
01C0
E1C0
E1C0
7F00
ENDCHAR
STARTCHAR 0054
ENCODING 84
SWIDTH 990 0
DWIDTH 11 0
BBX 9 10 1 0
BITMAP
FF80
FF80
1C00
1C00
1C00
1C00
1C00
1C00
1C00
1C00
ENDCHAR
STARTCHAR 0055
ENCODING 85
SWIDTH 990 0
DWIDTH 11 0
BBX 10 10 0 0
BITMAP
E1C0
E1C0
E1C0
E1C0
E1C0
E1C0
E1C0
E1C0
E1C0
7F00
ENDCHAR
STARTCHAR 0056
ENCODING 86
SWIDTH 990 0
DWIDTH 11 0
BBX 10 10 0 0
BITMAP
E1C0
E1C0
E1C0
E1C0
F3C0
F3C0
7F00
1E00
1E00
0C00
ENDCHAR
STARTCHAR 0057
ENCODING 87
SWIDTH 990 0
DWIDTH 11 0
BBX 10 10 0 0
BITMAP
E1C0
E1C0
E1C0
EDC0
FFC0
FFC0
FFC0
F3C0
F3C0
E1C0
ENDCHAR
STARTCHAR 0058
ENCODING 88
SWIDTH 990 0
DWIDTH 11 0
BBX 10 10 0 0
BITMAP
E1C0
E1C0
F3C0
7F00
1E00
1E00
7F00
F3C0
F3C0
E1C0
ENDCHAR
STARTCHAR 0059
ENCODING 89
SWIDTH 990 0
DWIDTH 11 0
BBX 9 10 1 0
BITMAP
E380
E380
E380
E380
3E00
3E00
1C00
1C00
1C00
1C00
ENDCHAR
STARTCHAR 005A
ENCODING 90
SWIDTH 990 0
DWIDTH 11 0
BBX 10 10 0 0
BITMAP
FFC0
FFC0
03C0
0F00
1E00
1E00
7C00
F000
F000
FFC0
ENDCHAR
STARTCHAR 005B
ENCODING 91
SWIDTH 990 0
DWIDTH 11 0
BBX 5 10 3 0
BITMAP
F8
F8
E0
E0
E0
E0
E0
E0
E0
F8
ENDCHAR
STARTCHAR 005C
ENCODING 92
SWIDTH 990 0
DWIDTH 11 0
BBX 10 10 0 0
BITMAP
8000
8000
6000
1000
0C00
0C00
0200
0100
0100
00C0
ENDCHAR
STARTCHAR 005D
ENCODING 93
SWIDTH 990 0
DWIDTH 11 0
BBX 6 10 1 0
BITMAP
FC
FC
1C
1C
1C
1C
1C
1C
1C
FC
ENDCHAR
STARTCHAR 005E
ENCODING 94
SWIDTH 990 0
DWIDTH 11 0
BBX 7 4 1 6
BITMAP
18
18
24
C2
ENDCHAR
STARTCHAR 005F
ENCODING 95
SWIDTH 990 0
DWIDTH 11 0
BBX 10 1 0 -1
BITMAP
FFC0
ENDCHAR
STARTCHAR 0060
ENCODING 96
SWIDTH 990 0
DWIDTH 11 0
BBX 3 3 3 7
BITMAP
80
80
60
ENDCHAR
STARTCHAR 0061
ENCODING 97
SWIDTH 990 0
DWIDTH 11 0
BBX 10 10 0 0
BITMAP
1E00
1E00
7300
E1C0
E1C0
E1C0
FFC0
E1C0
E1C0
E1C0
ENDCHAR
STARTCHAR 0062
ENCODING 98
SWIDTH 990 0
DWIDTH 11 0
BBX 10 10 0 0
BITMAP
FF00
FF00
E1C0
E1C0
FF00
FF00
E1C0
E1C0
E1C0
FF00
ENDCHAR
STARTCHAR 0063
ENCODING 99
SWIDTH 990 0
DWIDTH 11 0
BBX 10 10 0 0
BITMAP
1F00
1F00
71C0
E000
E000
E000
E000
71C0
71C0
1F00
ENDCHAR
STARTCHAR 0064
ENCODING 100
SWIDTH 990 0
DWIDTH 11 0
BBX 10 10 0 0
BITMAP
FE00
FE00
E300
E1C0
E1C0
E1C0
E1C0
E300
E300
FE00
ENDCHAR
STARTCHAR 0065
ENCODING 101
SWIDTH 990 0
DWIDTH 11 0
BBX 10 10 0 0
BITMAP
FFC0
FFC0
E000
E000
FF00
FF00
E000
E000
E000
FFC0
ENDCHAR
STARTCHAR 0066
ENCODING 102
SWIDTH 990 0
DWIDTH 11 0
BBX 10 10 0 0
BITMAP
FFC0
FFC0
E000
E000
FF00
FF00
E000
E000
E000
E000
ENDCHAR
STARTCHAR 0067
ENCODING 103
SWIDTH 990 0
DWIDTH 11 0
BBX 10 10 0 0
BITMAP
1FC0
1FC0
7000
E000
E3C0
E3C0
E1C0
71C0
71C0
1FC0
ENDCHAR
STARTCHAR 0068
ENCODING 104
SWIDTH 990 0
DWIDTH 11 0
BBX 10 10 0 0
BITMAP
E1C0
E1C0
E1C0
E1C0
FFC0
FFC0
E1C0
E1C0
E1C0
E1C0
ENDCHAR
STARTCHAR 0069
ENCODING 105
SWIDTH 990 0
DWIDTH 11 0
BBX 9 10 1 0
BITMAP
FF80
FF80
1C00
1C00
1C00
1C00
1C00
1C00
1C00
FF80
ENDCHAR
STARTCHAR 006A
ENCODING 106
SWIDTH 990 0
DWIDTH 11 0
BBX 10 10 0 0
BITMAP
0FC0
0FC0
01C0
01C0
01C0
01C0
E1C0
E1C0
E1C0
7F00
ENDCHAR
STARTCHAR 006B
ENCODING 107
SWIDTH 990 0
DWIDTH 11 0
BBX 10 10 0 0
BITMAP
E1C0
E1C0
E300
EE00
FC00
FC00
FE00
EF00
EF00
E3C0
ENDCHAR
STARTCHAR 006C
ENCODING 108
SWIDTH 990 0
DWIDTH 11 0
BBX 9 10 1 0
BITMAP
E000
E000
E000
E000
E000
E000
E000
E000
E000
FF80
ENDCHAR
STARTCHAR 006D
ENCODING 109
SWIDTH 990 0
DWIDTH 11 0
BBX 10 10 0 0
BITMAP
E1C0
E1C0
F3C0
FFC0
FFC0
FFC0
EDC0
E1C0
E1C0
E1C0
ENDCHAR
STARTCHAR 006E
ENCODING 110
SWIDTH 990 0
DWIDTH 11 0
BBX 10 10 0 0
BITMAP
E1C0
E1C0
F1C0
FDC0
FFC0
FFC0
EFC0
E3C0
E3C0
E1C0
ENDCHAR
STARTCHAR 006F
ENCODING 111
SWIDTH 990 0
DWIDTH 11 0
BBX 10 10 0 0
BITMAP
7F00
7F00
E1C0
E1C0
E1C0
E1C0
E1C0
E1C0
E1C0
7F00
ENDCHAR
STARTCHAR 0070
ENCODING 112
SWIDTH 990 0
DWIDTH 11 0
BBX 10 10 0 0
BITMAP
FF00
FF00
E1C0
E1C0
E1C0
E1C0
FF00
E000
E000
E000
ENDCHAR
STARTCHAR 0071
ENCODING 113
SWIDTH 990 0
DWIDTH 11 0
BBX 10 10 0 0
BITMAP
7F00
7F00
E1C0
E1C0
E1C0
E1C0
EFC0
E300
E300
7EC0
ENDCHAR
STARTCHAR 0072
ENCODING 114
SWIDTH 990 0
DWIDTH 11 0
BBX 10 10 0 0
BITMAP
FF00
FF00
E1C0
E1C0
E3C0
E3C0
FE00
EF00
EF00
E3C0
ENDCHAR
STARTCHAR 0073
ENCODING 115
SWIDTH 990 0
DWIDTH 11 0
BBX 10 10 0 0
BITMAP
7E00
7E00
E300
E000
7F00
7F00
01C0
E1C0
E1C0
7F00
ENDCHAR
STARTCHAR 0074
ENCODING 116
SWIDTH 990 0
DWIDTH 11 0
BBX 9 10 1 0
BITMAP
FF80
FF80
1C00
1C00
1C00
1C00
1C00
1C00
1C00
1C00
ENDCHAR
STARTCHAR 0075
ENCODING 117
SWIDTH 990 0
DWIDTH 11 0
BBX 10 10 0 0
BITMAP
E1C0
E1C0
E1C0
E1C0
E1C0
E1C0
E1C0
E1C0
E1C0
7F00
ENDCHAR
STARTCHAR 0076
ENCODING 118
SWIDTH 990 0
DWIDTH 11 0
BBX 10 10 0 0
BITMAP
E1C0
E1C0
E1C0
E1C0
F3C0
F3C0
7F00
1E00
1E00
0C00
ENDCHAR
STARTCHAR 0077
ENCODING 119
SWIDTH 990 0
DWIDTH 11 0
BBX 10 10 0 0
BITMAP
E1C0
E1C0
E1C0
EDC0
FFC0
FFC0
FFC0
F3C0
F3C0
E1C0
ENDCHAR
STARTCHAR 0078
ENCODING 120
SWIDTH 990 0
DWIDTH 11 0
BBX 10 10 0 0
BITMAP
E1C0
E1C0
F3C0
7F00
1E00
1E00
7F00
F3C0
F3C0
E1C0
ENDCHAR
STARTCHAR 0079
ENCODING 121
SWIDTH 990 0
DWIDTH 11 0
BBX 9 10 1 0
BITMAP
E380
E380
E380
E380
3E00
3E00
1C00
1C00
1C00
1C00
ENDCHAR
STARTCHAR 007A
ENCODING 122
SWIDTH 990 0
DWIDTH 11 0
BBX 10 10 0 0
BITMAP
FFC0
FFC0
03C0
0F00
1E00
1E00
7C00
F000
F000
FFC0
ENDCHAR
STARTCHAR 007B
ENCODING 123
SWIDTH 990 0
DWIDTH 11 0
BBX 5 10 3 0
BITMAP
18
18
70
70
E0
E0
70
70
70
18
ENDCHAR
STARTCHAR 007C
ENCODING 124
SWIDTH 990 0
DWIDTH 11 0
BBX 3 10 4 0
BITMAP
E0
E0
E0
E0
E0
E0
E0
E0
E0
E0
ENDCHAR
STARTCHAR 007D
ENCODING 125
SWIDTH 990 0
DWIDTH 11 0
BBX 6 10 1 0
BITMAP
E0
E0
38
38
1C
1C
38
38
38
E0
ENDCHAR
STARTCHAR 007E
ENCODING 126
SWIDTH 990 0
DWIDTH 11 0
BBX 10 4 0 3
BITMAP
7000
8CC0
8CC0
0300
ENDCHAR
STARTCHAR 00A1
ENCODING 161
SWIDTH 990 0
DWIDTH 11 0
BBX 4 10 3 0
BITMAP
E0
E0
00
E0
E0
E0
F0
F0
F0
F0
ENDCHAR
STARTCHAR 00A2
ENCODING 162
SWIDTH 990 0
DWIDTH 11 0
BBX 10 10 0 0
BITMAP
0C00
0C00
7F00
EDC0
EC00
EC00
EDC0
7F00
7F00
0C00
ENDCHAR
STARTCHAR 00A3
ENCODING 163
SWIDTH 990 0
DWIDTH 11 0
BBX 10 10 0 0
BITMAP
1F00
1F00
71C0
7000
FF00
FF00
7000
7000
7000
FFC0
ENDCHAR
STARTCHAR 00A4
ENCODING 164
SWIDTH 990 0
DWIDTH 11 0
BBX 9 7 1 1
BITMAP
DD80
2200
2200
2200
2200
DD80
DD80
ENDCHAR
STARTCHAR 00A5
ENCODING 165
SWIDTH 990 0
DWIDTH 11 0
BBX 9 10 1 0
BITMAP
E380
E380
E380
3E00
FF80
FF80
1C00
FF80
FF80
1C00
ENDCHAR
STARTCHAR 00A6
ENCODING 166
SWIDTH 990 0
DWIDTH 11 0
BBX 3 10 4 0
BITMAP
E0
E0
E0
E0
00
00
E0
E0
E0
E0
ENDCHAR
STARTCHAR 00A7
ENCODING 167
SWIDTH 990 0
DWIDTH 11 0
BBX 10 10 0 0
BITMAP
7E00
7E00
E300
EC00
7300
7300
0DC0
E1C0
E1C0
7F00
ENDCHAR
STARTCHAR 00A8
ENCODING 168
SWIDTH 990 0
DWIDTH 11 0
BBX 7 2 1 8
BITMAP
E6
E6
ENDCHAR
STARTCHAR 00A9
ENCODING 169
SWIDTH 990 0
DWIDTH 11 0
BBX 11 11 0 -1
BITMAP
1F00
1F00
60C0
8E20
9020
9020
9020
8E20
8E20
60C0
1F00
ENDCHAR
STARTCHAR 00AA
ENCODING 170
SWIDTH 990 0
DWIDTH 11 0
BBX 7 6 1 4
BITMAP
FC
FC
3E
E6
3E
3E
ENDCHAR
STARTCHAR 00AB
ENCODING 171
SWIDTH 990 0
DWIDTH 11 0
BBX 9 7 1 1
BITMAP
1980
2200
C400
C400
2200
1980
1980
ENDCHAR
STARTCHAR 00AC
ENCODING 172
SWIDTH 990 0
DWIDTH 11 0
BBX 7 4 1 3
BITMAP
FE
02
02
02
ENDCHAR
STARTCHAR 00AD
ENCODING 173
SWIDTH 990 0
DWIDTH 11 0
BBX 9 3 1 3
BITMAP
FF80
FF80
FF80
ENDCHAR
STARTCHAR 00AE
ENCODING 174
SWIDTH 990 0
DWIDTH 11 0
BBX 11 11 0 -1
BITMAP
1F00
1F00
60C0
9E20
9120
9120
9E20
9120
9120
60C0
1F00
ENDCHAR
STARTCHAR 00AF
ENCODING 175
SWIDTH 990 0
DWIDTH 11 0
BBX 7 2 1 8
BITMAP
FE
FE
ENDCHAR
STARTCHAR 00B0
ENCODING 176
SWIDTH 990 0
DWIDTH 11 0
BBX 4 4 3 6
BITMAP
60
60
90
60
ENDCHAR
STARTCHAR 00B1
ENCODING 177
SWIDTH 990 0
DWIDTH 11 0
BBX 7 10 1 0
BITMAP
18
18
18
FE
18
18
18
00
00
FE
ENDCHAR
STARTCHAR 00B2
ENCODING 178
SWIDTH 990 0
DWIDTH 11 0
BBX 5 6 3 4
BITMAP
F0
F0
18
70
F8
F8
ENDCHAR
STARTCHAR 00B3
ENCODING 179
SWIDTH 990 0
DWIDTH 11 0
BBX 5 6 3 4
BITMAP
F8
F8
70
18
F0
F0
ENDCHAR
STARTCHAR 00B4
ENCODING 180
SWIDTH 990 0
DWIDTH 11 0
BBX 3 3 4 7
BITMAP
20
20
C0
ENDCHAR
STARTCHAR 00B5
ENCODING 181
SWIDTH 990 0
DWIDTH 11 0
BBX 10 8 0 0
BITMAP
E300
E300
E300
E300
E300
FDC0
FDC0
E000
ENDCHAR
STARTCHAR 00B6
ENCODING 182
SWIDTH 990 0
DWIDTH 11 0
BBX 10 10 0 0
BITMAP
7FC0
7FC0
FCC0
FCC0
7CC0
7CC0
0CC0
0CC0
0CC0
0CC0
ENDCHAR
STARTCHAR 00B7
ENCODING 183
SWIDTH 990 0
DWIDTH 11 0
BBX 3 3 4 3
BITMAP
E0
E0
E0
ENDCHAR
STARTCHAR 00B8
ENCODING 184
SWIDTH 990 0
DWIDTH 11 0
BBX 4 2 3 -1
BITMAP
10
E0
ENDCHAR
STARTCHAR 00B9
ENCODING 185
SWIDTH 990 0
DWIDTH 11 0
BBX 5 6 3 4
BITMAP
70
70
F0
70
F8
F8
ENDCHAR
STARTCHAR 00BA
ENCODING 186
SWIDTH 990 0
DWIDTH 11 0
BBX 7 6 1 4
BITMAP
3C
3C
E6
E6
3C
3C
ENDCHAR
STARTCHAR 00BB
ENCODING 187
SWIDTH 990 0
DWIDTH 11 0
BBX 9 7 1 1
BITMAP
C400
2200
1980
1980
2200
C400
C400
ENDCHAR
STARTCHAR 00BC
ENCODING 188
SWIDTH 990 0
DWIDTH 11 0
BBX 10 10 0 0
BITMAP
60C0
60C0
E100
6200
6CC0
6CC0
11C0
63C0
63C0
80C0
ENDCHAR
STARTCHAR 00BD
ENCODING 189
SWIDTH 990 0
DWIDTH 11 0
BBX 10 10 0 0
BITMAP
60C0
60C0
E100
6200
6DC0
6DC0
10C0
6100
6100
83C0
ENDCHAR
STARTCHAR 00BE
ENCODING 190
SWIDTH 990 0
DWIDTH 11 0
BBX 10 10 0 0
BITMAP
F0C0
F0C0
6100
1200
ECC0
ECC0
11C0
63C0
63C0
80C0
ENDCHAR
STARTCHAR 00BF
ENCODING 191
SWIDTH 990 0
DWIDTH 11 0
BBX 10 10 0 0
BITMAP
1C00
1C00
0000
1C00
0F00
0F00
E1C0
E1C0
E1C0
7F00
ENDCHAR
STARTCHAR 00C0
ENCODING 192
SWIDTH 990 0
DWIDTH 11 0
BBX 10 10 0 0
BITMAP
1000
1000
0C00
1E00
7300
7300
E1C0
FFC0
FFC0
E1C0
ENDCHAR
STARTCHAR 00C1
ENCODING 193
SWIDTH 990 0
DWIDTH 11 0
BBX 10 10 0 0
BITMAP
0200
0200
0C00
1E00
7300
7300
E1C0
FFC0
FFC0
E1C0
ENDCHAR
STARTCHAR 00C2
ENCODING 194
SWIDTH 990 0
DWIDTH 11 0
BBX 10 10 0 0
BITMAP
1E00
1E00
7300
1E00
7300
7300
E1C0
FFC0
FFC0
E1C0
ENDCHAR
STARTCHAR 00C3
ENCODING 195
SWIDTH 990 0
DWIDTH 11 0
BBX 10 10 0 0
BITMAP
1D00
1D00
6E00
1E00
7300
7300
E1C0
FFC0
FFC0
E1C0
ENDCHAR
STARTCHAR 00C4
ENCODING 196
SWIDTH 990 0
DWIDTH 11 0
BBX 10 10 0 0
BITMAP
7300
7300
0000
1E00
7300
7300
E1C0
FFC0
FFC0
E1C0
ENDCHAR
STARTCHAR 00C5
ENCODING 197
SWIDTH 990 0
DWIDTH 11 0
BBX 10 10 0 0
BITMAP
0C00
0C00
1200
1E00
7300
7300
E1C0
FFC0
FFC0
E1C0
ENDCHAR
STARTCHAR 00C6
ENCODING 198
SWIDTH 990 0
DWIDTH 11 0
BBX 10 10 0 0
BITMAP
1FC0
1FC0
7E00
EE00
EFC0
EFC0
FE00
EE00
EE00
EFC0
ENDCHAR
STARTCHAR 00C7
ENCODING 199
SWIDTH 990 0
DWIDTH 11 0
BBX 10 11 0 -1
BITMAP
1F00
1F00
71C0
E000
E000
E000
71C0
1F00
1F00
0200
1C00
ENDCHAR
STARTCHAR 00C8
ENCODING 200
SWIDTH 990 0
DWIDTH 11 0
BBX 10 10 0 0
BITMAP
1000
1000
0C00
FFC0
E000
E000
FF00
E000
E000
FFC0
ENDCHAR
STARTCHAR 00C9
ENCODING 201
SWIDTH 990 0
DWIDTH 11 0
BBX 10 10 0 0
BITMAP
0200
0200
0C00
FFC0
E000
E000
FF00
E000
E000
FFC0
ENDCHAR
STARTCHAR 00CA
ENCODING 202
SWIDTH 990 0
DWIDTH 11 0
BBX 10 10 0 0
BITMAP
1E00
1E00
7300
FFC0
E000
E000
FF00
E000
E000
FFC0
ENDCHAR
STARTCHAR 00CB
ENCODING 203
SWIDTH 990 0
DWIDTH 11 0
BBX 10 10 0 0
BITMAP
7300
7300
0000
FFC0
E000
E000
FF00
E000
E000
FFC0
ENDCHAR
STARTCHAR 00CC
ENCODING 204
SWIDTH 990 0
DWIDTH 11 0
BBX 9 10 1 0
BITMAP
1800
1800
0400
FF80
1C00
1C00
1C00
1C00
1C00
FF80
ENDCHAR
STARTCHAR 00CD
ENCODING 205
SWIDTH 990 0
DWIDTH 11 0
BBX 9 10 1 0
BITMAP
0400
0400
1800
FF80
1C00
1C00
1C00
1C00
1C00
FF80
ENDCHAR
STARTCHAR 00CE
ENCODING 206
SWIDTH 990 0
DWIDTH 11 0
BBX 9 10 1 0
BITMAP
1C00
1C00
3E00
FF80
1C00
1C00
1C00
1C00
1C00
FF80
ENDCHAR
STARTCHAR 00CF
ENCODING 207
SWIDTH 990 0
DWIDTH 11 0
BBX 9 10 1 0
BITMAP
E380
E380
0000
FF80
1C00
1C00
1C00
1C00
1C00
FF80
ENDCHAR
STARTCHAR 00D0
ENCODING 208
SWIDTH 990 0
DWIDTH 11 0
BBX 10 10 0 0
BITMAP
7E00
7E00
7300
71C0
FDC0
FDC0
71C0
7300
7300
7E00
ENDCHAR
STARTCHAR 00D1
ENCODING 209
SWIDTH 990 0
DWIDTH 11 0
BBX 10 10 0 0
BITMAP
1D00
1D00
6E00
F1C0
FDC0
FDC0
FFC0
EFC0
EFC0
E3C0
ENDCHAR
STARTCHAR 00D2
ENCODING 210
SWIDTH 990 0
DWIDTH 11 0
BBX 10 10 0 0
BITMAP
1000
1000
0C00
7F00
E1C0
E1C0
E1C0
E1C0
E1C0
7F00
ENDCHAR
STARTCHAR 00D3
ENCODING 211
SWIDTH 990 0
DWIDTH 11 0
BBX 10 10 0 0
BITMAP
0200
0200
0C00
7F00
E1C0
E1C0
E1C0
E1C0
E1C0
7F00
ENDCHAR
STARTCHAR 00D4
ENCODING 212
SWIDTH 990 0
DWIDTH 11 0
BBX 10 10 0 0
BITMAP
1E00
1E00
7300
7F00
E1C0
E1C0
E1C0
E1C0
E1C0
7F00
ENDCHAR
STARTCHAR 00D5
ENCODING 213
SWIDTH 990 0
DWIDTH 11 0
BBX 10 10 0 0
BITMAP
1D00
1D00
6E00
7F00
E1C0
E1C0
E1C0
E1C0
E1C0
7F00
ENDCHAR
STARTCHAR 00D6
ENCODING 214
SWIDTH 990 0
DWIDTH 11 0
BBX 10 10 0 0
BITMAP
7300
7300
0000
7F00
E1C0
E1C0
E1C0
E1C0
E1C0
7F00
ENDCHAR
STARTCHAR 00D7
ENCODING 215
SWIDTH 990 0
DWIDTH 11 0
BBX 7 7 1 1
BITMAP
C2
24
18
18
24
C2
C2
ENDCHAR
STARTCHAR 00D8
ENCODING 216
SWIDTH 990 0
DWIDTH 11 0
BBX 10 10 0 0
BITMAP
7F00
7F00
E1C0
E3C0
EDC0
EDC0
F1C0
E1C0
E1C0
7F00
ENDCHAR
STARTCHAR 00D9
ENCODING 217
SWIDTH 990 0
DWIDTH 11 0
BBX 10 10 0 0
BITMAP
1000
1000
0C00
E1C0
E1C0
E1C0
E1C0
E1C0
E1C0
7F00
ENDCHAR
STARTCHAR 00DA
ENCODING 218
SWIDTH 990 0
DWIDTH 11 0
BBX 10 10 0 0
BITMAP
0200
0200
0C00
E1C0
E1C0
E1C0
E1C0
E1C0
E1C0
7F00
ENDCHAR
STARTCHAR 00DB
ENCODING 219
SWIDTH 990 0
DWIDTH 11 0
BBX 10 10 0 0
BITMAP
1E00
1E00
7300
0000
E1C0
E1C0
E1C0
E1C0
E1C0
7F00
ENDCHAR
STARTCHAR 00DC
ENCODING 220
SWIDTH 990 0
DWIDTH 11 0
BBX 10 10 0 0
BITMAP
7300
7300
0000
E1C0
E1C0
E1C0
E1C0
E1C0
E1C0
7F00
ENDCHAR
STARTCHAR 00DD
ENCODING 221
SWIDTH 990 0
DWIDTH 11 0
BBX 9 10 1 0
BITMAP
0400
0400
1800
E380
E380
E380
3E00
1C00
1C00
1C00
ENDCHAR
STARTCHAR 00DE
ENCODING 222
SWIDTH 990 0
DWIDTH 11 0
BBX 10 10 0 0
BITMAP
E000
E000
FF00
E1C0
E1C0
E1C0
E1C0
FF00
FF00
E000
ENDCHAR
STARTCHAR 00DF
ENCODING 223
SWIDTH 990 0
DWIDTH 11 0
BBX 10 10 0 0
BITMAP
FF00
FF00
E1C0
E1C0
EF00
EF00
E1C0
E1C0
E1C0
EF00
ENDCHAR
STARTCHAR 00E0
ENCODING 224
SWIDTH 990 0
DWIDTH 11 0
BBX 10 10 0 0
BITMAP
1000
1000
0C00
1E00
7300
7300
E1C0
FFC0
FFC0
E1C0
ENDCHAR
STARTCHAR 00E1
ENCODING 225
SWIDTH 990 0
DWIDTH 11 0
BBX 10 10 0 0
BITMAP
0200
0200
0C00
1E00
7300
7300
E1C0
FFC0
FFC0
E1C0
ENDCHAR
STARTCHAR 00E2
ENCODING 226
SWIDTH 990 0
DWIDTH 11 0
BBX 10 10 0 0
BITMAP
1E00
1E00
7300
1E00
7300
7300
E1C0
FFC0
FFC0
E1C0
ENDCHAR
STARTCHAR 00E3
ENCODING 227
SWIDTH 990 0
DWIDTH 11 0
BBX 10 10 0 0
BITMAP
1D00
1D00
6E00
1E00
7300
7300
E1C0
FFC0
FFC0
E1C0
ENDCHAR
STARTCHAR 00E4
ENCODING 228
SWIDTH 990 0
DWIDTH 11 0
BBX 10 10 0 0
BITMAP
7300
7300
0000
1E00
7300
7300
E1C0
FFC0
FFC0
E1C0
ENDCHAR
STARTCHAR 00E5
ENCODING 229
SWIDTH 990 0
DWIDTH 11 0
BBX 10 10 0 0
BITMAP
0C00
0C00
1200
1E00
7300
7300
E1C0
FFC0
FFC0
E1C0
ENDCHAR
STARTCHAR 00E6
ENCODING 230
SWIDTH 990 0
DWIDTH 11 0
BBX 10 10 0 0
BITMAP
1FC0
1FC0
7E00
EE00
EFC0
EFC0
FE00
EE00
EE00
EFC0
ENDCHAR
STARTCHAR 00E7
ENCODING 231
SWIDTH 990 0
DWIDTH 11 0
BBX 10 11 0 -1
BITMAP
1F00
1F00
71C0
E000
E000
E000
71C0
1F00
1F00
0200
1C00
ENDCHAR
STARTCHAR 00E8
ENCODING 232
SWIDTH 990 0
DWIDTH 11 0
BBX 10 10 0 0
BITMAP
1000
1000
0C00
FFC0
E000
E000
FF00
E000
E000
FFC0
ENDCHAR
STARTCHAR 00E9
ENCODING 233
SWIDTH 990 0
DWIDTH 11 0
BBX 10 10 0 0
BITMAP
0200
0200
0C00
FFC0
E000
E000
FF00
E000
E000
FFC0
ENDCHAR
STARTCHAR 00EA
ENCODING 234
SWIDTH 990 0
DWIDTH 11 0
BBX 10 10 0 0
BITMAP
1E00
1E00
7300
FFC0
E000
E000
FF00
E000
E000
FFC0
ENDCHAR
STARTCHAR 00EB
ENCODING 235
SWIDTH 990 0
DWIDTH 11 0
BBX 10 10 0 0
BITMAP
7300
7300
0000
FFC0
E000
E000
FF00
E000
E000
FFC0
ENDCHAR
STARTCHAR 00EC
ENCODING 236
SWIDTH 990 0
DWIDTH 11 0
BBX 9 10 1 0
BITMAP
1800
1800
0400
FF80
1C00
1C00
1C00
1C00
1C00
FF80
ENDCHAR
STARTCHAR 00ED
ENCODING 237
SWIDTH 990 0
DWIDTH 11 0
BBX 9 10 1 0
BITMAP
0400
0400
1800
FF80
1C00
1C00
1C00
1C00
1C00
FF80
ENDCHAR
STARTCHAR 00EE
ENCODING 238
SWIDTH 990 0
DWIDTH 11 0
BBX 9 10 1 0
BITMAP
1C00
1C00
3E00
FF80
1C00
1C00
1C00
1C00
1C00
FF80
ENDCHAR
STARTCHAR 00EF
ENCODING 239
SWIDTH 990 0
DWIDTH 11 0
BBX 9 10 1 0
BITMAP
E380
E380
0000
FF80
1C00
1C00
1C00
1C00
1C00
FF80
ENDCHAR
STARTCHAR 00F0
ENCODING 240
SWIDTH 990 0
DWIDTH 11 0
BBX 10 10 0 0
BITMAP
7100
7100
7E00
8E00
7F00
7F00
E1C0
E1C0
E1C0
7F00
ENDCHAR
STARTCHAR 00F1
ENCODING 241
SWIDTH 990 0
DWIDTH 11 0
BBX 10 10 0 0
BITMAP
1D00
1D00
6E00
F1C0
FDC0
FDC0
FFC0
EFC0
EFC0
E3C0
ENDCHAR
STARTCHAR 00F2
ENCODING 242
SWIDTH 990 0
DWIDTH 11 0
BBX 10 10 0 0
BITMAP
1000
1000
0C00
7F00
E1C0
E1C0
E1C0
E1C0
E1C0
7F00
ENDCHAR
STARTCHAR 00F3
ENCODING 243
SWIDTH 990 0
DWIDTH 11 0
BBX 10 10 0 0
BITMAP
0200
0200
0C00
7F00
E1C0
E1C0
E1C0
E1C0
E1C0
7F00
ENDCHAR
STARTCHAR 00F4
ENCODING 244
SWIDTH 990 0
DWIDTH 11 0
BBX 10 10 0 0
BITMAP
1E00
1E00
7300
7F00
E1C0
E1C0
E1C0
E1C0
E1C0
7F00
ENDCHAR
STARTCHAR 00F5
ENCODING 245
SWIDTH 990 0
DWIDTH 11 0
BBX 10 10 0 0
BITMAP
1D00
1D00
6E00
7F00
E1C0
E1C0
E1C0
E1C0
E1C0
7F00
ENDCHAR
STARTCHAR 00F6
ENCODING 246
SWIDTH 990 0
DWIDTH 11 0
BBX 10 10 0 0
BITMAP
7300
7300
0000
7F00
E1C0
E1C0
E1C0
E1C0
E1C0
7F00
ENDCHAR
STARTCHAR 00F7
ENCODING 247
SWIDTH 990 0
DWIDTH 11 0
BBX 7 7 1 1
BITMAP
18
00
FE
FE
00
18
18
ENDCHAR
STARTCHAR 00F8
ENCODING 248
SWIDTH 990 0
DWIDTH 11 0
BBX 10 10 0 0
BITMAP
7F00
7F00
E1C0
E3C0
EDC0
EDC0
F1C0
E1C0
E1C0
7F00
ENDCHAR
STARTCHAR 00F9
ENCODING 249
SWIDTH 990 0
DWIDTH 11 0
BBX 10 10 0 0
BITMAP
1000
1000
0C00
E1C0
E1C0
E1C0
E1C0
E1C0
E1C0
7F00
ENDCHAR
STARTCHAR 00FA
ENCODING 250
SWIDTH 990 0
DWIDTH 11 0
BBX 10 10 0 0
BITMAP
0200
0200
0C00
E1C0
E1C0
E1C0
E1C0
E1C0
E1C0
7F00
ENDCHAR
STARTCHAR 00FB
ENCODING 251
SWIDTH 990 0
DWIDTH 11 0
BBX 10 10 0 0
BITMAP
1E00
1E00
7300
0000
E1C0
E1C0
E1C0
E1C0
E1C0
7F00
ENDCHAR
STARTCHAR 00FC
ENCODING 252
SWIDTH 990 0
DWIDTH 11 0
BBX 10 10 0 0
BITMAP
7300
7300
0000
E1C0
E1C0
E1C0
E1C0
E1C0
E1C0
7F00
ENDCHAR
STARTCHAR 00FD
ENCODING 253
SWIDTH 990 0
DWIDTH 11 0
BBX 9 10 1 0
BITMAP
0400
0400
1800
E380
E380
E380
3E00
1C00
1C00
1C00
ENDCHAR
STARTCHAR 00FE
ENCODING 254
SWIDTH 990 0
DWIDTH 11 0
BBX 10 10 0 0
BITMAP
E000
E000
FF00
E1C0
E1C0
E1C0
E1C0
FF00
FF00
E000
ENDCHAR
STARTCHAR 00FF
ENCODING 255
SWIDTH 990 0
DWIDTH 11 0
BBX 9 10 1 0
BITMAP
E380
E380
0000
E380
E380
E380
3E00
1C00
1C00
1C00
ENDCHAR
STARTCHAR 0100
ENCODING 256
SWIDTH 990 0
DWIDTH 11 0
BBX 10 10 0 0
BITMAP
7F00
7F00
0000
1E00
7300
7300
E1C0
FFC0
FFC0
E1C0
ENDCHAR
STARTCHAR 0101
ENCODING 257
SWIDTH 990 0
DWIDTH 11 0
BBX 10 10 0 0
BITMAP
7F00
7F00
0000
1E00
7300
7300
E1C0
FFC0
FFC0
E1C0
ENDCHAR
STARTCHAR 0102
ENCODING 258
SWIDTH 990 0
DWIDTH 11 0
BBX 10 10 0 0
BITMAP
6100
6100
1E00
1E00
7300
7300
E1C0
FFC0
FFC0
E1C0
ENDCHAR
STARTCHAR 0103
ENCODING 259
SWIDTH 990 0
DWIDTH 11 0
BBX 10 10 0 0
BITMAP
6100
6100
1E00
1E00
7300
7300
E1C0
FFC0
FFC0
E1C0
ENDCHAR
STARTCHAR 0104
ENCODING 260
SWIDTH 990 0
DWIDTH 11 0
BBX 10 11 0 -1
BITMAP
1E00
1E00
7300
E1C0
FFC0
FFC0
E1C0
0100
0100
0200
01C0
ENDCHAR
STARTCHAR 0105
ENCODING 261
SWIDTH 990 0
DWIDTH 11 0
BBX 10 11 0 -1
BITMAP
1E00
1E00
7300
E1C0
FFC0
FFC0
E1C0
0100
0100
0200
01C0
ENDCHAR
STARTCHAR 0106
ENCODING 262
SWIDTH 990 0
DWIDTH 11 0
BBX 10 10 0 0
BITMAP
0200
0200
0C00
1F00
71C0
71C0
E000
71C0
71C0
1F00
ENDCHAR
STARTCHAR 0107
ENCODING 263
SWIDTH 990 0
DWIDTH 11 0
BBX 10 10 0 0
BITMAP
0200
0200
0C00
1F00
71C0
71C0
E000
71C0
71C0
1F00
ENDCHAR
STARTCHAR 0108
ENCODING 264
SWIDTH 990 0
DWIDTH 11 0
BBX 10 10 0 0
BITMAP
1E00
1E00
7300
1F00
71C0
71C0
E000
71C0
71C0
1F00
ENDCHAR
STARTCHAR 0109
ENCODING 265
SWIDTH 990 0
DWIDTH 11 0
BBX 10 10 0 0
BITMAP
1E00
1E00
7300
1F00
71C0
71C0
E000
71C0
71C0
1F00
ENDCHAR
STARTCHAR 010A
ENCODING 266
SWIDTH 990 0
DWIDTH 11 0
BBX 10 10 0 0
BITMAP
0E00
0E00
0000
1F00
71C0
71C0
E000
71C0
71C0
1F00
ENDCHAR
STARTCHAR 010B
ENCODING 267
SWIDTH 990 0
DWIDTH 11 0
BBX 10 10 0 0
BITMAP
0E00
0E00
0000
1F00
71C0
71C0
E000
71C0
71C0
1F00
ENDCHAR
STARTCHAR 010C
ENCODING 268
SWIDTH 990 0
DWIDTH 11 0
BBX 10 10 0 0
BITMAP
71C0
71C0
1F00
1F00
71C0
71C0
E000
71C0
71C0
1F00
ENDCHAR
STARTCHAR 010D
ENCODING 269
SWIDTH 990 0
DWIDTH 11 0
BBX 10 10 0 0
BITMAP
71C0
71C0
1F00
1F00
71C0
71C0
E000
71C0
71C0
1F00
ENDCHAR
STARTCHAR 010E
ENCODING 270
SWIDTH 990 0
DWIDTH 11 0
BBX 10 10 0 0
BITMAP
7300
7300
1E00
FE00
E300
E300
E1C0
E300
E300
FE00
ENDCHAR
STARTCHAR 010F
ENCODING 271
SWIDTH 990 0
DWIDTH 11 0
BBX 10 10 0 0
BITMAP
7300
7300
1E00
FE00
E300
E300
E1C0
E300
E300
FE00
ENDCHAR
STARTCHAR 0110
ENCODING 272
SWIDTH 990 0
DWIDTH 11 0
BBX 10 10 0 0
BITMAP
7E00
7E00
7300
71C0
FDC0
FDC0
71C0
7300
7300
7E00
ENDCHAR
STARTCHAR 0111
ENCODING 273
SWIDTH 990 0
DWIDTH 11 0
BBX 10 10 0 0
BITMAP
7E00
7E00
7300
71C0
FDC0
FDC0
71C0
7300
7300
7E00
ENDCHAR
STARTCHAR 0112
ENCODING 274
SWIDTH 990 0
DWIDTH 11 0
BBX 10 10 0 0
BITMAP
7F00
7F00
0000
FFC0
E000
E000
FF00
E000
E000
FFC0
ENDCHAR
STARTCHAR 0113
ENCODING 275
SWIDTH 990 0
DWIDTH 11 0
BBX 10 10 0 0
BITMAP
7F00
7F00
0000
FFC0
E000
E000
FF00
E000
E000
FFC0
ENDCHAR
STARTCHAR 0114
ENCODING 276
SWIDTH 990 0
DWIDTH 11 0
BBX 10 10 0 0
BITMAP
6100
6100
1E00
FFC0
E000
E000
FF00
E000
E000
FFC0
ENDCHAR
STARTCHAR 0115
ENCODING 277
SWIDTH 990 0
DWIDTH 11 0
BBX 10 10 0 0
BITMAP
6100
6100
1E00
FFC0
E000
E000
FF00
E000
E000
FFC0
ENDCHAR
STARTCHAR 0116
ENCODING 278
SWIDTH 990 0
DWIDTH 11 0
BBX 10 10 0 0
BITMAP
0E00
0E00
0000
FFC0
E000
E000
FF00
E000
E000
FFC0
ENDCHAR
STARTCHAR 0117
ENCODING 279
SWIDTH 990 0
DWIDTH 11 0
BBX 10 10 0 0
BITMAP
0E00
0E00
0000
FFC0
E000
E000
FF00
E000
E000
FFC0
ENDCHAR
STARTCHAR 0118
ENCODING 280
SWIDTH 990 0
DWIDTH 11 0
BBX 10 11 0 -1
BITMAP
FFC0
FFC0
E000
FF00
E000
E000
FFC0
0C00
0C00
1000
0E00
ENDCHAR
STARTCHAR 0119
ENCODING 281
SWIDTH 990 0
DWIDTH 11 0
BBX 10 11 0 -1
BITMAP
FFC0
FFC0
E000
FF00
E000
E000
FFC0
0C00
0C00
1000
0E00
ENDCHAR
STARTCHAR 011A
ENCODING 282
SWIDTH 990 0
DWIDTH 11 0
BBX 10 10 0 0
BITMAP
7300
7300
1E00
FFC0
E000
E000
FF00
E000
E000
FFC0
ENDCHAR
STARTCHAR 011B
ENCODING 283
SWIDTH 990 0
DWIDTH 11 0
BBX 10 10 0 0
BITMAP
7300
7300
1E00
FFC0
E000
E000
FF00
E000
E000
FFC0
ENDCHAR
STARTCHAR 011C
ENCODING 284
SWIDTH 990 0
DWIDTH 11 0
BBX 10 10 0 0
BITMAP
1E00
1E00
7300
7FC0
E000
E000
E3C0
E1C0
E1C0
7FC0
ENDCHAR
STARTCHAR 011D
ENCODING 285
SWIDTH 990 0
DWIDTH 11 0
BBX 10 10 0 0
BITMAP
1E00
1E00
7300
7FC0
E000
E000
E3C0
E1C0
E1C0
7FC0
ENDCHAR
STARTCHAR 011E
ENCODING 286
SWIDTH 990 0
DWIDTH 11 0
BBX 10 10 0 0
BITMAP
6100
6100
1E00
7FC0
E000
E000
E3C0
E1C0
E1C0
7FC0
ENDCHAR
STARTCHAR 011F
ENCODING 287
SWIDTH 990 0
DWIDTH 11 0
BBX 10 10 0 0
BITMAP
6100
6100
1E00
7FC0
E000
E000
E3C0
E1C0
E1C0
7FC0
ENDCHAR
STARTCHAR 0120
ENCODING 288
SWIDTH 990 0
DWIDTH 11 0
BBX 10 10 0 0
BITMAP
0E00
0E00
0000
7FC0
E000
E000
E3C0
E1C0
E1C0
7FC0
ENDCHAR
STARTCHAR 0121
ENCODING 289
SWIDTH 990 0
DWIDTH 11 0
BBX 10 10 0 0
BITMAP
0E00
0E00
0000
7FC0
E000
E000
E3C0
E1C0
E1C0
7FC0
ENDCHAR
STARTCHAR 0122
ENCODING 290
SWIDTH 990 0
DWIDTH 11 0
BBX 10 11 0 -1
BITMAP
1FC0
1FC0
7000
E000
E3C0
E3C0
71C0
1FC0
1FC0
0E00
1C00
ENDCHAR
STARTCHAR 0123
ENCODING 291
SWIDTH 990 0
DWIDTH 11 0
BBX 10 11 0 -1
BITMAP
1FC0
1FC0
7000
E000
E3C0
E3C0
71C0
1FC0
1FC0
0E00
1C00
ENDCHAR
STARTCHAR 0124
ENCODING 292
SWIDTH 990 0
DWIDTH 11 0
BBX 10 10 0 0
BITMAP
1E00
1E00
F3C0
E1C0
E1C0
E1C0
FFC0
E1C0
E1C0
E1C0
ENDCHAR
STARTCHAR 0125
ENCODING 293
SWIDTH 990 0
DWIDTH 11 0
BBX 10 10 0 0
BITMAP
1E00
1E00
F3C0
E1C0
E1C0
E1C0
FFC0
E1C0
E1C0
E1C0
ENDCHAR
STARTCHAR 0126
ENCODING 294
SWIDTH 990 0
DWIDTH 11 0
BBX 10 10 0 0
BITMAP
E1C0
E1C0
FFC0
E1C0
FFC0
FFC0
E1C0
E1C0
E1C0
E1C0
ENDCHAR
STARTCHAR 0127
ENCODING 295
SWIDTH 990 0
DWIDTH 11 0
BBX 10 10 0 0
BITMAP
E1C0
E1C0
FFC0
E1C0
FFC0
FFC0
E1C0
E1C0
E1C0
E1C0
ENDCHAR
STARTCHAR 0128
ENCODING 296
SWIDTH 990 0
DWIDTH 11 0
BBX 9 10 1 0
BITMAP
3980
3980
C600
FF80
1C00
1C00
1C00
1C00
1C00
FF80
ENDCHAR
STARTCHAR 0129
ENCODING 297
SWIDTH 990 0
DWIDTH 11 0
BBX 9 10 1 0
BITMAP
3980
3980
C600
FF80
1C00
1C00
1C00
1C00
1C00
FF80
ENDCHAR
STARTCHAR 012A
ENCODING 298
SWIDTH 990 0
DWIDTH 11 0
BBX 9 10 1 0
BITMAP
FF80
FF80
0000
FF80
1C00
1C00
1C00
1C00
1C00
FF80
ENDCHAR
STARTCHAR 012B
ENCODING 299
SWIDTH 990 0
DWIDTH 11 0
BBX 9 10 1 0
BITMAP
FF80
FF80
0000
FF80
1C00
1C00
1C00
1C00
1C00
FF80
ENDCHAR
STARTCHAR 012C
ENCODING 300
SWIDTH 990 0
DWIDTH 11 0
BBX 9 10 1 0
BITMAP
2200
2200
1C00
FF80
1C00
1C00
1C00
1C00
1C00
FF80
ENDCHAR
STARTCHAR 012D
ENCODING 301
SWIDTH 990 0
DWIDTH 11 0
BBX 9 10 1 0
BITMAP
2200
2200
1C00
FF80
1C00
1C00
1C00
1C00
1C00
FF80
ENDCHAR
STARTCHAR 012E
ENCODING 302
SWIDTH 990 0
DWIDTH 11 0
BBX 9 11 1 -1
BITMAP
FF80
FF80
1C00
1C00
1C00
1C00
FF80
1800
1800
2000
1C00
ENDCHAR
STARTCHAR 012F
ENCODING 303
SWIDTH 990 0
DWIDTH 11 0
BBX 9 11 1 -1
BITMAP
FF80
FF80
1C00
1C00
1C00
1C00
FF80
1800
1800
2000
1C00
ENDCHAR
STARTCHAR 0130
ENCODING 304
SWIDTH 990 0
DWIDTH 11 0
BBX 9 10 1 0
BITMAP
1C00
1C00
0000
FF80
1C00
1C00
1C00
1C00
1C00
FF80
ENDCHAR
STARTCHAR 0131
ENCODING 305
SWIDTH 990 0
DWIDTH 11 0
BBX 9 10 1 0
BITMAP
1C00
1C00
0000
FF80
1C00
1C00
1C00
1C00
1C00
FF80
ENDCHAR
STARTCHAR 0132
ENCODING 306
SWIDTH 990 0
DWIDTH 11 0
BBX 10 10 0 0
BITMAP
FDC0
FDC0
71C0
71C0
71C0
71C0
FDC0
01C0
01C0
7F00
ENDCHAR
STARTCHAR 0133
ENCODING 307
SWIDTH 990 0
DWIDTH 11 0
BBX 10 10 0 0
BITMAP
FDC0
FDC0
71C0
71C0
71C0
71C0
FDC0
01C0
01C0
7F00
ENDCHAR
STARTCHAR 0134
ENCODING 308
SWIDTH 990 0
DWIDTH 11 0
BBX 10 10 0 0
BITMAP
0F00
0F00
1DC0
01C0
01C0
01C0
E1C0
E1C0
E1C0
7F00
ENDCHAR
STARTCHAR 0135
ENCODING 309
SWIDTH 990 0
DWIDTH 11 0
BBX 10 10 0 0
BITMAP
0F00
0F00
1DC0
01C0
01C0
01C0
E1C0
E1C0
E1C0
7F00
ENDCHAR
STARTCHAR 0136
ENCODING 310
SWIDTH 990 0
DWIDTH 11 0
BBX 10 11 0 -1
BITMAP
E300
E300
EE00
FC00
FE00
FE00
EF00
E3C0
E3C0
1C00
7000
ENDCHAR
STARTCHAR 0137
ENCODING 311
SWIDTH 990 0
DWIDTH 11 0
BBX 10 11 0 -1
BITMAP
E300
E300
EE00
FC00
FE00
FE00
EF00
E3C0
E3C0
1C00
7000
ENDCHAR
STARTCHAR 0138
ENCODING 312
SWIDTH 990 0
DWIDTH 11 0
BBX 10 7 0 0
BITMAP
E1C0
E300
E300
FE00
E300
E300
E1C0
ENDCHAR
STARTCHAR 0139
ENCODING 313
SWIDTH 990 0
DWIDTH 11 0
BBX 9 10 1 0
BITMAP
0400
0400
F800
E000
E000
E000
E000
E000
E000
FF80
ENDCHAR
STARTCHAR 013A
ENCODING 314
SWIDTH 990 0
DWIDTH 11 0
BBX 9 10 1 0
BITMAP
0400
0400
F800
E000
E000
E000
E000
E000
E000
FF80
ENDCHAR
STARTCHAR 013B
ENCODING 315
SWIDTH 990 0
DWIDTH 11 0
BBX 9 11 1 -1
BITMAP
E000
E000
E000
E000
E000
E000
E000
FF80
FF80
1C00
3800
ENDCHAR
STARTCHAR 013C
ENCODING 316
SWIDTH 990 0
DWIDTH 11 0
BBX 9 11 1 -1
BITMAP
E000
E000
E000
E000
E000
E000
E000
FF80
FF80
1C00
3800
ENDCHAR
STARTCHAR 013D
ENCODING 317
SWIDTH 990 0
DWIDTH 11 0
BBX 9 10 1 0
BITMAP
E380
E380
E380
E200
E000
E000
E000
E000
E000
FF80
ENDCHAR
STARTCHAR 013E
ENCODING 318
SWIDTH 990 0
DWIDTH 11 0
BBX 9 10 1 0
BITMAP
E380
E380
E380
E200
E000
E000
E000
E000
E000
FF80
ENDCHAR
STARTCHAR 013F
ENCODING 319
SWIDTH 990 0
DWIDTH 11 0
BBX 9 10 1 0
BITMAP
E000
E000
E000
E600
E600
E600
E000
E000
E000
FF80
ENDCHAR
STARTCHAR 0140
ENCODING 320
SWIDTH 990 0
DWIDTH 11 0
BBX 9 10 1 0
BITMAP
E000
E000
E000
E600
E600
E600
E000
E000
E000
FF80
ENDCHAR
STARTCHAR 0141
ENCODING 321
SWIDTH 990 0
DWIDTH 11 0
BBX 10 10 0 0
BITMAP
7000
7000
7000
7C00
F000
F000
7000
7000
7000
7FC0
ENDCHAR
STARTCHAR 0142
ENCODING 322
SWIDTH 990 0
DWIDTH 11 0
BBX 10 10 0 0
BITMAP
7000
7000
7000
7C00
F000
F000
7000
7000
7000
7FC0
ENDCHAR
STARTCHAR 0143
ENCODING 323
SWIDTH 990 0
DWIDTH 11 0
BBX 10 10 0 0
BITMAP
0200
0200
0C00
F1C0
FDC0
FDC0
FFC0
EFC0
EFC0
E3C0
ENDCHAR
STARTCHAR 0144
ENCODING 324
SWIDTH 990 0
DWIDTH 11 0
BBX 10 10 0 0
BITMAP
0200
0200
0C00
F1C0
FDC0
FDC0
FFC0
EFC0
EFC0
E3C0
ENDCHAR
STARTCHAR 0145
ENCODING 325
SWIDTH 990 0
DWIDTH 11 0
BBX 10 11 0 -1
BITMAP
F1C0
F1C0
FDC0
FFC0
EFC0
EFC0
E3C0
E1C0
E1C0
0E00
1C00
ENDCHAR
STARTCHAR 0146
ENCODING 326
SWIDTH 990 0
DWIDTH 11 0
BBX 10 11 0 -1
BITMAP
F1C0
F1C0
FDC0
FFC0
EFC0
EFC0
E3C0
E1C0
E1C0
0E00
1C00
ENDCHAR
STARTCHAR 0147
ENCODING 327
SWIDTH 990 0
DWIDTH 11 0
BBX 10 10 0 0
BITMAP
7300
7300
1E00
F1C0
FDC0
FDC0
FFC0
EFC0
EFC0
E3C0
ENDCHAR
STARTCHAR 0148
ENCODING 328
SWIDTH 990 0
DWIDTH 11 0
BBX 10 10 0 0
BITMAP
7300
7300
1E00
F1C0
FDC0
FDC0
FFC0
EFC0
EFC0
E3C0
ENDCHAR
STARTCHAR 0149
ENCODING 329
SWIDTH 990 0
DWIDTH 11 0
BBX 10 10 0 0
BITMAP
E000
E000
E000
9F00
1DC0
1DC0
1DC0
1DC0
1DC0
1DC0
ENDCHAR
STARTCHAR 014A
ENCODING 330
SWIDTH 990 0
DWIDTH 11 0
BBX 10 11 0 -1
BITMAP
F1C0
F1C0
FDC0
FFC0
EFC0
EFC0
E3C0
E1C0
E1C0
01C0
1F00
ENDCHAR
STARTCHAR 014B
ENCODING 331
SWIDTH 990 0
DWIDTH 11 0
BBX 10 11 0 -1
BITMAP
F1C0
F1C0
FDC0
FFC0
EFC0
EFC0
E3C0
E1C0
E1C0
01C0
1F00
ENDCHAR
STARTCHAR 014C
ENCODING 332
SWIDTH 990 0
DWIDTH 11 0
BBX 10 10 0 0
BITMAP
7F00
7F00
0000
7F00
E1C0
E1C0
E1C0
E1C0
E1C0
7F00
ENDCHAR
STARTCHAR 014D
ENCODING 333
SWIDTH 990 0
DWIDTH 11 0
BBX 10 10 0 0
BITMAP
7F00
7F00
0000
7F00
E1C0
E1C0
E1C0
E1C0
E1C0
7F00
ENDCHAR
STARTCHAR 014E
ENCODING 334
SWIDTH 990 0
DWIDTH 11 0
BBX 10 10 0 0
BITMAP
6100
6100
1E00
7F00
E1C0
E1C0
E1C0
E1C0
E1C0
7F00
ENDCHAR
STARTCHAR 014F
ENCODING 335
SWIDTH 990 0
DWIDTH 11 0
BBX 10 10 0 0
BITMAP
6100
6100
1E00
7F00
E1C0
E1C0
E1C0
E1C0
E1C0
7F00
ENDCHAR
STARTCHAR 0150
ENCODING 336
SWIDTH 990 0
DWIDTH 11 0
BBX 10 10 0 0
BITMAP
1100
1100
6200
7F00
E1C0
E1C0
E1C0
E1C0
E1C0
7F00
ENDCHAR
STARTCHAR 0151
ENCODING 337
SWIDTH 990 0
DWIDTH 11 0
BBX 10 10 0 0
BITMAP
1100
1100
6200
7F00
E1C0
E1C0
E1C0
E1C0
E1C0
7F00
ENDCHAR
STARTCHAR 0152
ENCODING 338
SWIDTH 990 0
DWIDTH 11 0
BBX 10 10 0 0
BITMAP
7FC0
7FC0
EE00
EE00
EFC0
EFC0
EE00
EE00
EE00
7FC0
ENDCHAR
STARTCHAR 0153
ENCODING 339
SWIDTH 990 0
DWIDTH 11 0
BBX 10 10 0 0
BITMAP
7FC0
7FC0
EE00
EE00
EFC0
EFC0
EE00
EE00
EE00
7FC0
ENDCHAR
STARTCHAR 0154
ENCODING 340
SWIDTH 990 0
DWIDTH 11 0
BBX 10 10 0 0
BITMAP
0200
0200
0C00
FF00
E3C0
E3C0
FE00
EF00
EF00
E3C0
ENDCHAR
STARTCHAR 0155
ENCODING 341
SWIDTH 990 0
DWIDTH 11 0
BBX 10 10 0 0
BITMAP
0200
0200
0C00
FF00
E3C0
E3C0
FE00
EF00
EF00
E3C0
ENDCHAR
STARTCHAR 0156
ENCODING 342
SWIDTH 990 0
DWIDTH 11 0
BBX 10 11 0 -1
BITMAP
FF00
FF00
E1C0
E3C0
FE00
FE00
EF00
E3C0
E3C0
0E00
1C00
ENDCHAR
STARTCHAR 0157
ENCODING 343
SWIDTH 990 0
DWIDTH 11 0
BBX 10 11 0 -1
BITMAP
FF00
FF00
E1C0
E3C0
FE00
FE00
EF00
E3C0
E3C0
0E00
1C00
ENDCHAR
STARTCHAR 0158
ENCODING 344
SWIDTH 990 0
DWIDTH 11 0
BBX 10 10 0 0
BITMAP
1200
1200
0C00
FF00
E3C0
E3C0
FE00
EF00
EF00
E3C0
ENDCHAR
STARTCHAR 0159
ENCODING 345
SWIDTH 990 0
DWIDTH 11 0
BBX 10 10 0 0
BITMAP
1200
1200
0C00
FF00
E3C0
E3C0
FE00
EF00
EF00
E3C0
ENDCHAR
STARTCHAR 015A
ENCODING 346
SWIDTH 990 0
DWIDTH 11 0
BBX 10 10 0 0
BITMAP
0200
0200
0C00
7F00
E000
E000
7F00
01C0
01C0
FF00
ENDCHAR
STARTCHAR 015B
ENCODING 347
SWIDTH 990 0
DWIDTH 11 0
BBX 10 10 0 0
BITMAP
0200
0200
0C00
7F00
E000
E000
7F00
01C0
01C0
FF00
ENDCHAR
STARTCHAR 015C
ENCODING 348
SWIDTH 990 0
DWIDTH 11 0
BBX 10 10 0 0
BITMAP
1E00
1E00
7300
7F00
E000
E000
7F00
01C0
01C0
FF00
ENDCHAR
STARTCHAR 015D
ENCODING 349
SWIDTH 990 0
DWIDTH 11 0
BBX 10 10 0 0
BITMAP
1E00
1E00
7300
7F00
E000
E000
7F00
01C0
01C0
FF00
ENDCHAR
STARTCHAR 015E
ENCODING 350
SWIDTH 990 0
DWIDTH 11 0
BBX 10 11 0 -1
BITMAP
7F00
7F00
E000
7F00
01C0
01C0
E1C0
7F00
7F00
0200
1C00
ENDCHAR
STARTCHAR 015F
ENCODING 351
SWIDTH 990 0
DWIDTH 11 0
BBX 10 11 0 -1
BITMAP
7F00
7F00
E000
7F00
01C0
01C0
E1C0
7F00
7F00
0200
1C00
ENDCHAR
STARTCHAR 0160
ENCODING 352
SWIDTH 990 0
DWIDTH 11 0
BBX 10 10 0 0
BITMAP
7300
7300
1E00
7F00
E000
E000
7F00
01C0
01C0
FF00
ENDCHAR
STARTCHAR 0161
ENCODING 353
SWIDTH 990 0
DWIDTH 11 0
BBX 10 10 0 0
BITMAP
7300
7300
1E00
7F00
E000
E000
7F00
01C0
01C0
FF00
ENDCHAR
STARTCHAR 0162
ENCODING 354
SWIDTH 990 0
DWIDTH 11 0
BBX 9 11 1 -1
BITMAP
FF80
FF80
1C00
1C00
1C00
1C00
1C00
1C00
1C00
0400
3800
ENDCHAR
STARTCHAR 0163
ENCODING 355
SWIDTH 990 0
DWIDTH 11 0
BBX 9 11 1 -1
BITMAP
FF80
FF80
1C00
1C00
1C00
1C00
1C00
1C00
1C00
0400
3800
ENDCHAR
STARTCHAR 0164
ENCODING 356
SWIDTH 990 0
DWIDTH 11 0
BBX 9 10 1 0
BITMAP
2200
2200
1C00
FF80
1C00
1C00
1C00
1C00
1C00
1C00
ENDCHAR
STARTCHAR 0165
ENCODING 357
SWIDTH 990 0
DWIDTH 11 0
BBX 9 10 1 0
BITMAP
2200
2200
1C00
FF80
1C00
1C00
1C00
1C00
1C00
1C00
ENDCHAR
STARTCHAR 0166
ENCODING 358
SWIDTH 990 0
DWIDTH 11 0
BBX 9 10 1 0
BITMAP
FF80
FF80
1C00
1C00
1E00
1E00
3C00
1C00
1C00
1C00
ENDCHAR
STARTCHAR 0167
ENCODING 359
SWIDTH 990 0
DWIDTH 11 0
BBX 9 10 1 0
BITMAP
FF80
FF80
1C00
1C00
1E00
1E00
3C00
1C00
1C00
1C00
ENDCHAR
STARTCHAR 0168
ENCODING 360
SWIDTH 990 0
DWIDTH 11 0
BBX 10 10 0 0
BITMAP
1D00
1D00
6E00
E1C0
E1C0
E1C0
E1C0
E1C0
E1C0
7F00
ENDCHAR
STARTCHAR 0169
ENCODING 361
SWIDTH 990 0
DWIDTH 11 0
BBX 10 10 0 0
BITMAP
1D00
1D00
6E00
E1C0
E1C0
E1C0
E1C0
E1C0
E1C0
7F00
ENDCHAR
STARTCHAR 016A
ENCODING 362
SWIDTH 990 0
DWIDTH 11 0
BBX 10 10 0 0
BITMAP
7F00
7F00
0000
E1C0
E1C0
E1C0
E1C0
E1C0
E1C0
7F00
ENDCHAR
STARTCHAR 016B
ENCODING 363
SWIDTH 990 0
DWIDTH 11 0
BBX 10 10 0 0
BITMAP
7F00
7F00
0000
E1C0
E1C0
E1C0
E1C0
E1C0
E1C0
7F00
ENDCHAR
STARTCHAR 016C
ENCODING 364
SWIDTH 990 0
DWIDTH 11 0
BBX 10 10 0 0
BITMAP
6100
6100
1E00
E1C0
E1C0
E1C0
E1C0
E1C0
E1C0
7F00
ENDCHAR
STARTCHAR 016D
ENCODING 365
SWIDTH 990 0
DWIDTH 11 0
BBX 10 10 0 0
BITMAP
6100
6100
1E00
E1C0
E1C0
E1C0
E1C0
E1C0
E1C0
7F00
ENDCHAR
STARTCHAR 016E
ENCODING 366
SWIDTH 990 0
DWIDTH 11 0
BBX 10 10 0 0
BITMAP
1E00
1E00
7300
9EC0
E1C0
E1C0
E1C0
E1C0
E1C0
7F00
ENDCHAR
STARTCHAR 016F
ENCODING 367
SWIDTH 990 0
DWIDTH 11 0
BBX 10 10 0 0
BITMAP
1E00
1E00
7300
9EC0
E1C0
E1C0
E1C0
E1C0
E1C0
7F00
ENDCHAR
STARTCHAR 0170
ENCODING 368
SWIDTH 990 0
DWIDTH 11 0
BBX 10 10 0 0
BITMAP
1100
1100
6200
E1C0
E1C0
E1C0
E1C0
E1C0
E1C0
7F00
ENDCHAR
STARTCHAR 0171
ENCODING 369
SWIDTH 990 0
DWIDTH 11 0
BBX 10 10 0 0
BITMAP
1100
1100
6200
E1C0
E1C0
E1C0
E1C0
E1C0
E1C0
7F00
ENDCHAR
STARTCHAR 0172
ENCODING 370
SWIDTH 990 0
DWIDTH 11 0
BBX 10 11 0 -1
BITMAP
E1C0
E1C0
E1C0
E1C0
E1C0
E1C0
7F00
0C00
0C00
1000
0E00
ENDCHAR
STARTCHAR 0173
ENCODING 371
SWIDTH 990 0
DWIDTH 11 0
BBX 10 11 0 -1
BITMAP
E1C0
E1C0
E1C0
E1C0
E1C0
E1C0
7F00
0C00
0C00
1000
0E00
ENDCHAR
STARTCHAR 0174
ENCODING 372
SWIDTH 990 0
DWIDTH 11 0
BBX 10 10 0 0
BITMAP
1E00
1E00
7300
E1C0
EDC0
EDC0
FFC0
FFC0
FFC0
F3C0
ENDCHAR
STARTCHAR 0175
ENCODING 373
SWIDTH 990 0
DWIDTH 11 0
BBX 10 10 0 0
BITMAP
1E00
1E00
7300
E1C0
EDC0
EDC0
FFC0
FFC0
FFC0
F3C0
ENDCHAR
STARTCHAR 0176
ENCODING 374
SWIDTH 990 0
DWIDTH 11 0
BBX 9 10 1 0
BITMAP
1C00
1C00
2200
E380
E380
E380
3E00
1C00
1C00
1C00
ENDCHAR
STARTCHAR 0177
ENCODING 375
SWIDTH 990 0
DWIDTH 11 0
BBX 9 10 1 0
BITMAP
1C00
1C00
2200
E380
E380
E380
3E00
1C00
1C00
1C00
ENDCHAR
STARTCHAR 0178
ENCODING 376
SWIDTH 990 0
DWIDTH 11 0
BBX 9 10 1 0
BITMAP
E380
E380
0000
E380
E380
E380
3E00
1C00
1C00
1C00
ENDCHAR
STARTCHAR 0179
ENCODING 377
SWIDTH 990 0
DWIDTH 11 0
BBX 10 10 0 0
BITMAP
0200
0200
0C00
FFC0
0F00
0F00
1E00
7C00
7C00
FFC0
ENDCHAR
STARTCHAR 017A
ENCODING 378
SWIDTH 990 0
DWIDTH 11 0
BBX 10 10 0 0
BITMAP
0200
0200
0C00
FFC0
0F00
0F00
1E00
7C00
7C00
FFC0
ENDCHAR
STARTCHAR 017B
ENCODING 379
SWIDTH 990 0
DWIDTH 11 0
BBX 10 10 0 0
BITMAP
0E00
0E00
0000
FFC0
0F00
0F00
1E00
7C00
7C00
FFC0
ENDCHAR
STARTCHAR 017C
ENCODING 380
SWIDTH 990 0
DWIDTH 11 0
BBX 10 10 0 0
BITMAP
0E00
0E00
0000
FFC0
0F00
0F00
1E00
7C00
7C00
FFC0
ENDCHAR
STARTCHAR 017D
ENCODING 381
SWIDTH 990 0
DWIDTH 11 0
BBX 10 10 0 0
BITMAP
7300
7300
1E00
FFC0
0F00
0F00
1E00
7C00
7C00
FFC0
ENDCHAR
STARTCHAR 017E
ENCODING 382
SWIDTH 990 0
DWIDTH 11 0
BBX 10 10 0 0
BITMAP
7300
7300
1E00
FFC0
0F00
0F00
1E00
7C00
7C00
FFC0
ENDCHAR
STARTCHAR 017F
ENCODING 383
SWIDTH 990 0
DWIDTH 11 0
BBX 6 10 4 0
BITMAP
3C
3C
E0
E0
E0
E0
E0
E0
E0
E0
ENDCHAR
STARTCHAR 0180
ENCODING 384
SWIDTH 990 0
DWIDTH 11 0
BBX 10 10 0 0
BITMAP
7000
7000
FC00
7000
7F00
7F00
71C0
71C0
71C0
7F00
ENDCHAR
STARTCHAR 0181
ENCODING 385
SWIDTH 990 0
DWIDTH 11 0
BBX 10 10 0 0
BITMAP
7F00
7F00
9DC0
9DC0
1F00
1F00
1DC0
1DC0
1DC0
1F00
ENDCHAR
STARTCHAR 0182
ENCODING 386
SWIDTH 990 0
DWIDTH 11 0
BBX 10 10 0 0
BITMAP
FFC0
FFC0
E000
E000
FF00
FF00
E1C0
E1C0
E1C0
FF00
ENDCHAR
STARTCHAR 0183
ENCODING 387
SWIDTH 990 0
DWIDTH 11 0
BBX 10 10 0 0
BITMAP
FFC0
FFC0
E000
E000
FF00
FF00
E1C0
E1C0
E1C0
FF00
ENDCHAR
STARTCHAR 0184
ENCODING 388
SWIDTH 990 0
DWIDTH 11 0
BBX 10 10 0 0
BITMAP
E000
E000
E000
E000
FF00
FF00
E1C0
E1C0
E1C0
FF00
ENDCHAR
STARTCHAR 0185
ENCODING 389
SWIDTH 990 0
DWIDTH 11 0
BBX 10 10 0 0
BITMAP
E000
E000
E000
E000
FF00
FF00
E1C0
E1C0
E1C0
FF00
ENDCHAR
STARTCHAR 0186
ENCODING 390
SWIDTH 990 0
DWIDTH 11 0
BBX 10 10 0 0
BITMAP
7E00
7E00
E300
01C0
01C0
01C0
01C0
E300
E300
7E00
ENDCHAR
STARTCHAR 0187
ENCODING 391
SWIDTH 990 0
DWIDTH 11 0
BBX 10 10 0 0
BITMAP
00C0
00C0
0100
1F00
71C0
71C0
E000
71C0
71C0
1F00
ENDCHAR
STARTCHAR 0188
ENCODING 392
SWIDTH 990 0
DWIDTH 11 0
BBX 10 10 0 0
BITMAP
00C0
00C0
0100
1F00
71C0
71C0
E000
71C0
71C0
1F00
ENDCHAR
STARTCHAR 0189
ENCODING 393
SWIDTH 990 0
DWIDTH 11 0
BBX 10 10 0 0
BITMAP
7E00
7E00
7300
71C0
FDC0
FDC0
71C0
7300
7300
7E00
ENDCHAR
STARTCHAR 018A
ENCODING 394
SWIDTH 990 0
DWIDTH 11 0
BBX 10 10 0 0
BITMAP
7F00
7F00
9DC0
9DC0
1DC0
1DC0
1DC0
1DC0
1DC0
1F00
ENDCHAR
STARTCHAR 018B
ENCODING 395
SWIDTH 990 0
DWIDTH 11 0
BBX 10 10 0 0
BITMAP
FFC0
FFC0
01C0
01C0
7FC0
7FC0
E1C0
E1C0
E1C0
7FC0
ENDCHAR
STARTCHAR 018C
ENCODING 396
SWIDTH 990 0
DWIDTH 11 0
BBX 10 10 0 0
BITMAP
FFC0
FFC0
01C0
01C0
7FC0
7FC0
E1C0
E1C0
E1C0
7FC0
ENDCHAR
STARTCHAR 018D
ENCODING 397
SWIDTH 990 0
DWIDTH 11 0
BBX 10 10 0 0
BITMAP
7F00
7F00
E1C0
E1C0
E1C0
E1C0
7F00
0E00
0E00
7F00
ENDCHAR
STARTCHAR 018E
ENCODING 398
SWIDTH 990 0
DWIDTH 11 0
BBX 10 10 0 0
BITMAP
FFC0
FFC0
01C0
01C0
7FC0
7FC0
01C0
01C0
01C0
FFC0
ENDCHAR
STARTCHAR 018F
ENCODING 399
SWIDTH 990 0
DWIDTH 11 0
BBX 10 10 0 0
BITMAP
7F00
7F00
E1C0
01C0
FFC0
FFC0
E1C0
E1C0
E1C0
7F00
ENDCHAR
STARTCHAR 0190
ENCODING 400
SWIDTH 990 0
DWIDTH 11 0
BBX 10 10 0 0
BITMAP
7F00
7F00
E1C0
E000
7E00
7E00
E000
E1C0
E1C0
7F00
ENDCHAR
STARTCHAR 0191
ENCODING 401
SWIDTH 990 0
DWIDTH 11 0
BBX 10 11 0 -1
BITMAP
1FC0
1FC0
1C00
1FC0
1C00
1C00
1C00
9C00
9C00
9C00
6000
ENDCHAR
STARTCHAR 0192
ENCODING 402
SWIDTH 990 0
DWIDTH 11 0
BBX 10 11 0 -1
BITMAP
1FC0
1FC0
1C00
1FC0
1C00
1C00
1C00
9C00
9C00
9C00
6000
ENDCHAR
STARTCHAR 0193
ENCODING 403
SWIDTH 990 0
DWIDTH 11 0
BBX 10 10 0 0
BITMAP
00C0
00C0
0100
7FC0
E000
E000
E3C0
E1C0
E1C0
7FC0
ENDCHAR
STARTCHAR 0194
ENCODING 404
SWIDTH 990 0
DWIDTH 11 0
BBX 10 11 0 -1
BITMAP
E1C0
E1C0
E1C0
E1C0
7300
7300
1E00
0C00
0C00
1200
0C00
ENDCHAR
STARTCHAR 0196
ENCODING 406
SWIDTH 990 0
DWIDTH 11 0
BBX 4 10 3 0
BITMAP
E0
E0
E0
E0
E0
E0
E0
E0
E0
70
ENDCHAR
STARTCHAR 0197
ENCODING 407
SWIDTH 990 0
DWIDTH 11 0
BBX 9 10 1 0
BITMAP
FF80
FF80
1C00
1C00
3E00
3E00
1C00
1C00
1C00
FF80
ENDCHAR
STARTCHAR 019A
ENCODING 410
SWIDTH 990 0
DWIDTH 11 0
BBX 10 10 0 0
BITMAP
7000
7000
7000
7000
FC00
FC00
7000
7000
7000
7FC0
ENDCHAR
STARTCHAR 019C
ENCODING 412
SWIDTH 990 0
DWIDTH 11 0
BBX 10 10 0 0
BITMAP
E1C0
E1C0
E1C0
EDC0
FFC0
FFC0
FFC0
F3C0
F3C0
E1C0
ENDCHAR
STARTCHAR 019D
ENCODING 413
SWIDTH 990 0
DWIDTH 11 0
BBX 10 11 0 -1
BITMAP
10C0
10C0
1CC0
1EC0
1FC0
1FC0
13C0
11C0
11C0
90C0
6000
ENDCHAR
STARTCHAR 019F
ENCODING 415
SWIDTH 990 0
DWIDTH 11 0
BBX 10 10 0 0
BITMAP
7F00
7F00
E1C0
E1C0
FFC0
FFC0
E1C0
E1C0
E1C0
7F00
ENDCHAR
STARTCHAR 01A0
ENCODING 416
SWIDTH 990 0
DWIDTH 11 0
BBX 10 10 0 0
BITMAP
00C0
00C0
0100
7F00
E1C0
E1C0
E1C0
E1C0
E1C0
7F00
ENDCHAR
STARTCHAR 01A1
ENCODING 417
SWIDTH 990 0
DWIDTH 11 0
BBX 10 10 0 0
BITMAP
00C0
00C0
0100
7F00
E1C0
E1C0
E1C0
E1C0
E1C0
7F00
ENDCHAR
STARTCHAR 01A2
ENCODING 418
SWIDTH 990 0
DWIDTH 11 0
BBX 10 10 0 0
BITMAP
7D00
7D00
EFC0
EEC0
EEC0
EEC0
EEC0
EEC0
EEC0
7CC0
ENDCHAR
STARTCHAR 01A3
ENCODING 419
SWIDTH 990 0
DWIDTH 11 0
BBX 10 10 0 0
BITMAP
7D00
7D00
EFC0
EEC0
EEC0
EEC0
EEC0
EEC0
EEC0
7CC0
ENDCHAR
STARTCHAR 01A4
ENCODING 420
SWIDTH 990 0
DWIDTH 11 0
BBX 10 10 0 0
BITMAP
7F00
7F00
9DC0
9DC0
1DC0
1DC0
1F00
1C00
1C00
1C00
ENDCHAR
STARTCHAR 01A5
ENCODING 421
SWIDTH 990 0
DWIDTH 11 0
BBX 10 10 0 0
BITMAP
7F00
7F00
FDC0
9DC0
1DC0
1DC0
1F00
1C00
1C00
1C00
ENDCHAR
STARTCHAR 01A7
ENCODING 423
SWIDTH 990 0
DWIDTH 11 0
BBX 10 10 0 0
BITMAP
1F00
1F00
71C0
01C0
7F00
7F00
E000
E1C0
E1C0
7F00
ENDCHAR
STARTCHAR 01A8
ENCODING 424
SWIDTH 990 0
DWIDTH 11 0
BBX 10 10 0 0
BITMAP
1F00
1F00
71C0
01C0
7F00
7F00
E000
E1C0
E1C0
7F00
ENDCHAR
STARTCHAR 01A9
ENCODING 425
SWIDTH 990 0
DWIDTH 11 0
BBX 10 10 0 0
BITMAP
FFC0
FFC0
7000
1C00
0E00
0E00
1C00
7000
7000
FFC0
ENDCHAR
STARTCHAR 01AA
ENCODING 426
SWIDTH 990 0
DWIDTH 11 0
BBX 10 11 0 -1
BITMAP
7C00
7C00
EE00
EE00
7E00
7E00
0E00
0E00
0E00
0EC0
0300
ENDCHAR
STARTCHAR 01AC
ENCODING 428
SWIDTH 990 0
DWIDTH 11 0
BBX 10 10 0 0
BITMAP
7FC0
7FC0
8E00
8E00
0E00
0E00
0E00
0E00
0E00
0E00
ENDCHAR
STARTCHAR 01AD
ENCODING 429
SWIDTH 990 0
DWIDTH 11 0
BBX 10 10 0 0
BITMAP
7FC0
7FC0
8E00
8E00
0E00
0E00
0E00
0E00
0E00
0E00
ENDCHAR
STARTCHAR 01AE
ENCODING 430
SWIDTH 990 0
DWIDTH 11 0
BBX 9 10 1 0
BITMAP
FF80
FF80
1C00
1C00
1C00
1C00
1C00
1C00
1C00
0600
ENDCHAR
STARTCHAR 01B5
ENCODING 437
SWIDTH 990 0
DWIDTH 11 0
BBX 10 10 0 0
BITMAP
FFC0
FFC0
03C0
0F00
FFC0
FFC0
7C00
F000
F000
FFC0
ENDCHAR
STARTCHAR 01B6
ENCODING 438
SWIDTH 990 0
DWIDTH 11 0
BBX 10 10 0 0
BITMAP
FFC0
FFC0
03C0
0F00
FFC0
FFC0
7C00
F000
F000
FFC0
ENDCHAR
STARTCHAR 01B7
ENCODING 439
SWIDTH 990 0
DWIDTH 11 0
BBX 10 10 0 0
BITMAP
7FC0
7FC0
0300
0E00
1F00
1F00
01C0
E1C0
E1C0
7F00
ENDCHAR
STARTCHAR 01B8
ENCODING 440
SWIDTH 990 0
DWIDTH 11 0
BBX 10 10 0 0
BITMAP
FF00
FF00
7000
1C00
7E00
7E00
E000
E1C0
E1C0
7F00
ENDCHAR
STARTCHAR 01B9
ENCODING 441
SWIDTH 990 0
DWIDTH 11 0
BBX 10 10 0 0
BITMAP
FF00
FF00
7000
1C00
7E00
7E00
E000
E1C0
E1C0
7F00
ENDCHAR
STARTCHAR 01BB
ENCODING 443
SWIDTH 990 0
DWIDTH 11 0
BBX 10 10 0 0
BITMAP
7F00
7F00
E1C0
03C0
FFC0
FFC0
7E00
F000
F000
FFC0
ENDCHAR
STARTCHAR 01BC
ENCODING 444
SWIDTH 990 0
DWIDTH 11 0
BBX 10 10 0 0
BITMAP
FF00
FF00
E000
FF00
01C0
01C0
01C0
E1C0
E1C0
7F00
ENDCHAR
STARTCHAR 01BD
ENCODING 445
SWIDTH 990 0
DWIDTH 11 0
BBX 10 10 0 0
BITMAP
FF00
FF00
E000
FF00
01C0
01C0
01C0
E1C0
E1C0
7F00
ENDCHAR
STARTCHAR 01C0
ENCODING 448
SWIDTH 990 0
DWIDTH 11 0
BBX 1 10 0 0
BITMAP
80
80
80
80
80
80
80
80
80
80
ENDCHAR
STARTCHAR 01C1
ENCODING 449
SWIDTH 990 0
DWIDTH 11 0
BBX 4 10 0 0
BITMAP
90
90
90
90
90
90
90
90
90
90
ENDCHAR
STARTCHAR 01C2
ENCODING 450
SWIDTH 990 0
DWIDTH 11 0
BBX 7 10 0 0
BITMAP
10
10
10
FE
10
10
FE
10
10
10
ENDCHAR
STARTCHAR 01C3
ENCODING 451
SWIDTH 990 0
DWIDTH 11 0
BBX 1 10 0 0
BITMAP
80
80
80
80
80
80
80
00
00
80
ENDCHAR
STARTCHAR 01C4
ENCODING 452
SWIDTH 990 0
DWIDTH 11 0
BBX 10 10 0 0
BITMAP
E2C0
E2C0
F100
93C0
91C0
91C0
93C0
F300
F300
E3C0
ENDCHAR
STARTCHAR 01C5
ENCODING 453
SWIDTH 990 0
DWIDTH 11 0
BBX 10 10 0 0
BITMAP
E2C0
E2C0
F100
93C0
91C0
91C0
93C0
F300
F300
E3C0
ENDCHAR
STARTCHAR 01C6
ENCODING 454
SWIDTH 990 0
DWIDTH 11 0
BBX 10 10 0 0
BITMAP
E2C0
E2C0
F100
93C0
91C0
91C0
93C0
F300
F300
E3C0
ENDCHAR
STARTCHAR 01C7
ENCODING 455
SWIDTH 990 0
DWIDTH 11 0
BBX 10 10 0 0
BITMAP
E3C0
E3C0
E1C0
E1C0
E1C0
E1C0
E1C0
E1C0
E1C0
FF00
ENDCHAR
STARTCHAR 01C8
ENCODING 456
SWIDTH 990 0
DWIDTH 11 0
BBX 10 10 0 0
BITMAP
E3C0
E3C0
E1C0
E1C0
E1C0
E1C0
E1C0
E1C0
E1C0
FF00
ENDCHAR
STARTCHAR 01C9
ENCODING 457
SWIDTH 990 0
DWIDTH 11 0
BBX 10 10 0 0
BITMAP
E3C0
E3C0
E1C0
E1C0
E1C0
E1C0
E1C0
E1C0
E1C0
FF00
ENDCHAR
STARTCHAR 01CA
ENCODING 458
SWIDTH 990 0
DWIDTH 11 0
BBX 10 10 0 0
BITMAP
8DC0
8DC0
8DC0
EDC0
FDC0
FDC0
9DC0
8DC0
8DC0
8F00
ENDCHAR
STARTCHAR 01CB
ENCODING 459
SWIDTH 990 0
DWIDTH 11 0
BBX 10 10 0 0
BITMAP
8DC0
8DC0
8DC0
EDC0
FDC0
FDC0
9DC0
8DC0
8DC0
8F00
ENDCHAR
STARTCHAR 01CC
ENCODING 460
SWIDTH 990 0
DWIDTH 11 0
BBX 10 10 0 0
BITMAP
8DC0
8DC0
8DC0
EDC0
FDC0
FDC0
9DC0
8DC0
8DC0
8F00
ENDCHAR
STARTCHAR 01CD
ENCODING 461
SWIDTH 990 0
DWIDTH 11 0
BBX 10 10 0 0
BITMAP
1200
1200
0C00
1E00
7300
7300
E1C0
FFC0
FFC0
E1C0
ENDCHAR
STARTCHAR 01CE
ENCODING 462
SWIDTH 990 0
DWIDTH 11 0
BBX 10 10 0 0
BITMAP
1200
1200
0C00
1E00
7300
7300
E1C0
FFC0
FFC0
E1C0
ENDCHAR
STARTCHAR 01CF
ENCODING 463
SWIDTH 990 0
DWIDTH 11 0
BBX 9 10 1 0
BITMAP
2200
2200
1C00
FF80
1C00
1C00
1C00
1C00
1C00
FF80
ENDCHAR
STARTCHAR 01D0
ENCODING 464
SWIDTH 990 0
DWIDTH 11 0
BBX 9 10 1 0
BITMAP
2200
2200
1C00
FF80
1C00
1C00
1C00
1C00
1C00
FF80
ENDCHAR
STARTCHAR 01D1
ENCODING 465
SWIDTH 990 0
DWIDTH 11 0
BBX 10 10 0 0
BITMAP
1200
1200
0C00
7F00
E1C0
E1C0
E1C0
E1C0
E1C0
7F00
ENDCHAR
STARTCHAR 01D2
ENCODING 466
SWIDTH 990 0
DWIDTH 11 0
BBX 10 10 0 0
BITMAP
1200
1200
0C00
7F00
E1C0
E1C0
E1C0
E1C0
E1C0
7F00
ENDCHAR
STARTCHAR 01D3
ENCODING 467
SWIDTH 990 0
DWIDTH 11 0
BBX 10 10 0 0
BITMAP
1200
1200
0C00
E1C0
E1C0
E1C0
E1C0
E1C0
E1C0
7F00
ENDCHAR
STARTCHAR 01D4
ENCODING 468
SWIDTH 990 0
DWIDTH 11 0
BBX 10 10 0 0
BITMAP
1200
1200
0C00
E1C0
E1C0
E1C0
E1C0
E1C0
E1C0
7F00
ENDCHAR
STARTCHAR 01DD
ENCODING 477
SWIDTH 990 0
DWIDTH 11 0
BBX 7 7 1 0
BITMAP
FC
06
06
3E
C6
C6
3C
ENDCHAR
STARTCHAR 01E4
ENCODING 484
SWIDTH 990 0
DWIDTH 11 0
BBX 10 10 0 0
BITMAP
1FC0
1FC0
7000
E000
E1C0
E1C0
E3C0
71C0
71C0
1FC0
ENDCHAR
STARTCHAR 01E5
ENCODING 485
SWIDTH 990 0
DWIDTH 11 0
BBX 10 10 0 0
BITMAP
1FC0
1FC0
7000
E000
E1C0
E1C0
E3C0
71C0
71C0
1FC0
ENDCHAR
STARTCHAR 01E6
ENCODING 486
SWIDTH 990 0
DWIDTH 11 0
BBX 10 10 0 0
BITMAP
1200
1200
0C00
7FC0
E000
E000
E3C0
E1C0
E1C0
7FC0
ENDCHAR
STARTCHAR 01E7
ENCODING 487
SWIDTH 990 0
DWIDTH 11 0
BBX 10 10 0 0
BITMAP
1200
1200
0C00
7FC0
E000
E000
E3C0
E1C0
E1C0
7FC0
ENDCHAR
STARTCHAR 01E8
ENCODING 488
SWIDTH 990 0
DWIDTH 11 0
BBX 10 10 0 0
BITMAP
1200
1200
0C00
E1C0
E300
E300
FE00
E300
E300
E1C0
ENDCHAR
STARTCHAR 01E9
ENCODING 489
SWIDTH 990 0
DWIDTH 11 0
BBX 10 10 0 0
BITMAP
1200
1200
0C00
E1C0
E300
E300
FE00
E300
E300
E1C0
ENDCHAR
STARTCHAR 01F1
ENCODING 497
SWIDTH 990 0
DWIDTH 11 0
BBX 10 10 0 0
BITMAP
E3C0
E3C0
F3C0
90C0
93C0
93C0
9200
F3C0
F3C0
E3C0
ENDCHAR
STARTCHAR 01F2
ENCODING 498
SWIDTH 990 0
DWIDTH 11 0
BBX 10 10 0 0
BITMAP
E3C0
E3C0
F3C0
90C0
93C0
93C0
9200
F3C0
F3C0
E3C0
ENDCHAR
STARTCHAR 01F3
ENCODING 499
SWIDTH 990 0
DWIDTH 11 0
BBX 10 10 0 0
BITMAP
E3C0
E3C0
F3C0
90C0
93C0
93C0
9200
F3C0
F3C0
E3C0
ENDCHAR
STARTCHAR 01F4
ENCODING 500
SWIDTH 990 0
DWIDTH 11 0
BBX 10 10 0 0
BITMAP
0200
0200
0C00
7FC0
E000
E000
E3C0
E1C0
E1C0
7FC0
ENDCHAR
STARTCHAR 01F5
ENCODING 501
SWIDTH 990 0
DWIDTH 11 0
BBX 10 10 0 0
BITMAP
0200
0200
0C00
7FC0
E000
E000
E3C0
E1C0
E1C0
7FC0
ENDCHAR
STARTCHAR 01F8
ENCODING 504
SWIDTH 990 0
DWIDTH 11 0
BBX 10 10 0 0
BITMAP
1000
1000
0C00
F1C0
FDC0
FDC0
FFC0
EFC0
EFC0
E3C0
ENDCHAR
STARTCHAR 01F9
ENCODING 505
SWIDTH 990 0
DWIDTH 11 0
BBX 10 10 0 0
BITMAP
1000
1000
0C00
F1C0
FDC0
FDC0
FFC0
EFC0
EFC0
E3C0
ENDCHAR
STARTCHAR 0224
ENCODING 548
SWIDTH 990 0
DWIDTH 11 0
BBX 10 11 0 -1
BITMAP
FFC0
FFC0
03C0
0F00
1E00
1E00
7C00
F000
F000
FF00
00C0
ENDCHAR
STARTCHAR 0225
ENCODING 549
SWIDTH 990 0
DWIDTH 11 0
BBX 10 11 0 -1
BITMAP
FFC0
FFC0
03C0
0F00
1E00
1E00
7C00
F000
F000
FF00
00C0
ENDCHAR
STARTCHAR 0226
ENCODING 550
SWIDTH 990 0
DWIDTH 11 0
BBX 10 10 0 0
BITMAP
0E00
0E00
0000
1E00
7300
7300
E1C0
FFC0
FFC0
E1C0
ENDCHAR
STARTCHAR 0227
ENCODING 551
SWIDTH 990 0
DWIDTH 11 0
BBX 10 10 0 0
BITMAP
0E00
0E00
0000
1E00
7300
7300
E1C0
FFC0
FFC0
E1C0
ENDCHAR
STARTCHAR 022E
ENCODING 558
SWIDTH 990 0
DWIDTH 11 0
BBX 10 10 0 0
BITMAP
0E00
0E00
0000
7F00
E1C0
E1C0
E1C0
E1C0
E1C0
7F00
ENDCHAR
STARTCHAR 022F
ENCODING 559
SWIDTH 990 0
DWIDTH 11 0
BBX 10 10 0 0
BITMAP
0E00
0E00
0000
7F00
E1C0
E1C0
E1C0
E1C0
E1C0
7F00
ENDCHAR
STARTCHAR 0244
ENCODING 580
SWIDTH 990 0
DWIDTH 11 0
BBX 10 10 0 0
BITMAP
E1C0
E1C0
E1C0
E1C0
FFC0
FFC0
E1C0
E1C0
E1C0
7F00
ENDCHAR
STARTCHAR 0245
ENCODING 581
SWIDTH 990 0
DWIDTH 11 0
BBX 10 10 0 0
BITMAP
0C00
0C00
1E00
7F00
F3C0
F3C0
E1C0
E1C0
E1C0
E1C0
ENDCHAR
STARTCHAR 0246
ENCODING 582
SWIDTH 990 0
DWIDTH 11 0
BBX 10 10 0 0
BITMAP
FFC0
FFC0
E100
E200
FF00
FF00
F000
E000
E000
FFC0
ENDCHAR
STARTCHAR 0247
ENCODING 583
SWIDTH 990 0
DWIDTH 11 0
BBX 10 10 0 0
BITMAP
FFC0
FFC0
E100
E200
FF00
FF00
F000
E000
E000
FFC0
ENDCHAR
STARTCHAR 024C
ENCODING 588
SWIDTH 990 0
DWIDTH 11 0
BBX 10 10 0 0
BITMAP
FF00
FF00
E1C0
E1C0
FFC0
FFC0
FE00
EF00
EF00
E3C0
ENDCHAR
STARTCHAR 024D
ENCODING 589
SWIDTH 990 0
DWIDTH 11 0
BBX 10 10 0 0
BITMAP
FF00
FF00
E1C0
E1C0
FFC0
FFC0
FE00
EF00
EF00
E3C0
ENDCHAR
STARTCHAR 02C6
ENCODING 710
SWIDTH 990 0
DWIDTH 11 0
BBX 7 4 1 6
BITMAP
18
18
24
C2
ENDCHAR
STARTCHAR 02C7
ENCODING 711
SWIDTH 990 0
DWIDTH 11 0
BBX 7 4 1 6
BITMAP
C2
C2
24
18
ENDCHAR
STARTCHAR 02C8
ENCODING 712
SWIDTH 990 0
DWIDTH 11 0
BBX 3 4 3 6
BITMAP
E0
E0
E0
E0
ENDCHAR
STARTCHAR 02C9
ENCODING 713
SWIDTH 990 0
DWIDTH 11 0
BBX 7 2 1 8
BITMAP
FE
FE
ENDCHAR
STARTCHAR 02CA
ENCODING 714
SWIDTH 990 0
DWIDTH 11 0
BBX 3 3 4 7
BITMAP
20
20
C0
ENDCHAR
STARTCHAR 02CB
ENCODING 715
SWIDTH 990 0
DWIDTH 11 0
BBX 3 3 3 7
BITMAP
80
80
60
ENDCHAR
STARTCHAR 02CD
ENCODING 717
SWIDTH 990 0
DWIDTH 11 0
BBX 7 1 1 0
BITMAP
FE
ENDCHAR
STARTCHAR 02D9
ENCODING 729
SWIDTH 990 0
DWIDTH 11 0
BBX 3 2 4 8
BITMAP
E0
E0
ENDCHAR
STARTCHAR 02DA
ENCODING 730
SWIDTH 990 0
DWIDTH 11 0
BBX 7 4 1 6
BITMAP
3C
3C
E6
3C
ENDCHAR
STARTCHAR 02DB
ENCODING 731
SWIDTH 990 0
DWIDTH 11 0
BBX 4 4 3 -1
BITMAP
60
60
80
70
ENDCHAR
STARTCHAR 02DC
ENCODING 732
SWIDTH 990 0
DWIDTH 11 0
BBX 7 3 1 7
BITMAP
3A
3A
DC
ENDCHAR
STARTCHAR 02DD
ENCODING 733
SWIDTH 990 0
DWIDTH 11 0
BBX 7 3 1 7
BITMAP
22
22
C4
ENDCHAR
STARTCHAR 0370
ENCODING 880
SWIDTH 990 0
DWIDTH 11 0
BBX 10 10 0 0
BITMAP
FC00
FC00
7000
7000
7FC0
7FC0
7000
7000
7000
FC00
ENDCHAR
STARTCHAR 0371
ENCODING 881
SWIDTH 990 0
DWIDTH 11 0
BBX 10 10 0 0
BITMAP
FC00
FC00
7000
7000
7FC0
7FC0
7000
7000
7000
FC00
ENDCHAR
STARTCHAR 0374
ENCODING 884
SWIDTH 990 0
DWIDTH 11 0
BBX 0 0 0 0
BITMAP
ENDCHAR
STARTCHAR 0376
ENCODING 886
SWIDTH 990 0
DWIDTH 11 0
BBX 10 10 0 0
BITMAP
E1C0
E1C0
E3C0
EFC0
FFC0
FFC0
FDC0
F1C0
F1C0
E1C0
ENDCHAR
STARTCHAR 0377
ENCODING 887
SWIDTH 990 0
DWIDTH 11 0
BBX 10 10 0 0
BITMAP
E1C0
E1C0
E3C0
EFC0
FFC0
FFC0
FDC0
F1C0
F1C0
E1C0
ENDCHAR
STARTCHAR 037A
ENCODING 890
SWIDTH 990 0
DWIDTH 11 0
BBX 4 4 0 -1
BITMAP
80
80
90
60
ENDCHAR
STARTCHAR 037B
ENCODING 891
SWIDTH 990 0
DWIDTH 11 0
BBX 10 10 0 0
BITMAP
7E00
7E00
E300
01C0
01C0
01C0
01C0
E300
E300
7E00
ENDCHAR
STARTCHAR 037C
ENCODING 892
SWIDTH 990 0
DWIDTH 11 0
BBX 10 10 0 0
BITMAP
1F00
1F00
71C0
E000
EC00
EC00
E000
71C0
71C0
1F00
ENDCHAR
STARTCHAR 037D
ENCODING 893
SWIDTH 990 0
DWIDTH 11 0
BBX 10 10 0 0
BITMAP
7E00
7E00
E300
01C0
0DC0
0DC0
01C0
E300
E300
7E00
ENDCHAR
STARTCHAR 037E
ENCODING 894
SWIDTH 990 0
DWIDTH 11 0
BBX 5 8 1 0
BITMAP
38
38
00
00
38
38
38
E0
ENDCHAR
STARTCHAR 037F
ENCODING 895
SWIDTH 990 0
DWIDTH 11 0
BBX 10 10 0 0
BITMAP
0FC0
0FC0
01C0
01C0
01C0
01C0
E1C0
E1C0
E1C0
7F00
ENDCHAR
STARTCHAR 0384
ENCODING 900
SWIDTH 990 0
DWIDTH 11 0
BBX 2 3 4 7
BITMAP
C0
C0
C0
ENDCHAR
STARTCHAR 0385
ENCODING 901
SWIDTH 990 0
DWIDTH 11 0
BBX 7 3 1 7
BITMAP
18
18
DA
ENDCHAR
STARTCHAR 0386
ENCODING 902
SWIDTH 990 0
DWIDTH 11 0
BBX 10 10 0 0
BITMAP
8E00
8E00
9F00
71C0
71C0
71C0
7FC0
71C0
71C0
71C0
ENDCHAR
STARTCHAR 0387
ENCODING 903
SWIDTH 990 0
DWIDTH 11 0
BBX 3 3 4 3
BITMAP
E0
E0
E0
ENDCHAR
STARTCHAR 0388
ENCODING 904
SWIDTH 990 0
DWIDTH 11 0
BBX 10 10 0 0
BITMAP
9FC0
9FC0
9C00
1C00
1FC0
1FC0
1C00
1C00
1C00
1FC0
ENDCHAR
STARTCHAR 0389
ENCODING 905
SWIDTH 990 0
DWIDTH 11 0
BBX 10 10 0 0
BITMAP
9DC0
9DC0
9DC0
1DC0
1FC0
1FC0
1DC0
1DC0
1DC0
1DC0
ENDCHAR
STARTCHAR 038A
ENCODING 906
SWIDTH 990 0
DWIDTH 11 0
BBX 8 10 0 0
BITMAP
9F
9F
8E
0E
0E
0E
0E
0E
0E
1F
ENDCHAR
STARTCHAR 038C
ENCODING 908
SWIDTH 990 0
DWIDTH 11 0
BBX 10 10 0 0
BITMAP
8F00
8F00
9DC0
1DC0
1DC0
1DC0
1DC0
1DC0
1DC0
0F00
ENDCHAR
STARTCHAR 038E
ENCODING 910
SWIDTH 990 0
DWIDTH 11 0
BBX 10 10 0 0
BITMAP
9DC0
9DC0
9DC0
1DC0
0F00
0F00
0200
0200
0200
0200
ENDCHAR
STARTCHAR 038F
ENCODING 911
SWIDTH 990 0
DWIDTH 11 0
BBX 10 10 0 0
BITMAP
8F00
8F00
9DC0
1DC0
1DC0
1DC0
1DC0
0D00
0D00
1DC0
ENDCHAR
STARTCHAR 0390
ENCODING 912
SWIDTH 990 0
DWIDTH 11 0
BBX 9 10 1 0
BITMAP
DD80
DD80
0000
FF80
1C00
1C00
1C00
1C00
1C00
FF80
ENDCHAR
STARTCHAR 0391
ENCODING 913
SWIDTH 990 0
DWIDTH 11 0
BBX 10 10 0 0
BITMAP
1E00
1E00
7300
E1C0
E1C0
E1C0
FFC0
E1C0
E1C0
E1C0
ENDCHAR
STARTCHAR 0392
ENCODING 914
SWIDTH 990 0
DWIDTH 11 0
BBX 10 10 0 0
BITMAP
FF00
FF00
E1C0
E1C0
FF00
FF00
E1C0
E1C0
E1C0
FF00
ENDCHAR
STARTCHAR 0393
ENCODING 915
SWIDTH 990 0
DWIDTH 11 0
BBX 9 10 1 0
BITMAP
FF80
FF80
E000
E000
E000
E000
E000
E000
E000
E000
ENDCHAR
STARTCHAR 0394
ENCODING 916
SWIDTH 990 0
DWIDTH 11 0
BBX 10 10 0 0
BITMAP
1E00
1E00
7300
E1C0
E1C0
E1C0
E1C0
E1C0
E1C0
FFC0
ENDCHAR
STARTCHAR 0395
ENCODING 917
SWIDTH 990 0
DWIDTH 11 0
BBX 10 10 0 0
BITMAP
FFC0
FFC0
E000
E000
FF00
FF00
E000
E000
E000
FFC0
ENDCHAR
STARTCHAR 0396
ENCODING 918
SWIDTH 990 0
DWIDTH 11 0
BBX 10 10 0 0
BITMAP
FFC0
FFC0
03C0
0F00
1E00
1E00
7C00
F000
F000
FFC0
ENDCHAR
STARTCHAR 0397
ENCODING 919
SWIDTH 990 0
DWIDTH 11 0
BBX 10 10 0 0
BITMAP
E1C0
E1C0
E1C0
E1C0
FFC0
FFC0
E1C0
E1C0
E1C0
E1C0
ENDCHAR
STARTCHAR 0398
ENCODING 920
SWIDTH 990 0
DWIDTH 11 0
BBX 10 10 0 0
BITMAP
7F00
7F00
E1C0
E1C0
FFC0
FFC0
E1C0
E1C0
E1C0
7F00
ENDCHAR
STARTCHAR 0399
ENCODING 921
SWIDTH 990 0
DWIDTH 11 0
BBX 9 10 1 0
BITMAP
FF80
FF80
1C00
1C00
1C00
1C00
1C00
1C00
1C00
FF80
ENDCHAR
STARTCHAR 039A
ENCODING 922
SWIDTH 990 0
DWIDTH 11 0
BBX 10 10 0 0
BITMAP
E1C0
E1C0
E300
EE00
FC00
FC00
FE00
EF00
EF00
E3C0
ENDCHAR
STARTCHAR 039B
ENCODING 923
SWIDTH 990 0
DWIDTH 11 0
BBX 10 10 0 0
BITMAP
1E00
1E00
7300
E1C0
E1C0
E1C0
E1C0
E1C0
E1C0
E1C0
ENDCHAR
STARTCHAR 039C
ENCODING 924
SWIDTH 990 0
DWIDTH 11 0
BBX 10 10 0 0
BITMAP
E1C0
E1C0
F3C0
FFC0
FFC0
FFC0
EDC0
E1C0
E1C0
E1C0
ENDCHAR
STARTCHAR 039D
ENCODING 925
SWIDTH 990 0
DWIDTH 11 0
BBX 10 10 0 0
BITMAP
E1C0
E1C0
F1C0
FDC0
FFC0
FFC0
EFC0
E3C0
E3C0
E1C0
ENDCHAR
STARTCHAR 039E
ENCODING 926
SWIDTH 990 0
DWIDTH 11 0
BBX 10 10 0 0
BITMAP
FFC0
FFC0
0000
0000
7F00
7F00
0000
0000
0000
FFC0
ENDCHAR
STARTCHAR 039F
ENCODING 927
SWIDTH 990 0
DWIDTH 11 0
BBX 10 10 0 0
BITMAP
7F00
7F00
E1C0
E1C0
E1C0
E1C0
E1C0
E1C0
E1C0
7F00
ENDCHAR
STARTCHAR 03A0
ENCODING 928
SWIDTH 990 0
DWIDTH 11 0
BBX 10 10 0 0
BITMAP
FFC0
FFC0
7300
7300
7300
7300
7300
7300
7300
7300
ENDCHAR
STARTCHAR 03A1
ENCODING 929
SWIDTH 990 0
DWIDTH 11 0
BBX 10 10 0 0
BITMAP
FF00
FF00
E1C0
E1C0
E1C0
E1C0
FF00
E000
E000
E000
ENDCHAR
STARTCHAR 03A3
ENCODING 931
SWIDTH 990 0
DWIDTH 11 0
BBX 10 10 0 0
BITMAP
FFC0
FFC0
71C0
1C00
0F00
0F00
1C00
71C0
71C0
FFC0
ENDCHAR
STARTCHAR 03A4
ENCODING 932
SWIDTH 990 0
DWIDTH 11 0
BBX 9 10 1 0
BITMAP
FF80
FF80
1C00
1C00
1C00
1C00
1C00
1C00
1C00
1C00
ENDCHAR
STARTCHAR 03A5
ENCODING 933
SWIDTH 990 0
DWIDTH 11 0
BBX 9 10 1 0
BITMAP
E380
E380
E380
E380
3E00
3E00
1C00
1C00
1C00
1C00
ENDCHAR
STARTCHAR 03A6
ENCODING 934
SWIDTH 990 0
DWIDTH 11 0
BBX 10 10 0 0
BITMAP
0C00
0C00
7F00
EDC0
EDC0
EDC0
EDC0
7F00
7F00
0C00
ENDCHAR
STARTCHAR 03A7
ENCODING 935
SWIDTH 990 0
DWIDTH 11 0
BBX 10 10 0 0
BITMAP
E1C0
E1C0
F3C0
7F00
1E00
1E00
7F00
F3C0
F3C0
E1C0
ENDCHAR
STARTCHAR 03A8
ENCODING 936
SWIDTH 990 0
DWIDTH 11 0
BBX 10 10 0 0
BITMAP
EDC0
EDC0
EDC0
EDC0
7F00
7F00
0C00
0C00
0C00
0C00
ENDCHAR
STARTCHAR 03A9
ENCODING 937
SWIDTH 990 0
DWIDTH 11 0
BBX 10 10 0 0
BITMAP
1E00
1E00
7300
E1C0
E1C0
E1C0
E1C0
7300
7300
F3C0
ENDCHAR
STARTCHAR 03AA
ENCODING 938
SWIDTH 990 0
DWIDTH 11 0
BBX 9 10 1 0
BITMAP
E380
E380
0000
FF80
1C00
1C00
1C00
1C00
1C00
FF80
ENDCHAR
STARTCHAR 03AB
ENCODING 939
SWIDTH 990 0
DWIDTH 11 0
BBX 9 10 1 0
BITMAP
E380
E380
0000
E380
E380
E380
3E00
1C00
1C00
1C00
ENDCHAR
STARTCHAR 03AC
ENCODING 940
SWIDTH 990 0
DWIDTH 11 0
BBX 10 10 0 0
BITMAP
8E00
8E00
9F00
71C0
71C0
71C0
7FC0
71C0
71C0
71C0
ENDCHAR
STARTCHAR 03AD
ENCODING 941
SWIDTH 990 0
DWIDTH 11 0
BBX 10 10 0 0
BITMAP
9FC0
9FC0
9C00
1C00
1FC0
1FC0
1C00
1C00
1C00
1FC0
ENDCHAR
STARTCHAR 03AE
ENCODING 942
SWIDTH 990 0
DWIDTH 11 0
BBX 10 10 0 0
BITMAP
9DC0
9DC0
9DC0
1DC0
1FC0
1FC0
1DC0
1DC0
1DC0
1DC0
ENDCHAR
STARTCHAR 03AF
ENCODING 943
SWIDTH 990 0
DWIDTH 11 0
BBX 8 10 0 0
BITMAP
9F
9F
8E
0E
0E
0E
0E
0E
0E
1F
ENDCHAR
STARTCHAR 03B0
ENCODING 944
SWIDTH 990 0
DWIDTH 11 0
BBX 9 10 1 0
BITMAP
0400
0400
2580
E380
E380
E380
3E00
1C00
1C00
1C00
ENDCHAR
STARTCHAR 03B1
ENCODING 945
SWIDTH 990 0
DWIDTH 11 0
BBX 10 10 0 0
BITMAP
1E00
1E00
7300
E1C0
E1C0
E1C0
FFC0
E1C0
E1C0
E1C0
ENDCHAR
STARTCHAR 03B2
ENCODING 946
SWIDTH 990 0
DWIDTH 11 0
BBX 10 10 0 0
BITMAP
FF00
FF00
E1C0
E1C0
FF00
FF00
E1C0
E1C0
E1C0
FF00
ENDCHAR
STARTCHAR 03B3
ENCODING 947
SWIDTH 990 0
DWIDTH 11 0
BBX 9 10 1 0
BITMAP
FF80
FF80
E000
E000
E000
E000
E000
E000
E000
E000
ENDCHAR
STARTCHAR 03B4
ENCODING 948
SWIDTH 990 0
DWIDTH 11 0
BBX 10 10 0 0
BITMAP
1E00
1E00
7300
E1C0
E1C0
E1C0
E1C0
E1C0
E1C0
FFC0
ENDCHAR
STARTCHAR 03B5
ENCODING 949
SWIDTH 990 0
DWIDTH 11 0
BBX 10 10 0 0
BITMAP
FFC0
FFC0
E000
E000
FF00
FF00
E000
E000
E000
FFC0
ENDCHAR
STARTCHAR 03B6
ENCODING 950
SWIDTH 990 0
DWIDTH 11 0
BBX 10 10 0 0
BITMAP
FFC0
FFC0
03C0
0F00
1E00
1E00
7C00
F000
F000
FFC0
ENDCHAR
STARTCHAR 03B7
ENCODING 951
SWIDTH 990 0
DWIDTH 11 0
BBX 10 10 0 0
BITMAP
E1C0
E1C0
E1C0
E1C0
FFC0
FFC0
E1C0
E1C0
E1C0
E1C0
ENDCHAR
STARTCHAR 03B8
ENCODING 952
SWIDTH 990 0
DWIDTH 11 0
BBX 10 10 0 0
BITMAP
7F00
7F00
E1C0
E1C0
FFC0
FFC0
E1C0
E1C0
E1C0
7F00
ENDCHAR
STARTCHAR 03B9
ENCODING 953
SWIDTH 990 0
DWIDTH 11 0
BBX 9 10 1 0
BITMAP
FF80
FF80
1C00
1C00
1C00
1C00
1C00
1C00
1C00
FF80
ENDCHAR
STARTCHAR 03BA
ENCODING 954
SWIDTH 990 0
DWIDTH 11 0
BBX 10 10 0 0
BITMAP
E1C0
E1C0
E300
EE00
FC00
FC00
FE00
EF00
EF00
E3C0
ENDCHAR
STARTCHAR 03BB
ENCODING 955
SWIDTH 990 0
DWIDTH 11 0
BBX 10 10 0 0
BITMAP
1E00
1E00
7300
E1C0
E1C0
E1C0
E1C0
E1C0
E1C0
E1C0
ENDCHAR
STARTCHAR 03BC
ENCODING 956
SWIDTH 990 0
DWIDTH 11 0
BBX 10 10 0 0
BITMAP
E1C0
E1C0
F3C0
FFC0
FFC0
FFC0
EDC0
E1C0
E1C0
E1C0
ENDCHAR
STARTCHAR 03BD
ENCODING 957
SWIDTH 990 0
DWIDTH 11 0
BBX 10 10 0 0
BITMAP
E1C0
E1C0
F1C0
FDC0
FFC0
FFC0
EFC0
E3C0
E3C0
E1C0
ENDCHAR
STARTCHAR 03BE
ENCODING 958
SWIDTH 990 0
DWIDTH 11 0
BBX 10 10 0 0
BITMAP
FFC0
FFC0
0000
0000
7F00
7F00
0000
0000
0000
FFC0
ENDCHAR
STARTCHAR 03BF
ENCODING 959
SWIDTH 990 0
DWIDTH 11 0
BBX 10 10 0 0
BITMAP
7F00
7F00
E1C0
E1C0
E1C0
E1C0
E1C0
E1C0
E1C0
7F00
ENDCHAR
STARTCHAR 03C0
ENCODING 960
SWIDTH 990 0
DWIDTH 11 0
BBX 10 10 0 0
BITMAP
FFC0
FFC0
7300
7300
7300
7300
7300
7300
7300
7300
ENDCHAR
STARTCHAR 03C1
ENCODING 961
SWIDTH 990 0
DWIDTH 11 0
BBX 10 10 0 0
BITMAP
FF00
FF00
E1C0
E1C0
E1C0
E1C0
FF00
E000
E000
E000
ENDCHAR
STARTCHAR 03C2
ENCODING 962
SWIDTH 990 0
DWIDTH 11 0
BBX 10 11 0 -1
BITMAP
1F00
1F00
71C0
E000
E000
E000
71C0
1F00
1F00
01C0
0F00
ENDCHAR
STARTCHAR 03C3
ENCODING 963
SWIDTH 990 0
DWIDTH 11 0
BBX 10 10 0 0
BITMAP
FFC0
FFC0
71C0
1C00
0F00
0F00
1C00
71C0
71C0
FFC0
ENDCHAR
STARTCHAR 03C4
ENCODING 964
SWIDTH 990 0
DWIDTH 11 0
BBX 9 10 1 0
BITMAP
FF80
FF80
1C00
1C00
1C00
1C00
1C00
1C00
1C00
1C00
ENDCHAR
STARTCHAR 03C5
ENCODING 965
SWIDTH 990 0
DWIDTH 11 0
BBX 9 10 1 0
BITMAP
E380
E380
E380
E380
3E00
3E00
1C00
1C00
1C00
1C00
ENDCHAR
STARTCHAR 03C6
ENCODING 966
SWIDTH 990 0
DWIDTH 11 0
BBX 10 10 0 0
BITMAP
0C00
0C00
7F00
EDC0
EDC0
EDC0
EDC0
7F00
7F00
0C00
ENDCHAR
STARTCHAR 03C7
ENCODING 967
SWIDTH 990 0
DWIDTH 11 0
BBX 10 10 0 0
BITMAP
E1C0
E1C0
F3C0
7F00
1E00
1E00
7F00
F3C0
F3C0
E1C0
ENDCHAR
STARTCHAR 03C8
ENCODING 968
SWIDTH 990 0
DWIDTH 11 0
BBX 10 10 0 0
BITMAP
EDC0
EDC0
EDC0
EDC0
7F00
7F00
0C00
0C00
0C00
0C00
ENDCHAR
STARTCHAR 03C9
ENCODING 969
SWIDTH 990 0
DWIDTH 11 0
BBX 10 10 0 0
BITMAP
1E00
1E00
7300
E1C0
E1C0
E1C0
E1C0
7300
7300
F3C0
ENDCHAR
STARTCHAR 03CA
ENCODING 970
SWIDTH 990 0
DWIDTH 11 0
BBX 9 10 1 0
BITMAP
E380
E380
0000
FF80
1C00
1C00
1C00
1C00
1C00
FF80
ENDCHAR
STARTCHAR 03CB
ENCODING 971
SWIDTH 990 0
DWIDTH 11 0
BBX 9 10 1 0
BITMAP
E380
E380
0000
E380
E380
E380
3E00
1C00
1C00
1C00
ENDCHAR
STARTCHAR 03CC
ENCODING 972
SWIDTH 990 0
DWIDTH 11 0
BBX 10 10 0 0
BITMAP
8F00
8F00
9DC0
1DC0
1DC0
1DC0
1DC0
1DC0
1DC0
0F00
ENDCHAR
STARTCHAR 03CD
ENCODING 973
SWIDTH 990 0
DWIDTH 11 0
BBX 10 10 0 0
BITMAP
9DC0
9DC0
9DC0
1DC0
0F00
0F00
0200
0200
0200
0200
ENDCHAR
STARTCHAR 03CE
ENCODING 974
SWIDTH 990 0
DWIDTH 11 0
BBX 10 10 0 0
BITMAP
8F00
8F00
9DC0
1DC0
1DC0
1DC0
1DC0
0D00
0D00
1DC0
ENDCHAR
STARTCHAR 03CF
ENCODING 975
SWIDTH 990 0
DWIDTH 11 0
BBX 10 11 0 -1
BITMAP
E300
E300
EE00
FC00
FE00
FE00
EF00
E3C0
E3C0
01C0
0300
ENDCHAR
STARTCHAR 03D0
ENCODING 976
SWIDTH 990 0
DWIDTH 11 0
BBX 10 10 0 0
BITMAP
7F00
7F00
E2C0
E3C0
E000
E000
E3C0
E2C0
E2C0
7F00
ENDCHAR
STARTCHAR 03D1
ENCODING 977
SWIDTH 990 0
DWIDTH 11 0
BBX 10 10 0 0
BITMAP
7C00
7C00
EE00
EE00
7FC0
7FC0
0E00
EE00
EE00
7C00
ENDCHAR
STARTCHAR 03D2
ENCODING 978
SWIDTH 990 0
DWIDTH 11 0
BBX 10 10 0 0
BITMAP
E3C0
E3C0
E2C0
E200
7E00
7E00
1C00
1C00
1C00
1C00
ENDCHAR
STARTCHAR 03D3
ENCODING 979
SWIDTH 990 0
DWIDTH 11 0
BBX 10 10 0 0
BITMAP
9DC0
9DC0
9D00
1F00
0E00
0E00
0E00
0E00
0E00
0E00
ENDCHAR
STARTCHAR 03D4
ENCODING 980
SWIDTH 990 0
DWIDTH 11 0
BBX 10 10 0 0
BITMAP
E300
E300
0000
E3C0
E2C0
E2C0
7E00
1C00
1C00
1C00
ENDCHAR
STARTCHAR 03D5
ENCODING 981
SWIDTH 990 0
DWIDTH 11 0
BBX 10 10 0 0
BITMAP
7300
7300
8CC0
8CC0
7F00
7F00
0C00
0C00
0C00
0C00
ENDCHAR
STARTCHAR 03D6
ENCODING 982
SWIDTH 990 0
DWIDTH 11 0
BBX 10 10 0 0
BITMAP
FFC0
FFC0
6100
E1C0
EDC0
EDC0
EDC0
FFC0
FFC0
7300
ENDCHAR
STARTCHAR 03D7
ENCODING 983
SWIDTH 990 0
DWIDTH 11 0
BBX 10 11 0 -1
BITMAP
E1C0
E1C0
63C0
6F00
7F00
7F00
7DC0
F0C0
F0C0
E0C0
0100
ENDCHAR
STARTCHAR 03D8
ENCODING 984
SWIDTH 990 0
DWIDTH 11 0
BBX 10 11 0 -1
BITMAP
7F00
7F00
E1C0
E1C0
E1C0
E1C0
E1C0
E1C0
E1C0
7F00
0C00
ENDCHAR
STARTCHAR 03D9
ENCODING 985
SWIDTH 990 0
DWIDTH 11 0
BBX 10 11 0 -1
BITMAP
7F00
7F00
E1C0
E1C0
E1C0
E1C0
E1C0
E1C0
E1C0
7F00
0C00
ENDCHAR
STARTCHAR 03DA
ENCODING 986
SWIDTH 990 0
DWIDTH 11 0
BBX 10 11 0 -1
BITMAP
1F00
1F00
71C0
E000
E000
E000
71C0
1F00
1F00
01C0
0F00
ENDCHAR
STARTCHAR 03DB
ENCODING 987
SWIDTH 990 0
DWIDTH 11 0
BBX 10 11 0 -1
BITMAP
1F00
1F00
71C0
E000
E000
E000
71C0
1F00
1F00
01C0
0F00
ENDCHAR
STARTCHAR 03DC
ENCODING 988
SWIDTH 990 0
DWIDTH 11 0
BBX 10 10 0 0
BITMAP
FFC0
FFC0
E000
E000
FF00
FF00
E000
E000
E000
E000
ENDCHAR
STARTCHAR 03DD
ENCODING 989
SWIDTH 990 0
DWIDTH 11 0
BBX 10 10 0 0
BITMAP
FFC0
FFC0
E000
E000
FF00
FF00
E000
E000
E000
E000
ENDCHAR
STARTCHAR 03DE
ENCODING 990
SWIDTH 990 0
DWIDTH 11 0
BBX 10 10 0 0
BITMAP
0E00
0E00
1C00
7000
FFC0
FFC0
0300
0E00
0E00
1C00
ENDCHAR
STARTCHAR 03DF
ENCODING 991
SWIDTH 990 0
DWIDTH 11 0
BBX 10 10 0 0
BITMAP
0E00
0E00
1C00
7000
FFC0
FFC0
0300
0E00
0E00
1C00
ENDCHAR
STARTCHAR 03E0
ENCODING 992
SWIDTH 990 0
DWIDTH 11 0
BBX 10 10 0 0
BITMAP
E000
E000
7E00
1300
6100
6100
8300
0DC0
0DC0
10C0
ENDCHAR
STARTCHAR 03E1
ENCODING 993
SWIDTH 990 0
DWIDTH 11 0
BBX 10 10 0 0
BITMAP
E000
E000
7E00
1300
6100
6100
8300
0DC0
0DC0
10C0
ENDCHAR
STARTCHAR 03E2
ENCODING 994
SWIDTH 990 0
DWIDTH 11 0
BBX 10 10 0 0
BITMAP
EDC0
EDC0
EDC0
EDC0
EDC0
EDC0
73C0
01C0
01C0
FF00
ENDCHAR
STARTCHAR 03E3
ENCODING 995
SWIDTH 990 0
DWIDTH 11 0
BBX 10 10 0 0
BITMAP
EDC0
EDC0
EDC0
EDC0
EDC0
EDC0
73C0
01C0
01C0
FF00
ENDCHAR
STARTCHAR 03E4
ENCODING 996
SWIDTH 990 0
DWIDTH 11 0
BBX 10 10 0 0
BITMAP
7DC0
7DC0
E1C0
E1C0
7FC0
7FC0
01C0
01C0
01C0
01C0
ENDCHAR
STARTCHAR 03E5
ENCODING 997
SWIDTH 990 0
DWIDTH 11 0
BBX 10 10 0 0
BITMAP
7DC0
7DC0
E1C0
E1C0
7FC0
7FC0
01C0
01C0
01C0
01C0
ENDCHAR
STARTCHAR 03E6
ENCODING 998
SWIDTH 990 0
DWIDTH 11 0
BBX 10 10 0 0
BITMAP
E000
E000
E000
E000
FF00
FF00
E1C0
01C0
01C0
FF00
ENDCHAR
STARTCHAR 03E7
ENCODING 999
SWIDTH 990 0
DWIDTH 11 0
BBX 10 10 0 0
BITMAP
E000
E000
E000
E000
FF00
FF00
E1C0
01C0
01C0
FF00
ENDCHAR
STARTCHAR 03E8
ENCODING 1000
SWIDTH 990 0
DWIDTH 11 0
BBX 10 10 0 0
BITMAP
1F00
1F00
71C0
01C0
7F00
7F00
E000
E1C0
E1C0
7F00
ENDCHAR
STARTCHAR 03E9
ENCODING 1001
SWIDTH 990 0
DWIDTH 11 0
BBX 10 10 0 0
BITMAP
1F00
1F00
71C0
01C0
7F00
7F00
E000
E1C0
E1C0
7F00
ENDCHAR
STARTCHAR 03EA
ENCODING 1002
SWIDTH 990 0
DWIDTH 11 0
BBX 10 10 0 0
BITMAP
F3C0
F3C0
9EC0
0C00
1E00
1E00
7300
E1C0
E1C0
FFC0
ENDCHAR
STARTCHAR 03EB
ENCODING 1003
SWIDTH 990 0
DWIDTH 11 0
BBX 10 10 0 0
BITMAP
F3C0
F3C0
9EC0
0C00
1E00
1E00
7300
E1C0
E1C0
FFC0
ENDCHAR
STARTCHAR 03EC
ENCODING 1004
SWIDTH 990 0
DWIDTH 11 0
BBX 10 10 0 0
BITMAP
7FC0
7FC0
E000
FF00
E1C0
E1C0
E1C0
E1C0
E1C0
7F00
ENDCHAR
STARTCHAR 03ED
ENCODING 1005
SWIDTH 990 0
DWIDTH 11 0
BBX 10 10 0 0
BITMAP
7FC0
7FC0
E000
FF00
E1C0
E1C0
E1C0
E1C0
E1C0
7F00
ENDCHAR
STARTCHAR 03EE
ENCODING 1006
SWIDTH 990 0
DWIDTH 11 0
BBX 9 10 1 0
BITMAP
1C00
1C00
1C00
FF80
1C00
1C00
1C00
1C00
1C00
1C00
ENDCHAR
STARTCHAR 03EF
ENCODING 1007
SWIDTH 990 0
DWIDTH 11 0
BBX 9 10 1 0
BITMAP
1C00
1C00
1C00
FF80
1C00
1C00
1C00
1C00
1C00
1C00
ENDCHAR
STARTCHAR 03F0
ENCODING 1008
SWIDTH 990 0
DWIDTH 11 0
BBX 10 10 0 0
BITMAP
E1C0
E1C0
63C0
6F00
7F00
7F00
7D00
F100
F100
E1C0
ENDCHAR
STARTCHAR 03F1
ENCODING 1009
SWIDTH 990 0
DWIDTH 11 0
BBX 10 10 0 0
BITMAP
7F00
7F00
E1C0
E1C0
FF00
FF00
E000
E000
E000
7FC0
ENDCHAR
STARTCHAR 03F2
ENCODING 1010
SWIDTH 990 0
DWIDTH 11 0
BBX 10 10 0 0
BITMAP
1F00
1F00
71C0
E000
E000
E000
E000
71C0
71C0
1F00
ENDCHAR
STARTCHAR 03F3
ENCODING 1011
SWIDTH 990 0
DWIDTH 11 0
BBX 4 10 3 0
BITMAP
70
70
00
70
70
70
70
70
70
E0
ENDCHAR
STARTCHAR 03F4
ENCODING 1012
SWIDTH 990 0
DWIDTH 11 0
BBX 10 10 0 0
BITMAP
7F00
7F00
E1C0
E1C0
FFC0
FFC0
E1C0
E1C0
E1C0
7F00
ENDCHAR
STARTCHAR 03F5
ENCODING 1013
SWIDTH 990 0
DWIDTH 11 0
BBX 7 7 0 3
BITMAP
7E
7E
E0
FE
E0
E0
7E
ENDCHAR
STARTCHAR 03F6
ENCODING 1014
SWIDTH 990 0
DWIDTH 11 0
BBX 7 7 0 3
BITMAP
FC
FC
0E
FE
0E
0E
FC
ENDCHAR
STARTCHAR 03F7
ENCODING 1015
SWIDTH 990 0
DWIDTH 11 0
BBX 10 10 0 0
BITMAP
E000
E000
FF00
E1C0
E1C0
E1C0
E1C0
FF00
FF00
E000
ENDCHAR
STARTCHAR 03F8
ENCODING 1016
SWIDTH 990 0
DWIDTH 11 0
BBX 10 10 0 0
BITMAP
E000
E000
FF00
E1C0
E1C0
E1C0
E1C0
FF00
FF00
E000
ENDCHAR
STARTCHAR 03F9
ENCODING 1017
SWIDTH 990 0
DWIDTH 11 0
BBX 10 10 0 0
BITMAP
1F00
1F00
71C0
E000
E000
E000
E000
71C0
71C0
1F00
ENDCHAR
STARTCHAR 03FA
ENCODING 1018
SWIDTH 990 0
DWIDTH 11 0
BBX 10 10 0 0
BITMAP
E1C0
E1C0
F3C0
FFC0
FFC0
FFC0
EDC0
E1C0
E1C0
E1C0
ENDCHAR
STARTCHAR 03FB
ENCODING 1019
SWIDTH 990 0
DWIDTH 11 0
BBX 10 10 0 0
BITMAP
E1C0
E1C0
F3C0
FFC0
FFC0
FFC0
EDC0
E1C0
E1C0
E1C0
ENDCHAR
STARTCHAR 03FC
ENCODING 1020
SWIDTH 990 0
DWIDTH 11 0
BBX 10 10 0 0
BITMAP
1F00
1F00
71C0
71C0
7F00
7F00
7000
FC00
FC00
7000
ENDCHAR
STARTCHAR 03FD
ENCODING 1021
SWIDTH 990 0
DWIDTH 11 0
BBX 10 10 0 0
BITMAP
7E00
7E00
E300
01C0
01C0
01C0
01C0
E300
E300
7E00
ENDCHAR
STARTCHAR 03FE
ENCODING 1022
SWIDTH 990 0
DWIDTH 11 0
BBX 10 10 0 0
BITMAP
1F00
1F00
71C0
E000
EC00
EC00
E000
71C0
71C0
1F00
ENDCHAR
STARTCHAR 03FF
ENCODING 1023
SWIDTH 990 0
DWIDTH 11 0
BBX 10 10 0 0
BITMAP
7E00
7E00
E300
01C0
0DC0
0DC0
01C0
E300
E300
7E00
ENDCHAR
STARTCHAR 0400
ENCODING 1024
SWIDTH 990 0
DWIDTH 11 0
BBX 10 10 0 0
BITMAP
1000
1000
0C00
FFC0
E000
E000
FF00
E000
E000
FFC0
ENDCHAR
STARTCHAR 0401
ENCODING 1025
SWIDTH 990 0
DWIDTH 11 0
BBX 10 10 0 0
BITMAP
7300
7300
0000
FFC0
E000
E000
FF00
E000
E000
FFC0
ENDCHAR
STARTCHAR 0402
ENCODING 1026
SWIDTH 990 0
DWIDTH 11 0
BBX 10 11 0 -1
BITMAP
FE00
FE00
7000
7F00
71C0
71C0
71C0
71C0
71C0
71C0
0300
ENDCHAR
STARTCHAR 0403
ENCODING 1027
SWIDTH 990 0
DWIDTH 11 0
BBX 9 10 1 0
BITMAP
0400
0400
1800
FF80
E180
E180
E000
E000
E000
E000
ENDCHAR
STARTCHAR 0404
ENCODING 1028
SWIDTH 990 0
DWIDTH 11 0
BBX 10 10 0 0
BITMAP
7FC0
7FC0
E000
E000
FF00
FF00
E000
E000
E000
7FC0
ENDCHAR
STARTCHAR 0405
ENCODING 1029
SWIDTH 990 0
DWIDTH 11 0
BBX 10 10 0 0
BITMAP
7E00
7E00
E300
E000
7F00
7F00
01C0
E1C0
E1C0
7F00
ENDCHAR
STARTCHAR 0406
ENCODING 1030
SWIDTH 990 0
DWIDTH 11 0
BBX 9 10 1 0
BITMAP
FF80
FF80
1C00
1C00
1C00
1C00
1C00
1C00
1C00
FF80
ENDCHAR
STARTCHAR 0407
ENCODING 1031
SWIDTH 990 0
DWIDTH 11 0
BBX 9 10 1 0
BITMAP
E380
E380
0000
FF80
1C00
1C00
1C00
1C00
1C00
FF80
ENDCHAR
STARTCHAR 0408
ENCODING 1032
SWIDTH 990 0
DWIDTH 11 0
BBX 10 10 0 0
BITMAP
0FC0
0FC0
01C0
01C0
01C0
01C0
E1C0
E1C0
E1C0
7F00
ENDCHAR
STARTCHAR 0409
ENCODING 1033
SWIDTH 990 0
DWIDTH 11 0
BBX 10 10 0 0
BITMAP
7E00
7E00
6E00
6FC0
6EC0
6EC0
6EC0
EEC0
EEC0
EFC0
ENDCHAR
STARTCHAR 040A
ENCODING 1034
SWIDTH 990 0
DWIDTH 11 0
BBX 10 10 0 0
BITMAP
EE00
EE00
EE00
EFC0
FEC0
FEC0
EEC0
EEC0
EEC0
EFC0
ENDCHAR
STARTCHAR 040B
ENCODING 1035
SWIDTH 990 0
DWIDTH 11 0
BBX 10 10 0 0
BITMAP
FE00
FE00
7000
7F00
71C0
71C0
71C0
71C0
71C0
71C0
ENDCHAR
STARTCHAR 040C
ENCODING 1036
SWIDTH 990 0
DWIDTH 11 0
BBX 10 10 0 0
BITMAP
0200
0200
0C00
E1C0
E200
E200
FF00
E1C0
E1C0
E1C0
ENDCHAR
STARTCHAR 040D
ENCODING 1037
SWIDTH 990 0
DWIDTH 11 0
BBX 10 10 0 0
BITMAP
1000
1000
0C00
E3C0
EFC0
EFC0
FFC0
FDC0
FDC0
F1C0
ENDCHAR
STARTCHAR 040E
ENCODING 1038
SWIDTH 990 0
DWIDTH 11 0
BBX 10 10 0 0
BITMAP
6100
6100
1E00
E1C0
E1C0
E1C0
7FC0
01C0
01C0
7F00
ENDCHAR
STARTCHAR 040F
ENCODING 1039
SWIDTH 990 0
DWIDTH 11 0
BBX 10 11 0 -1
BITMAP
E1C0
E1C0
E1C0
E1C0
E1C0
E1C0
E1C0
E1C0
E1C0
FFC0
0C00
ENDCHAR
STARTCHAR 0410
ENCODING 1040
SWIDTH 990 0
DWIDTH 11 0
BBX 10 10 0 0
BITMAP
1E00
1E00
7300
E1C0
E1C0
E1C0
FFC0
E1C0
E1C0
E1C0
ENDCHAR
STARTCHAR 0411
ENCODING 1041
SWIDTH 990 0
DWIDTH 11 0
BBX 10 10 0 0
BITMAP
FF00
FF00
E000
E000
FF00
FF00
E1C0
E1C0
E1C0
FF00
ENDCHAR
STARTCHAR 0412
ENCODING 1042
SWIDTH 990 0
DWIDTH 11 0
BBX 10 10 0 0
BITMAP
FF00
FF00
E1C0
E1C0
FF00
FF00
E1C0
E1C0
E1C0
FF00
ENDCHAR
STARTCHAR 0413
ENCODING 1043
SWIDTH 990 0
DWIDTH 11 0
BBX 9 10 1 0
BITMAP
FF80
FF80
E180
E000
E000
E000
E000
E000
E000
E000
ENDCHAR
STARTCHAR 0414
ENCODING 1044
SWIDTH 990 0
DWIDTH 11 0
BBX 10 11 0 -1
BITMAP
1F00
1F00
1300
7300
6300
6300
6300
6300
6300
FFC0
E1C0
ENDCHAR
STARTCHAR 0415
ENCODING 1045
SWIDTH 990 0
DWIDTH 11 0
BBX 10 10 0 0
BITMAP
FFC0
FFC0
E000
E000
FF00
FF00
E000
E000
E000
FFC0
ENDCHAR
STARTCHAR 0416
ENCODING 1046
SWIDTH 990 0
DWIDTH 11 0
BBX 10 10 0 0
BITMAP
EDC0
EDC0
EDC0
7F00
1E00
1E00
7F00
EDC0
EDC0
EDC0
ENDCHAR
STARTCHAR 0417
ENCODING 1047
SWIDTH 990 0
DWIDTH 11 0
BBX 10 10 0 0
BITMAP
7F00
7F00
E1C0
01C0
1F00
1F00
01C0
E1C0
E1C0
7F00
ENDCHAR
STARTCHAR 0418
ENCODING 1048
SWIDTH 990 0
DWIDTH 11 0
BBX 10 10 0 0
BITMAP
E1C0
E1C0
E3C0
EFC0
FFC0
FFC0
FDC0
F1C0
F1C0
E1C0
ENDCHAR
STARTCHAR 0419
ENCODING 1049
SWIDTH 990 0
DWIDTH 11 0
BBX 10 10 0 0
BITMAP
6100
6100
1E00
E3C0
EFC0
EFC0
FFC0
FDC0
FDC0
F1C0
ENDCHAR
STARTCHAR 041A
ENCODING 1050
SWIDTH 990 0
DWIDTH 11 0
BBX 10 10 0 0
BITMAP
E1C0
E1C0
E300
EC00
FE00
FE00
E300
E300
E300
E1C0
ENDCHAR
STARTCHAR 041B
ENCODING 1051
SWIDTH 990 0
DWIDTH 11 0
BBX 10 10 0 0
BITMAP
1FC0
1FC0
11C0
11C0
11C0
11C0
71C0
F1C0
F1C0
E1C0
ENDCHAR
STARTCHAR 041C
ENCODING 1052
SWIDTH 990 0
DWIDTH 11 0
BBX 10 10 0 0
BITMAP
E1C0
E1C0
F3C0
FFC0
FFC0
FFC0
EDC0
E1C0
E1C0
E1C0
ENDCHAR
STARTCHAR 041D
ENCODING 1053
SWIDTH 990 0
DWIDTH 11 0
BBX 10 10 0 0
BITMAP
E1C0
E1C0
E1C0
E1C0
FFC0
FFC0
E1C0
E1C0
E1C0
E1C0
ENDCHAR
STARTCHAR 041E
ENCODING 1054
SWIDTH 990 0
DWIDTH 11 0
BBX 10 10 0 0
BITMAP
7F00
7F00
E1C0
E1C0
E1C0
E1C0
E1C0
E1C0
E1C0
7F00
ENDCHAR
STARTCHAR 041F
ENCODING 1055
SWIDTH 990 0
DWIDTH 11 0
BBX 10 10 0 0
BITMAP
FFC0
FFC0
E1C0
E1C0
E1C0
E1C0
E1C0
E1C0
E1C0
E1C0
ENDCHAR
STARTCHAR 0420
ENCODING 1056
SWIDTH 990 0
DWIDTH 11 0
BBX 10 10 0 0
BITMAP
FF00
FF00
E1C0
E1C0
E1C0
E1C0
FF00
E000
E000
E000
ENDCHAR
STARTCHAR 0421
ENCODING 1057
SWIDTH 990 0
DWIDTH 11 0
BBX 10 10 0 0
BITMAP
1F00
1F00
71C0
E000
E000
E000
E000
71C0
71C0
1F00
ENDCHAR
STARTCHAR 0422
ENCODING 1058
SWIDTH 990 0
DWIDTH 11 0
BBX 9 10 1 0
BITMAP
FF80
FF80
1C00
1C00
1C00
1C00
1C00
1C00
1C00
1C00
ENDCHAR
STARTCHAR 0423
ENCODING 1059
SWIDTH 990 0
DWIDTH 11 0
BBX 10 10 0 0
BITMAP
E1C0
E1C0
E1C0
E1C0
7FC0
7FC0
01C0
E1C0
E1C0
7F00
ENDCHAR
STARTCHAR 0424
ENCODING 1060
SWIDTH 990 0
DWIDTH 11 0
BBX 10 10 0 0
BITMAP
0C00
0C00
7F00
EDC0
EDC0
EDC0
EDC0
7F00
7F00
0C00
ENDCHAR
STARTCHAR 0425
ENCODING 1061
SWIDTH 990 0
DWIDTH 11 0
BBX 10 10 0 0
BITMAP
E1C0
E1C0
F3C0
7F00
1E00
1E00
7F00
F3C0
F3C0
E1C0
ENDCHAR
STARTCHAR 0426
ENCODING 1062
SWIDTH 990 0
DWIDTH 11 0
BBX 10 11 0 -1
BITMAP
E300
E300
E300
E300
E300
E300
E300
E300
E300
FFC0
01C0
ENDCHAR
STARTCHAR 0427
ENCODING 1063
SWIDTH 990 0
DWIDTH 11 0
BBX 10 10 0 0
BITMAP
E1C0
E1C0
E1C0
E1C0
7FC0
7FC0
01C0
01C0
01C0
01C0
ENDCHAR
STARTCHAR 0428
ENCODING 1064
SWIDTH 990 0
DWIDTH 11 0
BBX 10 10 0 0
BITMAP
EDC0
EDC0
EDC0
EDC0
EDC0
EDC0
EDC0
EDC0
EDC0
FFC0
ENDCHAR
STARTCHAR 0429
ENCODING 1065
SWIDTH 990 0
DWIDTH 11 0
BBX 10 11 0 -1
BITMAP
9300
9300
9300
9300
9300
9300
9300
FF00
FF00
FFC0
01C0
ENDCHAR
STARTCHAR 042A
ENCODING 1066
SWIDTH 990 0
DWIDTH 11 0
BBX 10 10 0 0
BITMAP
F000
F000
7000
7F00
71C0
71C0
71C0
71C0
71C0
7F00
ENDCHAR
STARTCHAR 042B
ENCODING 1067
SWIDTH 990 0
DWIDTH 11 0
BBX 10 10 0 0
BITMAP
E1C0
E1C0
E1C0
FDC0
EDC0
EDC0
EDC0
EDC0
EDC0
FDC0
ENDCHAR
STARTCHAR 042C
ENCODING 1068
SWIDTH 990 0
DWIDTH 11 0
BBX 10 10 0 0
BITMAP
E000
E000
E000
FF00
E1C0
E1C0
E1C0
E1C0
E1C0
FF00
ENDCHAR
STARTCHAR 042D
ENCODING 1069
SWIDTH 990 0
DWIDTH 11 0
BBX 10 10 0 0
BITMAP
FF00
FF00
01C0
01C0
7FC0
7FC0
01C0
01C0
01C0
FF00
ENDCHAR
STARTCHAR 042E
ENCODING 1070
SWIDTH 990 0
DWIDTH 11 0
BBX 10 10 0 0
BITMAP
8F00
8F00
9DC0
9DC0
FDC0
FDC0
9DC0
9DC0
9DC0
8F00
ENDCHAR
STARTCHAR 042F
ENCODING 1071
SWIDTH 990 0
DWIDTH 11 0
BBX 10 10 0 0
BITMAP
7FC0
7FC0
E1C0
E1C0
F1C0
F1C0
1FC0
7DC0
7DC0
F1C0
ENDCHAR
STARTCHAR 0430
ENCODING 1072
SWIDTH 990 0
DWIDTH 11 0
BBX 10 10 0 0
BITMAP
1E00
1E00
7300
E1C0
E1C0
E1C0
FFC0
E1C0
E1C0
E1C0
ENDCHAR
STARTCHAR 0431
ENCODING 1073
SWIDTH 990 0
DWIDTH 11 0
BBX 10 10 0 0
BITMAP
FF00
FF00
E000
E000
FF00
FF00
E1C0
E1C0
E1C0
FF00
ENDCHAR
STARTCHAR 0432
ENCODING 1074
SWIDTH 990 0
DWIDTH 11 0
BBX 10 10 0 0
BITMAP
FF00
FF00
E1C0
E1C0
FF00
FF00
E1C0
E1C0
E1C0
FF00
ENDCHAR
STARTCHAR 0433
ENCODING 1075
SWIDTH 990 0
DWIDTH 11 0
BBX 9 10 1 0
BITMAP
FF80
FF80
E180
E000
E000
E000
E000
E000
E000
E000
ENDCHAR
STARTCHAR 0434
ENCODING 1076
SWIDTH 990 0
DWIDTH 11 0
BBX 10 11 0 -1
BITMAP
1F00
1F00
1300
7300
6300
6300
6300
6300
6300
FFC0
E1C0
ENDCHAR
STARTCHAR 0435
ENCODING 1077
SWIDTH 990 0
DWIDTH 11 0
BBX 10 10 0 0
BITMAP
FFC0
FFC0
E000
E000
FF00
FF00
E000
E000
E000
FFC0
ENDCHAR
STARTCHAR 0436
ENCODING 1078
SWIDTH 990 0
DWIDTH 11 0
BBX 10 10 0 0
BITMAP
EDC0
EDC0
EDC0
7F00
1E00
1E00
7F00
EDC0
EDC0
EDC0
ENDCHAR
STARTCHAR 0437
ENCODING 1079
SWIDTH 990 0
DWIDTH 11 0
BBX 10 10 0 0
BITMAP
7F00
7F00
E1C0
01C0
1F00
1F00
01C0
E1C0
E1C0
7F00
ENDCHAR
STARTCHAR 0438
ENCODING 1080
SWIDTH 990 0
DWIDTH 11 0
BBX 10 10 0 0
BITMAP
E1C0
E1C0
E3C0
EFC0
FFC0
FFC0
FDC0
F1C0
F1C0
E1C0
ENDCHAR
STARTCHAR 0439
ENCODING 1081
SWIDTH 990 0
DWIDTH 11 0
BBX 10 10 0 0
BITMAP
6100
6100
1E00
E3C0
EFC0
EFC0
FFC0
FDC0
FDC0
F1C0
ENDCHAR
STARTCHAR 043A
ENCODING 1082
SWIDTH 990 0
DWIDTH 11 0
BBX 10 10 0 0
BITMAP
E1C0
E1C0
E300
EC00
FE00
FE00
E300
E300
E300
E1C0
ENDCHAR
STARTCHAR 043B
ENCODING 1083
SWIDTH 990 0
DWIDTH 11 0
BBX 10 10 0 0
BITMAP
1FC0
1FC0
11C0
11C0
11C0
11C0
71C0
F1C0
F1C0
E1C0
ENDCHAR
STARTCHAR 043C
ENCODING 1084
SWIDTH 990 0
DWIDTH 11 0
BBX 10 10 0 0
BITMAP
E1C0
E1C0
F3C0
FFC0
FFC0
FFC0
EDC0
E1C0
E1C0
E1C0
ENDCHAR
STARTCHAR 043D
ENCODING 1085
SWIDTH 990 0
DWIDTH 11 0
BBX 10 10 0 0
BITMAP
E1C0
E1C0
E1C0
E1C0
FFC0
FFC0
E1C0
E1C0
E1C0
E1C0
ENDCHAR
STARTCHAR 043E
ENCODING 1086
SWIDTH 990 0
DWIDTH 11 0
BBX 10 10 0 0
BITMAP
7F00
7F00
E1C0
E1C0
E1C0
E1C0
E1C0
E1C0
E1C0
7F00
ENDCHAR
STARTCHAR 043F
ENCODING 1087
SWIDTH 990 0
DWIDTH 11 0
BBX 10 10 0 0
BITMAP
FFC0
FFC0
E1C0
E1C0
E1C0
E1C0
E1C0
E1C0
E1C0
E1C0
ENDCHAR
STARTCHAR 0440
ENCODING 1088
SWIDTH 990 0
DWIDTH 11 0
BBX 10 10 0 0
BITMAP
FF00
FF00
E1C0
E1C0
E1C0
E1C0
FF00
E000
E000
E000
ENDCHAR
STARTCHAR 0441
ENCODING 1089
SWIDTH 990 0
DWIDTH 11 0
BBX 10 10 0 0
BITMAP
1F00
1F00
71C0
E000
E000
E000
E000
71C0
71C0
1F00
ENDCHAR
STARTCHAR 0442
ENCODING 1090
SWIDTH 990 0
DWIDTH 11 0
BBX 9 10 1 0
BITMAP
FF80
FF80
1C00
1C00
1C00
1C00
1C00
1C00
1C00
1C00
ENDCHAR
STARTCHAR 0443
ENCODING 1091
SWIDTH 990 0
DWIDTH 11 0
BBX 10 10 0 0
BITMAP
E1C0
E1C0
E1C0
E1C0
7FC0
7FC0
01C0
E1C0
E1C0
7F00
ENDCHAR
STARTCHAR 0444
ENCODING 1092
SWIDTH 990 0
DWIDTH 11 0
BBX 10 10 0 0
BITMAP
0C00
0C00
7F00
EDC0
EDC0
EDC0
EDC0
7F00
7F00
0C00
ENDCHAR
STARTCHAR 0445
ENCODING 1093
SWIDTH 990 0
DWIDTH 11 0
BBX 10 10 0 0
BITMAP
E1C0
E1C0
F3C0
7F00
1E00
1E00
7F00
F3C0
F3C0
E1C0
ENDCHAR
STARTCHAR 0446
ENCODING 1094
SWIDTH 990 0
DWIDTH 11 0
BBX 10 11 0 -1
BITMAP
E300
E300
E300
E300
E300
E300
E300
E300
E300
FFC0
01C0
ENDCHAR
STARTCHAR 0447
ENCODING 1095
SWIDTH 990 0
DWIDTH 11 0
BBX 10 10 0 0
BITMAP
E1C0
E1C0
E1C0
E1C0
7FC0
7FC0
01C0
01C0
01C0
01C0
ENDCHAR
STARTCHAR 0448
ENCODING 1096
SWIDTH 990 0
DWIDTH 11 0
BBX 10 10 0 0
BITMAP
EDC0
EDC0
EDC0
EDC0
EDC0
EDC0
EDC0
EDC0
EDC0
FFC0
ENDCHAR
STARTCHAR 0449
ENCODING 1097
SWIDTH 990 0
DWIDTH 11 0
BBX 10 11 0 -1
BITMAP
9300
9300
9300
9300
9300
9300
9300
FF00
FF00
FFC0
01C0
ENDCHAR
STARTCHAR 044A
ENCODING 1098
SWIDTH 990 0
DWIDTH 11 0
BBX 10 10 0 0
BITMAP
F000
F000
7000
7F00
71C0
71C0
71C0
71C0
71C0
7F00
ENDCHAR
STARTCHAR 044B
ENCODING 1099
SWIDTH 990 0
DWIDTH 11 0
BBX 10 10 0 0
BITMAP
E1C0
E1C0
E1C0
FDC0
EDC0
EDC0
EDC0
EDC0
EDC0
FDC0
ENDCHAR
STARTCHAR 044C
ENCODING 1100
SWIDTH 990 0
DWIDTH 11 0
BBX 10 10 0 0
BITMAP
E000
E000
E000
FF00
E1C0
E1C0
E1C0
E1C0
E1C0
FF00
ENDCHAR
STARTCHAR 044D
ENCODING 1101
SWIDTH 990 0
DWIDTH 11 0
BBX 10 10 0 0
BITMAP
FF00
FF00
01C0
01C0
7FC0
7FC0
01C0
01C0
01C0
FF00
ENDCHAR
STARTCHAR 044E
ENCODING 1102
SWIDTH 990 0
DWIDTH 11 0
BBX 10 10 0 0
BITMAP
8F00
8F00
9DC0
9DC0
FDC0
FDC0
9DC0
9DC0
9DC0
8F00
ENDCHAR
STARTCHAR 044F
ENCODING 1103
SWIDTH 990 0
DWIDTH 11 0
BBX 10 10 0 0
BITMAP
7FC0
7FC0
E1C0
E1C0
F1C0
F1C0
1FC0
7DC0
7DC0
F1C0
ENDCHAR
STARTCHAR 0450
ENCODING 1104
SWIDTH 990 0
DWIDTH 11 0
BBX 10 10 0 0
BITMAP
1000
1000
0C00
FFC0
E000
E000
FF00
E000
E000
FFC0
ENDCHAR
STARTCHAR 0451
ENCODING 1105
SWIDTH 990 0
DWIDTH 11 0
BBX 10 10 0 0
BITMAP
7300
7300
0000
FFC0
E000
E000
FF00
E000
E000
FFC0
ENDCHAR
STARTCHAR 0452
ENCODING 1106
SWIDTH 990 0
DWIDTH 11 0
BBX 10 11 0 -1
BITMAP
FE00
FE00
7000
7F00
71C0
71C0
71C0
71C0
71C0
71C0
0300
ENDCHAR
STARTCHAR 0453
ENCODING 1107
SWIDTH 990 0
DWIDTH 11 0
BBX 9 10 1 0
BITMAP
0400
0400
1800
FF80
E180
E180
E000
E000
E000
E000
ENDCHAR
STARTCHAR 0454
ENCODING 1108
SWIDTH 990 0
DWIDTH 11 0
BBX 10 10 0 0
BITMAP
7FC0
7FC0
E000
E000
FF00
FF00
E000
E000
E000
7FC0
ENDCHAR
STARTCHAR 0455
ENCODING 1109
SWIDTH 990 0
DWIDTH 11 0
BBX 10 10 0 0
BITMAP
7E00
7E00
E300
E000
7F00
7F00
01C0
E1C0
E1C0
7F00
ENDCHAR
STARTCHAR 0456
ENCODING 1110
SWIDTH 990 0
DWIDTH 11 0
BBX 9 10 1 0
BITMAP
FF80
FF80
1C00
1C00
1C00
1C00
1C00
1C00
1C00
FF80
ENDCHAR
STARTCHAR 0457
ENCODING 1111
SWIDTH 990 0
DWIDTH 11 0
BBX 9 10 1 0
BITMAP
E380
E380
0000
FF80
1C00
1C00
1C00
1C00
1C00
FF80
ENDCHAR
STARTCHAR 0458
ENCODING 1112
SWIDTH 990 0
DWIDTH 11 0
BBX 10 10 0 0
BITMAP
0FC0
0FC0
01C0
01C0
01C0
01C0
E1C0
E1C0
E1C0
7F00
ENDCHAR
STARTCHAR 0459
ENCODING 1113
SWIDTH 990 0
DWIDTH 11 0
BBX 10 10 0 0
BITMAP
7E00
7E00
6E00
6FC0
6EC0
6EC0
6EC0
EEC0
EEC0
EFC0
ENDCHAR
STARTCHAR 045A
ENCODING 1114
SWIDTH 990 0
DWIDTH 11 0
BBX 10 10 0 0
BITMAP
EE00
EE00
EE00
EFC0
FEC0
FEC0
EEC0
EEC0
EEC0
EFC0
ENDCHAR
STARTCHAR 045B
ENCODING 1115
SWIDTH 990 0
DWIDTH 11 0
BBX 10 10 0 0
BITMAP
FE00
FE00
7000
7F00
71C0
71C0
71C0
71C0
71C0
71C0
ENDCHAR
STARTCHAR 045C
ENCODING 1116
SWIDTH 990 0
DWIDTH 11 0
BBX 10 10 0 0
BITMAP
0200
0200
0C00
E1C0
E200
E200
FF00
E1C0
E1C0
E1C0
ENDCHAR
STARTCHAR 045D
ENCODING 1117
SWIDTH 990 0
DWIDTH 11 0
BBX 10 10 0 0
BITMAP
1000
1000
0C00
E3C0
EFC0
EFC0
FFC0
FDC0
FDC0
F1C0
ENDCHAR
STARTCHAR 045E
ENCODING 1118
SWIDTH 990 0
DWIDTH 11 0
BBX 10 10 0 0
BITMAP
6100
6100
1E00
E1C0
E1C0
E1C0
7FC0
01C0
01C0
7F00
ENDCHAR
STARTCHAR 045F
ENCODING 1119
SWIDTH 990 0
DWIDTH 11 0
BBX 10 11 0 -1
BITMAP
E1C0
E1C0
E1C0
E1C0
E1C0
E1C0
E1C0
E1C0
E1C0
FFC0
0C00
ENDCHAR
STARTCHAR 0460
ENCODING 1120
SWIDTH 990 0
DWIDTH 11 0
BBX 10 10 0 0
BITMAP
7300
7300
E1C0
E1C0
EDC0
EDC0
EDC0
EDC0
EDC0
7F00
ENDCHAR
STARTCHAR 0461
ENCODING 1121
SWIDTH 990 0
DWIDTH 11 0
BBX 10 10 0 0
BITMAP
7300
7300
E1C0
E1C0
EDC0
EDC0
EDC0
EDC0
EDC0
7F00
ENDCHAR
STARTCHAR 0462
ENCODING 1122
SWIDTH 990 0
DWIDTH 11 0
BBX 10 10 0 0
BITMAP
7000
7000
FE00
7000
7F00
7F00
71C0
71C0
71C0
7F00
ENDCHAR
STARTCHAR 0463
ENCODING 1123
SWIDTH 990 0
DWIDTH 11 0
BBX 10 10 0 0
BITMAP
7000
7000
FE00
7000
7F00
7F00
71C0
71C0
71C0
7F00
ENDCHAR
STARTCHAR 0464
ENCODING 1124
SWIDTH 990 0
DWIDTH 11 0
BBX 10 10 0 0
BITMAP
E300
E300
EEC0
EE00
FFC0
FFC0
EE00
EEC0
EEC0
E300
ENDCHAR
STARTCHAR 0465
ENCODING 1125
SWIDTH 990 0
DWIDTH 11 0
BBX 10 10 0 0
BITMAP
E300
E300
EEC0
EE00
FFC0
FFC0
EE00
EEC0
EEC0
E300
ENDCHAR
STARTCHAR 0466
ENCODING 1126
SWIDTH 990 0
DWIDTH 11 0
BBX 10 10 0 0
BITMAP
0C00
0C00
1E00
7300
6100
6100
7F00
EDC0
EDC0
8CC0
ENDCHAR
STARTCHAR 0467
ENCODING 1127
SWIDTH 990 0
DWIDTH 11 0
BBX 10 10 0 0
BITMAP
0C00
0C00
1E00
7300
6100
6100
7F00
EDC0
EDC0
8CC0
ENDCHAR
STARTCHAR 0468
ENCODING 1128
SWIDTH 990 0
DWIDTH 11 0
BBX 10 10 0 0
BITMAP
8200
8200
8F00
9DC0
90C0
90C0
FFC0
92C0
92C0
92C0
ENDCHAR
STARTCHAR 0469
ENCODING 1129
SWIDTH 990 0
DWIDTH 11 0
BBX 10 10 0 0
BITMAP
8200
8200
8F00
9DC0
90C0
90C0
FFC0
92C0
92C0
92C0
ENDCHAR
STARTCHAR 046A
ENCODING 1130
SWIDTH 990 0
DWIDTH 11 0
BBX 10 10 0 0
BITMAP
FFC0
FFC0
80C0
6100
1E00
1E00
6D00
EDC0
EDC0
EDC0
ENDCHAR
STARTCHAR 046B
ENCODING 1131
SWIDTH 990 0
DWIDTH 11 0
BBX 10 10 0 0
BITMAP
FFC0
FFC0
80C0
6100
1E00
1E00
6D00
EDC0
EDC0
EDC0
ENDCHAR
STARTCHAR 046C
ENCODING 1132
SWIDTH 990 0
DWIDTH 11 0
BBX 10 10 0 0
BITMAP
9FC0
9FC0
90C0
9DC0
FFC0
FFC0
92C0
92C0
92C0
92C0
ENDCHAR
STARTCHAR 046D
ENCODING 1133
SWIDTH 990 0
DWIDTH 11 0
BBX 10 10 0 0
BITMAP
9FC0
9FC0
90C0
9DC0
FFC0
FFC0
92C0
92C0
92C0
92C0
ENDCHAR
STARTCHAR 046E
ENCODING 1134
SWIDTH 990 0
DWIDTH 11 0
BBX 10 10 0 0
BITMAP
02C0
02C0
7F00
E1C0
03C0
03C0
7F00
E000
E000
7FC0
ENDCHAR
STARTCHAR 046F
ENCODING 1135
SWIDTH 990 0
DWIDTH 11 0
BBX 10 10 0 0
BITMAP
02C0
02C0
7F00
E1C0
03C0
03C0
7F00
E000
E000
7FC0
ENDCHAR
STARTCHAR 0470
ENCODING 1136
SWIDTH 990 0
DWIDTH 11 0
BBX 10 10 0 0
BITMAP
EDC0
EDC0
EDC0
EDC0
7F00
7F00
0C00
0C00
0C00
0C00
ENDCHAR
STARTCHAR 0471
ENCODING 1137
SWIDTH 990 0
DWIDTH 11 0
BBX 10 10 0 0
BITMAP
EDC0
EDC0
EDC0
EDC0
7F00
7F00
0C00
0C00
0C00
0C00
ENDCHAR
STARTCHAR 0472
ENCODING 1138
SWIDTH 990 0
DWIDTH 11 0
BBX 10 10 0 0
BITMAP
7F00
7F00
E1C0
E1C0
9EC0
9EC0
E1C0
E1C0
E1C0
7F00
ENDCHAR
STARTCHAR 0473
ENCODING 1139
SWIDTH 990 0
DWIDTH 11 0
BBX 10 10 0 0
BITMAP
7F00
7F00
E1C0
E1C0
9EC0
9EC0
E1C0
E1C0
E1C0
7F00
ENDCHAR
STARTCHAR 0474
ENCODING 1140
SWIDTH 990 0
DWIDTH 11 0
BBX 10 10 0 0
BITMAP
E3C0
E3C0
EE00
EE00
EE00
EE00
EE00
7C00
7C00
1000
ENDCHAR
STARTCHAR 0475
ENCODING 1141
SWIDTH 990 0
DWIDTH 11 0
BBX 10 10 0 0
BITMAP
E3C0
E3C0
EE00
EE00
EE00
EE00
EE00
7C00
7C00
1000
ENDCHAR
STARTCHAR 0476
ENCODING 1142
SWIDTH 990 0
DWIDTH 11 0
BBX 10 10 0 0
BITMAP
8C00
8C00
6200
E3C0
EE00
EE00
EE00
7C00
7C00
1000
ENDCHAR
STARTCHAR 0477
ENCODING 1143
SWIDTH 990 0
DWIDTH 11 0
BBX 10 10 0 0
BITMAP
8C00
8C00
6200
E3C0
EE00
EE00
EE00
7C00
7C00
1000
ENDCHAR
STARTCHAR 0478
ENCODING 1144
SWIDTH 990 0
DWIDTH 11 0
BBX 10 10 0 0
BITMAP
F2C0
F2C0
92C0
92C0
93C0
93C0
90C0
90C0
90C0
FFC0
ENDCHAR
STARTCHAR 0479
ENCODING 1145
SWIDTH 990 0
DWIDTH 11 0
BBX 10 10 0 0
BITMAP
F2C0
F2C0
92C0
92C0
93C0
93C0
90C0
90C0
90C0
FFC0
ENDCHAR
STARTCHAR 047A
ENCODING 1146
SWIDTH 990 0
DWIDTH 11 0
BBX 10 10 0 0
BITMAP
7F00
7F00
8CC0
80C0
80C0
80C0
80C0
8CC0
8CC0
7F00
ENDCHAR
STARTCHAR 047B
ENCODING 1147
SWIDTH 990 0
DWIDTH 11 0
BBX 10 10 0 0
BITMAP
7F00
7F00
8CC0
80C0
80C0
80C0
80C0
8CC0
8CC0
7F00
ENDCHAR
STARTCHAR 047C
ENCODING 1148
SWIDTH 990 0
DWIDTH 11 0
BBX 10 10 0 0
BITMAP
7F00
7F00
6100
0C00
E1C0
E1C0
80C0
EDC0
EDC0
7300
ENDCHAR
STARTCHAR 047D
ENCODING 1149
SWIDTH 990 0
DWIDTH 11 0
BBX 10 10 0 0
BITMAP
7F00
7F00
6100
0C00
E1C0
E1C0
80C0
EDC0
EDC0
7300
ENDCHAR
STARTCHAR 047E
ENCODING 1150
SWIDTH 990 0
DWIDTH 11 0
BBX 10 10 0 0
BITMAP
7F00
7F00
6D00
0000
EDC0
EDC0
8CC0
EDC0
EDC0
7F00
ENDCHAR
STARTCHAR 047F
ENCODING 1151
SWIDTH 990 0
DWIDTH 11 0
BBX 10 10 0 0
BITMAP
7F00
7F00
6D00
0000
EDC0
EDC0
8CC0
EDC0
EDC0
7F00
ENDCHAR
STARTCHAR 0480
ENCODING 1152
SWIDTH 990 0
DWIDTH 11 0
BBX 10 11 0 -1
BITMAP
1F00
1F00
71C0
E000
E000
E000
7000
1E00
1E00
0E00
0E00
ENDCHAR
STARTCHAR 0481
ENCODING 1153
SWIDTH 990 0
DWIDTH 11 0
BBX 10 11 0 -1
BITMAP
1F00
1F00
71C0
E000
E000
E000
7000
1E00
1E00
0E00
0E00
ENDCHAR
STARTCHAR 0482
ENCODING 1154
SWIDTH 990 0
DWIDTH 11 0
BBX 10 10 0 0
BITMAP
0DC0
0DC0
03C0
0F00
9EC0
9EC0
7C00
F000
F000
EC00
ENDCHAR
STARTCHAR 0483
ENCODING 1155
SWIDTH 990 0
DWIDTH 11 0
BBX 7 4 1 6
BITMAP
02
02
FE
C0
ENDCHAR
STARTCHAR 0484
ENCODING 1156
SWIDTH 990 0
DWIDTH 11 0
BBX 7 3 1 7
BITMAP
1C
1C
E2
ENDCHAR
STARTCHAR 0485
ENCODING 1157
SWIDTH 990 0
DWIDTH 11 0
BBX 3 6 3 4
BITMAP
E0
E0
E0
80
60
60
ENDCHAR
STARTCHAR 0486
ENCODING 1158
SWIDTH 990 0
DWIDTH 11 0
BBX 3 6 3 4
BITMAP
E0
E0
E0
60
80
80
ENDCHAR
STARTCHAR 0487
ENCODING 1159
SWIDTH 990 0
DWIDTH 11 0
BBX 7 3 1 7
BITMAP
38
38
C6
ENDCHAR
STARTCHAR 0488
ENCODING 1160
SWIDTH 990 0
DWIDTH 11 0
BBX 10 10 0 0
BITMAP
1E00
1E00
1200
F3C0
92C0
92C0
F3C0
9EC0
9EC0
1200
ENDCHAR
STARTCHAR 0489
ENCODING 1161
SWIDTH 990 0
DWIDTH 11 0
BBX 10 10 0 0
BITMAP
0D00
0D00
9000
1F00
92C0
92C0
7E00
02C0
02C0
6C00
ENDCHAR
STARTCHAR 048A
ENCODING 1162
SWIDTH 990 0
DWIDTH 11 0
BBX 10 11 0 -1
BITMAP
6100
6100
1E00
E3C0
EFC0
EFC0
FFC0
FDC0
FDC0
F1C0
00C0
ENDCHAR
STARTCHAR 048B
ENCODING 1163
SWIDTH 990 0
DWIDTH 11 0
BBX 10 11 0 -1
BITMAP
6100
6100
1E00
E3C0
EFC0
EFC0
FFC0
FDC0
FDC0
F1C0
00C0
ENDCHAR
STARTCHAR 048C
ENCODING 1164
SWIDTH 990 0
DWIDTH 11 0
BBX 10 10 0 0
BITMAP
7000
7000
FC00
7000
7F00
7F00
71C0
71C0
71C0
7F00
ENDCHAR
STARTCHAR 048D
ENCODING 1165
SWIDTH 990 0
DWIDTH 11 0
BBX 10 10 0 0
BITMAP
7000
7000
FC00
7000
7F00
7F00
71C0
71C0
71C0
7F00
ENDCHAR
STARTCHAR 048E
ENCODING 1166
SWIDTH 990 0
DWIDTH 11 0
BBX 10 10 0 0
BITMAP
FF00
FF00
E1C0
EDC0
E3C0
E3C0
FF00
E0C0
E0C0
E000
ENDCHAR
STARTCHAR 048F
ENCODING 1167
SWIDTH 990 0
DWIDTH 11 0
BBX 10 10 0 0
BITMAP
FF00
FF00
E1C0
EDC0
E3C0
E3C0
FF00
E0C0
E0C0
E000
ENDCHAR
STARTCHAR 0490
ENCODING 1168
SWIDTH 990 0
DWIDTH 11 0
BBX 9 10 1 0
BITMAP
0380
0380
FF80
E000
E000
E000
E000
E000
E000
E000
ENDCHAR
STARTCHAR 0491
ENCODING 1169
SWIDTH 990 0
DWIDTH 11 0
BBX 9 10 1 0
BITMAP
0380
0380
FF80
E000
E000
E000
E000
E000
E000
E000
ENDCHAR
STARTCHAR 0492
ENCODING 1170
SWIDTH 990 0
DWIDTH 11 0
BBX 10 10 0 0
BITMAP
7FC0
7FC0
70C0
7000
FE00
FE00
7000
7000
7000
7000
ENDCHAR
STARTCHAR 0493
ENCODING 1171
SWIDTH 990 0
DWIDTH 11 0
BBX 10 10 0 0
BITMAP
7FC0
7FC0
70C0
7000
FE00
FE00
7000
7000
7000
7000
ENDCHAR
STARTCHAR 0494
ENCODING 1172
SWIDTH 990 0
DWIDTH 11 0
BBX 10 10 0 0
BITMAP
FFC0
FFC0
E000
E000
FF00
FF00
E1C0
E1C0
E1C0
E300
ENDCHAR
STARTCHAR 0495
ENCODING 1173
SWIDTH 990 0
DWIDTH 11 0
BBX 10 10 0 0
BITMAP
FFC0
FFC0
E000
E000
FF00
FF00
E1C0
E1C0
E1C0
E300
ENDCHAR
STARTCHAR 0496
ENCODING 1174
SWIDTH 990 0
DWIDTH 11 0
BBX 10 11 0 -1
BITMAP
EDC0
EDC0
EDC0
7F00
1E00
1E00
7F00
ED00
ED00
EDC0
01C0
ENDCHAR
STARTCHAR 0497
ENCODING 1175
SWIDTH 990 0
DWIDTH 11 0
BBX 10 11 0 -1
BITMAP
EDC0
EDC0
EDC0
7F00
1E00
1E00
7F00
ED00
ED00
EDC0
01C0
ENDCHAR
STARTCHAR 0498
ENCODING 1176
SWIDTH 990 0
DWIDTH 11 0
BBX 10 11 0 -1
BITMAP
7F00
7F00
E1C0
01C0
1F00
1F00
01C0
E1C0
E1C0
7F00
0C00
ENDCHAR
STARTCHAR 0499
ENCODING 1177
SWIDTH 990 0
DWIDTH 11 0
BBX 10 11 0 -1
BITMAP
7F00
7F00
E1C0
01C0
1F00
1F00
01C0
E1C0
E1C0
7F00
0C00
ENDCHAR
STARTCHAR 049A
ENCODING 1178
SWIDTH 990 0
DWIDTH 11 0
BBX 10 11 0 -1
BITMAP
E1C0
E1C0
E300
EC00
FE00
FE00
E300
E300
E300
E1C0
01C0
ENDCHAR
STARTCHAR 049B
ENCODING 1179
SWIDTH 990 0
DWIDTH 11 0
BBX 10 11 0 -1
BITMAP
E1C0
E1C0
E300
EC00
FE00
FE00
E300
E300
E300
E1C0
01C0
ENDCHAR
STARTCHAR 049C
ENCODING 1180
SWIDTH 990 0
DWIDTH 11 0
BBX 10 10 0 0
BITMAP
E1C0
E1C0
E100
ED00
FE00
FE00
ED00
E1C0
E1C0
E1C0
ENDCHAR
STARTCHAR 049D
ENCODING 1181
SWIDTH 990 0
DWIDTH 11 0
BBX 10 10 0 0
BITMAP
E1C0
E1C0
E100
ED00
FE00
FE00
ED00
E1C0
E1C0
E1C0
ENDCHAR
STARTCHAR 049E
ENCODING 1182
SWIDTH 990 0
DWIDTH 11 0
BBX 10 10 0 0
BITMAP
61C0
61C0
F3C0
6F00
7E00
7E00
6F00
63C0
63C0
61C0
ENDCHAR
STARTCHAR 049F
ENCODING 1183
SWIDTH 990 0
DWIDTH 11 0
BBX 10 10 0 0
BITMAP
61C0
61C0
F3C0
6F00
7E00
7E00
6F00
63C0
63C0
61C0
ENDCHAR
STARTCHAR 04A0
ENCODING 1184
SWIDTH 990 0
DWIDTH 11 0
BBX 10 10 0 0
BITMAP
F1C0
F1C0
7100
7200
7E00
7E00
7300
7300
7300
71C0
ENDCHAR
STARTCHAR 04A1
ENCODING 1185
SWIDTH 990 0
DWIDTH 11 0
BBX 10 10 0 0
BITMAP
F1C0
F1C0
7100
7200
7E00
7E00
7300
7300
7300
71C0
ENDCHAR
STARTCHAR 04A2
ENCODING 1186
SWIDTH 990 0
DWIDTH 11 0
BBX 10 11 0 -1
BITMAP
E300
E300
E300
E300
FF00
FF00
E300
E300
E300
E3C0
01C0
ENDCHAR
STARTCHAR 04A3
ENCODING 1187
SWIDTH 990 0
DWIDTH 11 0
BBX 10 11 0 -1
BITMAP
E300
E300
E300
E300
FF00
FF00
E300
E300
E300
E3C0
01C0
ENDCHAR
STARTCHAR 04A4
ENCODING 1188
SWIDTH 990 0
DWIDTH 11 0
BBX 10 10 0 0
BITMAP
EFC0
EFC0
EE00
EE00
FE00
FE00
EE00
EE00
EE00
EE00
ENDCHAR
STARTCHAR 04A5
ENCODING 1189
SWIDTH 990 0
DWIDTH 11 0
BBX 10 10 0 0
BITMAP
EFC0
EFC0
EE00
EE00
FE00
FE00
EE00
EE00
EE00
EE00
ENDCHAR
STARTCHAR 04A6
ENCODING 1190
SWIDTH 990 0
DWIDTH 11 0
BBX 10 10 0 0
BITMAP
FC00
FC00
EC00
EF00
EDC0
EDC0
ECC0
EDC0
EDC0
ED00
ENDCHAR
STARTCHAR 04A7
ENCODING 1191
SWIDTH 990 0
DWIDTH 11 0
BBX 10 10 0 0
BITMAP
FC00
FC00
EC00
EF00
EDC0
EDC0
ECC0
EDC0
EDC0
ED00
ENDCHAR
STARTCHAR 04AA
ENCODING 1194
SWIDTH 990 0
DWIDTH 11 0
BBX 10 11 0 -1
BITMAP
1F00
1F00
71C0
E000
E000
E000
E000
71C0
71C0
1F00
0E00
ENDCHAR
STARTCHAR 04AB
ENCODING 1195
SWIDTH 990 0
DWIDTH 11 0
BBX 10 11 0 -1
BITMAP
1F00
1F00
71C0
E000
E000
E000
E000
71C0
71C0
1F00
0E00
ENDCHAR
STARTCHAR 04AC
ENCODING 1196
SWIDTH 990 0
DWIDTH 11 0
BBX 9 11 1 -1
BITMAP
FF80
FF80
1C00
1C00
1C00
1C00
1C00
1C00
1C00
1E00
0600
ENDCHAR
STARTCHAR 04AD
ENCODING 1197
SWIDTH 990 0
DWIDTH 11 0
BBX 9 11 1 -1
BITMAP
FF80
FF80
1C00
1C00
1C00
1C00
1C00
1C00
1C00
1E00
0600
ENDCHAR
STARTCHAR 04AE
ENCODING 1198
SWIDTH 990 0
DWIDTH 11 0
BBX 9 10 1 0
BITMAP
E380
E380
E380
E380
3E00
3E00
1C00
1C00
1C00
1C00
ENDCHAR
STARTCHAR 04AF
ENCODING 1199
SWIDTH 990 0
DWIDTH 11 0
BBX 9 10 1 0
BITMAP
E380
E380
E380
E380
3E00
3E00
1C00
1C00
1C00
1C00
ENDCHAR
STARTCHAR 04B0
ENCODING 1200
SWIDTH 990 0
DWIDTH 11 0
BBX 9 10 1 0
BITMAP
E380
E380
E380
E380
3E00
3E00
1C00
3E00
3E00
1C00
ENDCHAR
STARTCHAR 04B1
ENCODING 1201
SWIDTH 990 0
DWIDTH 11 0
BBX 9 10 1 0
BITMAP
E380
E380
E380
E380
3E00
3E00
1C00
3E00
3E00
1C00
ENDCHAR
STARTCHAR 04B6
ENCODING 1206
SWIDTH 990 0
DWIDTH 11 0
BBX 10 11 0 -1
BITMAP
E300
E300
E300
E300
E300
E300
7F00
0300
0300
03C0
01C0
ENDCHAR
STARTCHAR 04B7
ENCODING 1207
SWIDTH 990 0
DWIDTH 11 0
BBX 10 11 0 -1
BITMAP
E300
E300
E300
E300
E300
E300
7F00
0300
0300
03C0
01C0
ENDCHAR
STARTCHAR 04BA
ENCODING 1210
SWIDTH 990 0
DWIDTH 11 0
BBX 10 10 0 0
BITMAP
E000
E000
E000
E000
FF00
FF00
E1C0
E1C0
E1C0
E1C0
ENDCHAR
STARTCHAR 04BB
ENCODING 1211
SWIDTH 990 0
DWIDTH 11 0
BBX 10 10 0 0
BITMAP
E000
E000
E000
E000
FF00
FF00
E1C0
E1C0
E1C0
E1C0
ENDCHAR
STARTCHAR 04C0
ENCODING 1216
SWIDTH 990 0
DWIDTH 11 0
BBX 9 10 1 0
BITMAP
FF80
FF80
1C00
1C00
1C00
1C00
1C00
1C00
1C00
FF80
ENDCHAR
STARTCHAR 04C1
ENCODING 1217
SWIDTH 990 0
DWIDTH 11 0
BBX 10 10 0 0
BITMAP
7F00
7F00
0000
EDC0
7F00
7F00
1E00
7F00
7F00
EDC0
ENDCHAR
STARTCHAR 04C2
ENCODING 1218
SWIDTH 990 0
DWIDTH 11 0
BBX 10 10 0 0
BITMAP
7F00
7F00
0000
EDC0
7F00
7F00
1E00
7F00
7F00
EDC0
ENDCHAR
STARTCHAR 04CF
ENCODING 1231
SWIDTH 990 0
DWIDTH 11 0
BBX 9 10 1 0
BITMAP
FF80
FF80
1C00
1C00
1C00
1C00
1C00
1C00
1C00
FF80
ENDCHAR
STARTCHAR 04D0
ENCODING 1232
SWIDTH 990 0
DWIDTH 11 0
BBX 10 10 0 0
BITMAP
7F00
7F00
0000
1E00
7300
7300
E1C0
FFC0
FFC0
E1C0
ENDCHAR
STARTCHAR 04D1
ENCODING 1233
SWIDTH 990 0
DWIDTH 11 0
BBX 10 10 0 0
BITMAP
7F00
7F00
0000
1E00
7300
7300
E1C0
FFC0
FFC0
E1C0
ENDCHAR
STARTCHAR 04D2
ENCODING 1234
SWIDTH 990 0
DWIDTH 11 0
BBX 10 10 0 0
BITMAP
7300
7300
0000
1E00
7300
7300
E1C0
FFC0
FFC0
E1C0
ENDCHAR
STARTCHAR 04D3
ENCODING 1235
SWIDTH 990 0
DWIDTH 11 0
BBX 10 10 0 0
BITMAP
7300
7300
0000
1E00
7300
7300
E1C0
FFC0
FFC0
E1C0
ENDCHAR
STARTCHAR 04D4
ENCODING 1236
SWIDTH 990 0
DWIDTH 11 0
BBX 10 10 0 0
BITMAP
7FC0
7FC0
EE00
EE00
FFC0
FFC0
EE00
EE00
EE00
EFC0
ENDCHAR
STARTCHAR 04D5
ENCODING 1237
SWIDTH 990 0
DWIDTH 11 0
BBX 10 10 0 0
BITMAP
7FC0
7FC0
EE00
EE00
FFC0
FFC0
EE00
EE00
EE00
EFC0
ENDCHAR
STARTCHAR 04D6
ENCODING 1238
SWIDTH 990 0
DWIDTH 11 0
BBX 10 10 0 0
BITMAP
7F00
7F00
0000
FFC0
E000
E000
FF00
E000
E000
FFC0
ENDCHAR
STARTCHAR 04D7
ENCODING 1239
SWIDTH 990 0
DWIDTH 11 0
BBX 10 10 0 0
BITMAP
7F00
7F00
0000
FFC0
E000
E000
FF00
E000
E000
FFC0
ENDCHAR
STARTCHAR 04DC
ENCODING 1244
SWIDTH 990 0
DWIDTH 11 0
BBX 10 10 0 0
BITMAP
7300
7300
0000
EDC0
7F00
7F00
1E00
7F00
7F00
EDC0
ENDCHAR
STARTCHAR 04DD
ENCODING 1245
SWIDTH 990 0
DWIDTH 11 0
BBX 10 10 0 0
BITMAP
7300
7300
0000
EDC0
7F00
7F00
1E00
7F00
7F00
EDC0
ENDCHAR
STARTCHAR 04DE
ENCODING 1246
SWIDTH 990 0
DWIDTH 11 0
BBX 10 10 0 0
BITMAP
7300
7300
0000
7F00
E1C0
E1C0
0F00
E1C0
E1C0
7F00
ENDCHAR
STARTCHAR 04DF
ENCODING 1247
SWIDTH 990 0
DWIDTH 11 0
BBX 10 10 0 0
BITMAP
7300
7300
0000
7F00
E1C0
E1C0
0F00
E1C0
E1C0
7F00
ENDCHAR
STARTCHAR 04E0
ENCODING 1248
SWIDTH 990 0
DWIDTH 11 0
BBX 10 10 0 0
BITMAP
7FC0
7FC0
0300
0E00
1F00
1F00
01C0
E1C0
E1C0
7F00
ENDCHAR
STARTCHAR 04E1
ENCODING 1249
SWIDTH 990 0
DWIDTH 11 0
BBX 10 10 0 0
BITMAP
7FC0
7FC0
0300
0E00
1F00
1F00
01C0
E1C0
E1C0
7F00
ENDCHAR
STARTCHAR 04E2
ENCODING 1250
SWIDTH 990 0
DWIDTH 11 0
BBX 10 10 0 0
BITMAP
7F00
7F00
0000
E3C0
EFC0
EFC0
FFC0
FDC0
FDC0
F1C0
ENDCHAR
STARTCHAR 04E3
ENCODING 1251
SWIDTH 990 0
DWIDTH 11 0
BBX 10 10 0 0
BITMAP
7F00
7F00
0000
E3C0
EFC0
EFC0
FFC0
FDC0
FDC0
F1C0
ENDCHAR
STARTCHAR 04E4
ENCODING 1252
SWIDTH 990 0
DWIDTH 11 0
BBX 10 10 0 0
BITMAP
7300
7300
0000
E3C0
EFC0
EFC0
FFC0
FDC0
FDC0
F1C0
ENDCHAR
STARTCHAR 04E5
ENCODING 1253
SWIDTH 990 0
DWIDTH 11 0
BBX 10 10 0 0
BITMAP
7300
7300
0000
E3C0
EFC0
EFC0
FFC0
FDC0
FDC0
F1C0
ENDCHAR
STARTCHAR 04E6
ENCODING 1254
SWIDTH 990 0
DWIDTH 11 0
BBX 10 10 0 0
BITMAP
7300
7300
0000
7F00
E1C0
E1C0
E1C0
E1C0
E1C0
7F00
ENDCHAR
STARTCHAR 04E7
ENCODING 1255
SWIDTH 990 0
DWIDTH 11 0
BBX 10 10 0 0
BITMAP
7300
7300
0000
7F00
E1C0
E1C0
E1C0
E1C0
E1C0
7F00
ENDCHAR
STARTCHAR 04E8
ENCODING 1256
SWIDTH 990 0
DWIDTH 11 0
BBX 10 10 0 0
BITMAP
7F00
7F00
E1C0
E1C0
FFC0
FFC0
E1C0
E1C0
E1C0
7F00
ENDCHAR
STARTCHAR 04E9
ENCODING 1257
SWIDTH 990 0
DWIDTH 11 0
BBX 10 10 0 0
BITMAP
7F00
7F00
E1C0
E1C0
FFC0
FFC0
E1C0
E1C0
E1C0
7F00
ENDCHAR
STARTCHAR 04EA
ENCODING 1258
SWIDTH 990 0
DWIDTH 11 0
BBX 10 10 0 0
BITMAP
7300
7300
0000
7F00
E1C0
E1C0
FFC0
E1C0
E1C0
7F00
ENDCHAR
STARTCHAR 04EB
ENCODING 1259
SWIDTH 990 0
DWIDTH 11 0
BBX 10 10 0 0
BITMAP
7300
7300
0000
7F00
E1C0
E1C0
FFC0
E1C0
E1C0
7F00
ENDCHAR
STARTCHAR 04EC
ENCODING 1260
SWIDTH 990 0
DWIDTH 11 0
BBX 10 10 0 0
BITMAP
7300
7300
0000
FF00
01C0
01C0
7FC0
01C0
01C0
FF00
ENDCHAR
STARTCHAR 04ED
ENCODING 1261
SWIDTH 990 0
DWIDTH 11 0
BBX 10 10 0 0
BITMAP
7300
7300
0000
FF00
01C0
01C0
7FC0
01C0
01C0
FF00
ENDCHAR
STARTCHAR 04EE
ENCODING 1262
SWIDTH 990 0
DWIDTH 11 0
BBX 10 10 0 0
BITMAP
7F00
7F00
0000
E1C0
E1C0
E1C0
7FC0
01C0
01C0
7F00
ENDCHAR
STARTCHAR 04EF
ENCODING 1263
SWIDTH 990 0
DWIDTH 11 0
BBX 10 10 0 0
BITMAP
7F00
7F00
0000
E1C0
E1C0
E1C0
7FC0
01C0
01C0
7F00
ENDCHAR
STARTCHAR 04F0
ENCODING 1264
SWIDTH 990 0
DWIDTH 11 0
BBX 10 10 0 0
BITMAP
7300
7300
0000
E1C0
E1C0
E1C0
7FC0
01C0
01C0
7F00
ENDCHAR
STARTCHAR 04F1
ENCODING 1265
SWIDTH 990 0
DWIDTH 11 0
BBX 10 10 0 0
BITMAP
7300
7300
0000
E1C0
E1C0
E1C0
7FC0
01C0
01C0
7F00
ENDCHAR
STARTCHAR 04F2
ENCODING 1266
SWIDTH 990 0
DWIDTH 11 0
BBX 10 10 0 0
BITMAP
1100
1100
6200
E1C0
E1C0
E1C0
7FC0
01C0
01C0
7F00
ENDCHAR
STARTCHAR 04F3
ENCODING 1267
SWIDTH 990 0
DWIDTH 11 0
BBX 10 10 0 0
BITMAP
1100
1100
6200
E1C0
E1C0
E1C0
7FC0
01C0
01C0
7F00
ENDCHAR
STARTCHAR 04F4
ENCODING 1268
SWIDTH 990 0
DWIDTH 11 0
BBX 10 10 0 0
BITMAP
E1C0
E1C0
E1C0
E1C0
7FC0
7FC0
01C0
01C0
01C0
01C0
ENDCHAR
STARTCHAR 04F5
ENCODING 1269
SWIDTH 990 0
DWIDTH 11 0
BBX 10 10 0 0
BITMAP
7300
7300
0000
E1C0
E1C0
E1C0
7FC0
01C0
01C0
01C0
ENDCHAR
STARTCHAR 04F6
ENCODING 1270
SWIDTH 990 0
DWIDTH 11 0
BBX 9 11 1 -1
BITMAP
FF80
FF80
E180
E000
E000
E000
E000
E000
E000
F800
1800
ENDCHAR
STARTCHAR 04F7
ENCODING 1271
SWIDTH 990 0
DWIDTH 11 0
BBX 9 11 1 -1
BITMAP
FF80
FF80
E180
E000
E000
E000
E000
E000
E000
F800
1800
ENDCHAR
STARTCHAR 04F8
ENCODING 1272
SWIDTH 990 0
DWIDTH 11 0
BBX 10 10 0 0
BITMAP
7300
7300
0000
E1C0
FDC0
FDC0
EDC0
EDC0
EDC0
FDC0
ENDCHAR
STARTCHAR 04F9
ENCODING 1273
SWIDTH 990 0
DWIDTH 11 0
BBX 10 10 0 0
BITMAP
7300
7300
0000
E1C0
FDC0
FDC0
EDC0
EDC0
EDC0
FDC0
ENDCHAR
STARTCHAR 04FA
ENCODING 1274
SWIDTH 990 0
DWIDTH 11 0
BBX 10 11 0 -1
BITMAP
7FC0
7FC0
70C0
7000
FE00
FE00
7000
7C00
7C00
0C00
7000
ENDCHAR
STARTCHAR 04FB
ENCODING 1275
SWIDTH 990 0
DWIDTH 11 0
BBX 10 11 0 -1
BITMAP
7FC0
7FC0
70C0
7000
FE00
FE00
7000
7C00
7C00
0C00
7000
ENDCHAR
STARTCHAR 04FC
ENCODING 1276
SWIDTH 990 0
DWIDTH 11 0
BBX 10 11 0 -1
BITMAP
E300
E300
E300
7E00
E300
E300
E300
E3C0
E3C0
00C0
0300
ENDCHAR
STARTCHAR 04FD
ENCODING 1277
SWIDTH 990 0
DWIDTH 11 0
BBX 10 11 0 -1
BITMAP
E300
E300
E300
7E00
E300
E300
E300
E3C0
E3C0
00C0
0300
ENDCHAR
STARTCHAR 04FE
ENCODING 1278
SWIDTH 990 0
DWIDTH 11 0
BBX 10 10 0 0
BITMAP
E1C0
E1C0
F3C0
7F00
FFC0
FFC0
7F00
F3C0
F3C0
E1C0
ENDCHAR
STARTCHAR 04FF
ENCODING 1279
SWIDTH 990 0
DWIDTH 11 0
BBX 10 10 0 0
BITMAP
E1C0
E1C0
F3C0
7F00
FFC0
FFC0
7F00
F3C0
F3C0
E1C0
ENDCHAR
STARTCHAR 1E9E
ENCODING 7838
SWIDTH 990 0
DWIDTH 11 0
BBX 10 10 0 0
BITMAP
FF00
FF00
E1C0
E1C0
EF00
EF00
E1C0
E1C0
E1C0
EF00
ENDCHAR
STARTCHAR 2010
ENCODING 8208
SWIDTH 990 0
DWIDTH 11 0
BBX 9 3 1 3
BITMAP
FF80
FF80
FF80
ENDCHAR
STARTCHAR 2011
ENCODING 8209
SWIDTH 990 0
DWIDTH 11 0
BBX 9 3 1 3
BITMAP
FF80
FF80
FF80
ENDCHAR
STARTCHAR 2012
ENCODING 8210
SWIDTH 990 0
DWIDTH 11 0
BBX 9 3 1 3
BITMAP
FF80
FF80
FF80
ENDCHAR
STARTCHAR 2013
ENCODING 8211
SWIDTH 990 0
DWIDTH 11 0
BBX 9 3 1 3
BITMAP
FF80
FF80
FF80
ENDCHAR
STARTCHAR 2014
ENCODING 8212
SWIDTH 990 0
DWIDTH 11 0
BBX 10 3 0 3
BITMAP
FFC0
FFC0
FFC0
ENDCHAR
STARTCHAR 2015
ENCODING 8213
SWIDTH 990 0
DWIDTH 11 0
BBX 10 3 0 3
BITMAP
FFC0
FFC0
FFC0
ENDCHAR
STARTCHAR 2016
ENCODING 8214
SWIDTH 990 0
DWIDTH 11 0
BBX 4 10 0 0
BITMAP
90
90
90
90
90
90
90
90
90
90
ENDCHAR
STARTCHAR 2018
ENCODING 8216
SWIDTH 990 0
DWIDTH 11 0
BBX 3 6 3 4
BITMAP
E0
E0
E0
80
60
60
ENDCHAR
STARTCHAR 2019
ENCODING 8217
SWIDTH 990 0
DWIDTH 11 0
BBX 3 6 3 4
BITMAP
E0
E0
E0
60
80
80
ENDCHAR
STARTCHAR 201A
ENCODING 8218
SWIDTH 990 0
DWIDTH 11 0
BBX 3 6 3 0
BITMAP
E0
E0
E0
60
60
80
ENDCHAR
STARTCHAR 201B
ENCODING 8219
SWIDTH 990 0
DWIDTH 11 0
BBX 3 6 3 4
BITMAP
E0
E0
E0
80
60
60
ENDCHAR
STARTCHAR 201C
ENCODING 8220
SWIDTH 990 0
DWIDTH 11 0
BBX 7 6 1 4
BITMAP
E6
E6
E6
C4
22
22
ENDCHAR
STARTCHAR 201D
ENCODING 8221
SWIDTH 990 0
DWIDTH 11 0
BBX 7 6 1 4
BITMAP
E6
E6
E6
22
C4
C4
ENDCHAR
STARTCHAR 201E
ENCODING 8222
SWIDTH 990 0
DWIDTH 11 0
BBX 7 6 1 0
BITMAP
E6
E6
E6
22
22
C4
ENDCHAR
STARTCHAR 201F
ENCODING 8223
SWIDTH 990 0
DWIDTH 11 0
BBX 7 6 1 4
BITMAP
E6
E6
E6
C4
22
22
ENDCHAR
STARTCHAR 2020
ENCODING 8224
SWIDTH 990 0
DWIDTH 11 0
BBX 9 10 1 0
BITMAP
1C00
1C00
1C00
FF80
1C00
1C00
1C00
1C00
1C00
1C00
ENDCHAR
STARTCHAR 2021
ENCODING 8225
SWIDTH 990 0
DWIDTH 11 0
BBX 9 10 1 0
BITMAP
1C00
1C00
1C00
FF80
1C00
1C00
FF80
1C00
1C00
1C00
ENDCHAR
STARTCHAR 2022
ENCODING 8226
SWIDTH 990 0
DWIDTH 11 0
BBX 5 6 3 1
BITMAP
70
F8
F8
F8
70
70
ENDCHAR
STARTCHAR 2023
ENCODING 8227
SWIDTH 990 0
DWIDTH 11 0
BBX 10 10 0 0
BITMAP
E000
E000
FC00
FF00
FFC0
FFC0
FF00
FC00
FC00
E000
ENDCHAR
STARTCHAR 2026
ENCODING 8230
SWIDTH 990 0
DWIDTH 11 0
BBX 7 3 1 0
BITMAP
DA
DA
DA
ENDCHAR
STARTCHAR 2027
ENCODING 8231
SWIDTH 990 0
DWIDTH 11 0
BBX 3 3 4 3
BITMAP
E0
E0
E0
ENDCHAR
STARTCHAR 2030
ENCODING 8240
SWIDTH 990 0
DWIDTH 11 0
BBX 11 10 0 0
BITMAP
60C0
60C0
9100
6200
0C00
0C00
12C0
6D20
6D20
82C0
ENDCHAR
STARTCHAR 2038
ENCODING 8248
SWIDTH 990 0
DWIDTH 11 0
BBX 7 4 1 0
BITMAP
18
24
24
C2
ENDCHAR
STARTCHAR 2039
ENCODING 8249
SWIDTH 990 0
DWIDTH 11 0
BBX 4 7 3 1
BITMAP
10
60
80
80
60
10
10
ENDCHAR
STARTCHAR 203A
ENCODING 8250
SWIDTH 990 0
DWIDTH 11 0
BBX 4 7 3 1
BITMAP
80
60
10
10
60
80
80
ENDCHAR
STARTCHAR 203B
ENCODING 8251
SWIDTH 990 0
DWIDTH 11 0
BBX 10 10 0 0
BITMAP
8CC0
8CC0
6100
1200
8CC0
8CC0
1200
6100
6100
8CC0
ENDCHAR
STARTCHAR 203C
ENCODING 8252
SWIDTH 990 0
DWIDTH 11 0
BBX 7 10 1 0
BITMAP
E6
E6
E6
E6
E6
E6
E6
00
00
E6
ENDCHAR
STARTCHAR 2043
ENCODING 8259
SWIDTH 990 0
DWIDTH 11 0
BBX 9 3 1 3
BITMAP
FF80
FF80
FF80
ENDCHAR
STARTCHAR 2044
ENCODING 8260
SWIDTH 990 0
DWIDTH 11 0
BBX 10 10 0 0
BITMAP
00C0
00C0
0100
0200
0C00
0C00
1000
6000
6000
8000
ENDCHAR
STARTCHAR 2047
ENCODING 8263
SWIDTH 990 0
DWIDTH 11 0
BBX 10 10 0 0
BITMAP
6100
6100
92C0
92C0
10C0
10C0
6100
0000
0000
6100
ENDCHAR
STARTCHAR 2048
ENCODING 8264
SWIDTH 990 0
DWIDTH 11 0
BBX 10 10 0 0
BITMAP
71C0
71C0
8DC0
8DC0
11C0
11C0
61C0
0000
0000
61C0
ENDCHAR
STARTCHAR 2049
ENCODING 8265
SWIDTH 990 0
DWIDTH 11 0
BBX 10 10 0 0
BITMAP
E300
E300
ECC0
ECC0
E100
E100
E200
0000
0000
E200
ENDCHAR
STARTCHAR 204A
ENCODING 8266
SWIDTH 990 0
DWIDTH 11 0
BBX 10 10 0 0
BITMAP
FFC0
FFC0
E1C0
0300
0E00
0E00
1C00
1C00
1C00
1C00
ENDCHAR
STARTCHAR 204B
ENCODING 8267
SWIDTH 990 0
DWIDTH 11 0
BBX 10 10 0 0
BITMAP
FF00
FF00
8FC0
8FC0
8F00
8F00
8C00
8C00
8C00
8C00
ENDCHAR
STARTCHAR 204F
ENCODING 8271
SWIDTH 990 0
DWIDTH 11 0
BBX 4 8 3 0
BITMAP
E0
E0
00
00
E0
E0
E0
70
ENDCHAR
STARTCHAR 2052
ENCODING 8274
SWIDTH 990 0
DWIDTH 11 0
BBX 10 10 0 0
BITMAP
60C0
60C0
9100
6200
0C00
0C00
1100
62C0
62C0
8100
ENDCHAR
STARTCHAR 2074
ENCODING 8308
SWIDTH 990 0
DWIDTH 11 0
BBX 5 6 3 4
BITMAP
10
10
70
F8
10
10
ENDCHAR
STARTCHAR 20A3
ENCODING 8355
SWIDTH 990 0
DWIDTH 11 0
BBX 10 10 0 0
BITMAP
7FC0
7FC0
7000
7000
7F00
7F00
7000
FC00
FC00
7000
ENDCHAR
STARTCHAR 20AC
ENCODING 8364
SWIDTH 990 0
DWIDTH 11 0
BBX 10 10 0 0
BITMAP
0F00
0F00
1DC0
FE00
7000
7000
FE00
1DC0
1DC0
0F00
ENDCHAR
STARTCHAR 20AD
ENCODING 8365
SWIDTH 990 0
DWIDTH 11 0
BBX 10 10 0 0
BITMAP
E1C0
E1C0
E300
EE00
FFC0
FFC0
FE00
EF00
EF00
E3C0
ENDCHAR
STARTCHAR 20AE
ENCODING 8366
SWIDTH 990 0
DWIDTH 11 0
BBX 9 10 1 0
BITMAP
FF80
FF80
1C00
1E00
3C00
3C00
1E00
3C00
3C00
1C00
ENDCHAR
STARTCHAR 20AF
ENCODING 8367
SWIDTH 990 0
DWIDTH 11 0
BBX 10 11 0 -1
BITMAP
7000
7000
8C00
8D00
8EC0
8EC0
8EC0
8EC0
8EC0
F300
0200
ENDCHAR
STARTCHAR 20B4
ENCODING 8372
SWIDTH 990 0
DWIDTH 11 0
BBX 10 10 0 0
BITMAP
7E00
7E00
0300
FFC0
0000
0000
FFC0
7000
7000
1F00
ENDCHAR
STARTCHAR 20B5
ENCODING 8373
SWIDTH 990 0
DWIDTH 11 0
BBX 10 10 0 0
BITMAP
1F00
1F00
7DC0
EC00
EC00
EC00
EC00
7DC0
7DC0
1F00
ENDCHAR
STARTCHAR 20B8
ENCODING 8376
SWIDTH 990 0
DWIDTH 11 0
BBX 9 10 1 0
BITMAP
FF80
FF80
0000
FF80
1C00
1C00
1C00
1C00
1C00
1C00
ENDCHAR
STARTCHAR 20BD
ENCODING 8381
SWIDTH 990 0
DWIDTH 11 0
BBX 10 10 0 0
BITMAP
7F00
7F00
71C0
71C0
FF00
FF00
7000
FE00
FE00
7000
ENDCHAR
STARTCHAR 2102
ENCODING 8450
SWIDTH 990 0
DWIDTH 11 0
BBX 10 10 0 0
BITMAP
7F00
7F00
91C0
9000
9000
9000
9000
91C0
91C0
7F00
ENDCHAR
STARTCHAR 2103
ENCODING 8451
SWIDTH 990 0
DWIDTH 11 0
BBX 10 10 0 0
BITMAP
6000
6000
9000
63C0
0E00
0E00
0E00
0E00
0E00
03C0
ENDCHAR
STARTCHAR 2105
ENCODING 8453
SWIDTH 990 0
DWIDTH 11 0
BBX 10 10 0 0
BITMAP
70C0
70C0
8100
7200
0C00
0C00
1100
62C0
62C0
8100
ENDCHAR
STARTCHAR 2106
ENCODING 8454
SWIDTH 990 0
DWIDTH 11 0
BBX 10 10 0 0
BITMAP
70C0
70C0
8100
7200
0C00
0C00
12C0
62C0
62C0
8100
ENDCHAR
STARTCHAR 2109
ENCODING 8457
SWIDTH 990 0
DWIDTH 11 0
BBX 10 10 0 0
BITMAP
6000
6000
9000
6FC0
0E00
0E00
0FC0
0E00
0E00
0E00
ENDCHAR
STARTCHAR 210D
ENCODING 8461
SWIDTH 990 0
DWIDTH 11 0
BBX 10 10 0 0
BITMAP
F3C0
F3C0
92C0
92C0
9EC0
9EC0
92C0
92C0
92C0
F3C0
ENDCHAR
STARTCHAR 2115
ENCODING 8469
SWIDTH 990 0
DWIDTH 11 0
BBX 10 10 0 0
BITMAP
E1C0
E1C0
F1C0
EDC0
F3C0
F3C0
EDC0
E3C0
E3C0
E1C0
ENDCHAR
STARTCHAR 2116
ENCODING 8470
SWIDTH 990 0
DWIDTH 11 0
BBX 10 10 0 0
BITMAP
E100
E100
92C0
92C0
92C0
92C0
9100
9000
9000
93C0
ENDCHAR
STARTCHAR 2117
ENCODING 8471
SWIDTH 990 0
DWIDTH 11 0
BBX 11 11 0 -1
BITMAP
1F00
1F00
60C0
9E20
9120
9120
9E20
9020
9020
60C0
1F00
ENDCHAR
STARTCHAR 2119
ENCODING 8473
SWIDTH 990 0
DWIDTH 11 0
BBX 10 10 0 0
BITMAP
FF00
FF00
92C0
92C0
92C0
92C0
9F00
9000
9000
F000
ENDCHAR
STARTCHAR 211A
ENCODING 8474
SWIDTH 990 0
DWIDTH 11 0
BBX 10 10 0 0
BITMAP
7F00
7F00
92C0
92C0
92C0
92C0
92C0
9300
9300
7EC0
ENDCHAR
STARTCHAR 211D
ENCODING 8477
SWIDTH 990 0
DWIDTH 11 0
BBX 10 10 0 0
BITMAP
FF00
FF00
92C0
92C0
9F00
9F00
9D00
92C0
92C0
F1C0
ENDCHAR
STARTCHAR 2122
ENCODING 8482
SWIDTH 990 0
DWIDTH 11 0
BBX 9 6 1 4
BITMAP
FF80
FF80
2780
2580
2580
2580
ENDCHAR
STARTCHAR 2124
ENCODING 8484
SWIDTH 990 0
DWIDTH 11 0
BBX 10 10 0 0
BITMAP
FFC0
FFC0
02C0
0D00
1200
1200
6C00
9000
9000
FFC0
ENDCHAR
STARTCHAR 212A
ENCODING 8490
SWIDTH 990 0
DWIDTH 11 0
BBX 10 10 0 0
BITMAP
E1C0
E1C0
E300
EE00
FC00
FC00
FE00
EF00
EF00
E3C0
ENDCHAR
STARTCHAR 212E
ENCODING 8494
SWIDTH 990 0
DWIDTH 11 0
BBX 10 10 0 0
BITMAP
7F00
7F00
E1C0
E1C0
FFC0
FFC0
E000
E1C0
E1C0
7F00
ENDCHAR
STARTCHAR 2132
ENCODING 8498
SWIDTH 990 0
DWIDTH 11 0
BBX 10 10 0 0
BITMAP
01C0
01C0
01C0
01C0
7FC0
7FC0
01C0
01C0
01C0
FFC0
ENDCHAR
STARTCHAR 213E
ENCODING 8510
SWIDTH 990 0
DWIDTH 11 0
BBX 10 10 0 0
BITMAP
FFC0
FFC0
90C0
9000
9000
9000
9000
9000
9000
F000
ENDCHAR
STARTCHAR 213F
ENCODING 8511
SWIDTH 990 0
DWIDTH 11 0
BBX 10 10 0 0
BITMAP
FFC0
FFC0
92C0
92C0
92C0
92C0
92C0
92C0
92C0
F3C0
ENDCHAR
STARTCHAR 2142
ENCODING 8514
SWIDTH 990 0
DWIDTH 11 0
BBX 9 10 1 0
BITMAP
FF80
FF80
0380
0380
0380
0380
0380
0380
0380
0380
ENDCHAR
STARTCHAR 2143
ENCODING 8515
SWIDTH 990 0
DWIDTH 11 0
BBX 9 10 1 0
BITMAP
0380
0380
0380
0380
0380
0380
0380
0380
0380
FF80
ENDCHAR
STARTCHAR 2144
ENCODING 8516
SWIDTH 990 0
DWIDTH 11 0
BBX 9 10 1 0
BITMAP
1C00
1C00
1C00
1C00
3E00
3E00
E380
E380
E380
E380
ENDCHAR
STARTCHAR 2190
ENCODING 8592
SWIDTH 990 0
DWIDTH 11 0
BBX 10 10 0 0
BITMAP
0C00
0C00
1C00
7FC0
FFC0
FFC0
7FC0
1C00
1C00
0C00
ENDCHAR
STARTCHAR 2191
ENCODING 8593
SWIDTH 990 0
DWIDTH 11 0
BBX 10 10 0 0
BITMAP
0C00
0C00
1E00
7F00
FFC0
FFC0
1E00
1E00
1E00
1E00
ENDCHAR
STARTCHAR 2192
ENCODING 8594
SWIDTH 990 0
DWIDTH 11 0
BBX 10 10 0 0
BITMAP
0C00
0C00
0E00
FF00
FFC0
FFC0
FF00
0E00
0E00
0C00
ENDCHAR
STARTCHAR 2193
ENCODING 8595
SWIDTH 990 0
DWIDTH 11 0
BBX 10 10 0 0
BITMAP
1E00
1E00
1E00
1E00
FFC0
FFC0
7F00
1E00
1E00
0C00
ENDCHAR
STARTCHAR 2200
ENCODING 8704
SWIDTH 990 0
DWIDTH 11 0
BBX 10 10 0 0
BITMAP
E1C0
E1C0
E1C0
FFC0
E1C0
E1C0
E1C0
7300
7300
1E00
ENDCHAR
STARTCHAR 2201
ENCODING 8705
SWIDTH 990 0
DWIDTH 11 0
BBX 10 10 0 0
BITMAP
1F00
1F00
71C0
E000
E000
E000
E000
71C0
71C0
1F00
ENDCHAR
STARTCHAR 2202
ENCODING 8706
SWIDTH 990 0
DWIDTH 11 0
BBX 10 10 0 0
BITMAP
7E00
7E00
E300
01C0
7FC0
7FC0
E1C0
E1C0
E1C0
7F00
ENDCHAR
STARTCHAR 2203
ENCODING 8707
SWIDTH 990 0
DWIDTH 11 0
BBX 10 10 0 0
BITMAP
FFC0
FFC0
01C0
01C0
7FC0
7FC0
01C0
01C0
01C0
FFC0
ENDCHAR
STARTCHAR 2204
ENCODING 8708
SWIDTH 990 0
DWIDTH 11 0
BBX 10 10 0 0
BITMAP
FFC0
FFC0
01C0
03C0
7FC0
7FC0
11C0
61C0
61C0
FFC0
ENDCHAR
STARTCHAR 2205
ENCODING 8709
SWIDTH 990 0
DWIDTH 11 0
BBX 10 10 0 0
BITMAP
7F00
7F00
E1C0
E3C0
EDC0
EDC0
F1C0
E1C0
E1C0
7F00
ENDCHAR
STARTCHAR 2206
ENCODING 8710
SWIDTH 990 0
DWIDTH 11 0
BBX 10 10 0 0
BITMAP
1E00
1E00
7300
E1C0
E1C0
E1C0
E1C0
E1C0
E1C0
FFC0
ENDCHAR
STARTCHAR 2207
ENCODING 8711
SWIDTH 990 0
DWIDTH 11 0
BBX 10 10 0 0
BITMAP
FFC0
FFC0
E1C0
E1C0
E1C0
E1C0
E1C0
7300
7300
1E00
ENDCHAR
STARTCHAR 220E
ENCODING 8718
SWIDTH 990 0
DWIDTH 11 0
BBX 7 7 1 1
BITMAP
FE
FE
FE
FE
FE
FE
FE
ENDCHAR
STARTCHAR 2211
ENCODING 8721
SWIDTH 990 0
DWIDTH 11 0
BBX 10 10 0 0
BITMAP
FFC0
FFC0
71C0
1C00
0F00
0F00
1C00
71C0
71C0
FFC0
ENDCHAR
STARTCHAR 2212
ENCODING 8722
SWIDTH 990 0
DWIDTH 11 0
BBX 9 3 1 3
BITMAP
FF80
FF80
FF80
ENDCHAR
STARTCHAR 2215
ENCODING 8725
SWIDTH 990 0
DWIDTH 11 0
BBX 10 10 0 0
BITMAP
00C0
00C0
0100
0200
0C00
0C00
1000
6000
6000
8000
ENDCHAR
STARTCHAR 2216
ENCODING 8726
SWIDTH 990 0
DWIDTH 11 0
BBX 10 10 0 0
BITMAP
8000
8000
6000
1000
0C00
0C00
0200
0100
0100
00C0
ENDCHAR
STARTCHAR 2217
ENCODING 8727
SWIDTH 990 0
DWIDTH 11 0
BBX 10 10 0 0
BITMAP
8CC0
8CC0
6D00
1E00
FFC0
FFC0
1E00
6D00
6D00
8CC0
ENDCHAR
STARTCHAR 2218
ENCODING 8728
SWIDTH 990 0
DWIDTH 11 0
BBX 7 7 1 1
BITMAP
3C
C2
C2
C2
C2
3C
3C
ENDCHAR
STARTCHAR 2219
ENCODING 8729
SWIDTH 990 0
DWIDTH 11 0
BBX 7 7 1 1
BITMAP
3C
FE
FE
FE
FE
3C
3C
ENDCHAR
STARTCHAR 221A
ENCODING 8730
SWIDTH 990 0
DWIDTH 11 0
BBX 10 10 0 0
BITMAP
0FC0
0FC0
0E00
0E00
0E00
0E00
EE00
7E00
7E00
1E00
ENDCHAR
STARTCHAR 221D
ENCODING 8733
SWIDTH 990 0
DWIDTH 11 0
BBX 10 10 0 0
BITMAP
7300
7300
FFC0
8C00
8C00
8C00
8C00
FFC0
FFC0
7300
ENDCHAR
STARTCHAR 221E
ENCODING 8734
SWIDTH 990 0
DWIDTH 11 0
BBX 10 10 0 0
BITMAP
7300
7300
FFC0
8CC0
8CC0
8CC0
8CC0
FFC0
FFC0
7300
ENDCHAR
STARTCHAR 222B
ENCODING 8747
SWIDTH 990 0
DWIDTH 11 0
BBX 9 10 1 0
BITMAP
0600
0600
1D80
1C00
1C00
1C00
1C00
DC00
DC00
3800
ENDCHAR
STARTCHAR 2248
ENCODING 8776
SWIDTH 990 0
DWIDTH 11 0
BBX 10 9 0 1
BITMAP
7000
7000
8CC0
0300
7000
7000
8CC0
0300
0300
ENDCHAR
STARTCHAR 2260
ENCODING 8800
SWIDTH 990 0
DWIDTH 11 0
BBX 10 10 0 0
BITMAP
00C0
00C0
0100
7F00
0C00
0C00
1000
7F00
7F00
8000
ENDCHAR
STARTCHAR 2264
ENCODING 8804
SWIDTH 990 0
DWIDTH 11 0
BBX 4 10 3 0
BITMAP
10
10
60
80
60
60
10
00
00
F0
ENDCHAR
STARTCHAR 2265
ENCODING 8805
SWIDTH 990 0
DWIDTH 11 0
BBX 4 10 3 0
BITMAP
80
80
60
10
60
60
80
00
00
F0
ENDCHAR
STARTCHAR 25A0
ENCODING 9632
SWIDTH 990 0
DWIDTH 11 0
BBX 10 10 0 0
BITMAP
FFC0
FFC0
FFC0
FFC0
FFC0
FFC0
FFC0
FFC0
FFC0
FFC0
ENDCHAR
STARTCHAR 25A1
ENCODING 9633
SWIDTH 990 0
DWIDTH 11 0
BBX 10 10 0 0
BITMAP
FFC0
FFC0
80C0
80C0
80C0
80C0
80C0
80C0
80C0
FFC0
ENDCHAR
STARTCHAR 25A2
ENCODING 9634
SWIDTH 990 0
DWIDTH 11 0
BBX 10 10 0 0
BITMAP
7F00
7F00
80C0
80C0
80C0
80C0
80C0
80C0
80C0
7F00
ENDCHAR
STARTCHAR 25B2
ENCODING 9650
SWIDTH 990 0
DWIDTH 11 0
BBX 10 10 0 0
BITMAP
0C00
0C00
0C00
1E00
1E00
1E00
7F00
7F00
7F00
FFC0
ENDCHAR
STARTCHAR 25B3
ENCODING 9651
SWIDTH 990 0
DWIDTH 11 0
BBX 10 10 0 0
BITMAP
0C00
0C00
0C00
1200
1200
1200
6100
6100
6100
FFC0
ENDCHAR
STARTCHAR 25B6
ENCODING 9654
SWIDTH 990 0
DWIDTH 11 0
BBX 10 10 0 0
BITMAP
8000
8000
F000
FE00
FFC0
FFC0
FE00
F000
F000
8000
ENDCHAR
STARTCHAR 25B7
ENCODING 9655
SWIDTH 990 0
DWIDTH 11 0
BBX 10 10 0 0
BITMAP
8000
8000
F000
8E00
81C0
81C0
8E00
F000
F000
8000
ENDCHAR
STARTCHAR 25BC
ENCODING 9660
SWIDTH 990 0
DWIDTH 11 0
BBX 10 10 0 0
BITMAP
FFC0
FFC0
7F00
7F00
1E00
1E00
1E00
0C00
0C00
0C00
ENDCHAR
STARTCHAR 25BD
ENCODING 9661
SWIDTH 990 0
DWIDTH 11 0
BBX 10 10 0 0
BITMAP
FFC0
FFC0
6100
6100
1200
1200
1200
0C00
0C00
0C00
ENDCHAR
STARTCHAR 25C0
ENCODING 9664
SWIDTH 990 0
DWIDTH 11 0
BBX 10 10 0 0
BITMAP
00C0
00C0
03C0
1FC0
FFC0
FFC0
1FC0
03C0
03C0
00C0
ENDCHAR
STARTCHAR 25C1
ENCODING 9665
SWIDTH 990 0
DWIDTH 11 0
BBX 10 10 0 0
BITMAP
00C0
00C0
03C0
1CC0
E0C0
E0C0
1CC0
03C0
03C0
00C0
ENDCHAR
STARTCHAR 25C6
ENCODING 9670
SWIDTH 990 0
DWIDTH 11 0
BBX 10 10 0 0
BITMAP
0C00
0C00
1E00
7F00
FFC0
FFC0
7F00
1E00
1E00
0C00
ENDCHAR
STARTCHAR 25C7
ENCODING 9671
SWIDTH 990 0
DWIDTH 11 0
BBX 10 10 0 0
BITMAP
0C00
0C00
1200
6100
80C0
80C0
6100
1200
1200
0C00
ENDCHAR
STARTCHAR 25CB
ENCODING 9675
SWIDTH 990 0
DWIDTH 11 0
BBX 10 10 0 0
BITMAP
1E00
1E00
6100
80C0
80C0
80C0
80C0
6100
6100
1E00
ENDCHAR
STARTCHAR 25CF
ENCODING 9679
SWIDTH 990 0
DWIDTH 11 0
BBX 10 10 0 0
BITMAP
1E00
1E00
7F00
FFC0
FFC0
FFC0
FFC0
7F00
7F00
1E00
ENDCHAR
STARTCHAR 2605
ENCODING 9733
SWIDTH 990 0
DWIDTH 11 0
BBX 10 10 0 0
BITMAP
0C00
0C00
0C00
FFC0
7F00
7F00
1E00
7300
7300
6100
ENDCHAR
STARTCHAR 2606
ENCODING 9734
SWIDTH 990 0
DWIDTH 11 0
BBX 10 10 0 0
BITMAP
0C00
0C00
0C00
F3C0
6100
6100
1200
7F00
7F00
6100
ENDCHAR
STARTCHAR 2610
ENCODING 9744
SWIDTH 990 0
DWIDTH 11 0
BBX 10 10 0 0
BITMAP
FFC0
FFC0
FFC0
FFC0
FFC0
FFC0
FFC0
FFC0
FFC0
FFC0
ENDCHAR
STARTCHAR 2611
ENCODING 9745
SWIDTH 990 0
DWIDTH 11 0
BBX 10 10 0 0
BITMAP
FFC0
FFC0
FEC0
FCC0
91C0
91C0
83C0
EFC0
EFC0
FFC0
ENDCHAR
STARTCHAR 2612
ENCODING 9746
SWIDTH 990 0
DWIDTH 11 0
BBX 10 10 0 0
BITMAP
FFC0
FFC0
9EC0
EDC0
F3C0
F3C0
EDC0
9EC0
9EC0
FFC0
ENDCHAR
STARTCHAR 2613
ENCODING 9747
SWIDTH 990 0
DWIDTH 11 0
BBX 10 10 0 0
BITMAP
E1C0
E1C0
F3C0
7F00
1E00
1E00
7F00
F3C0
F3C0
E1C0
ENDCHAR
STARTCHAR 262E
ENCODING 9774
SWIDTH 990 0
DWIDTH 11 0
BBX 10 10 0 0
BITMAP
7F00
7F00
8CC0
8CC0
9EC0
9EC0
EDC0
8CC0
8CC0
7F00
ENDCHAR
STARTCHAR 2639
ENCODING 9785
SWIDTH 990 0
DWIDTH 11 0
BBX 10 10 0 0
BITMAP
7F00
7F00
FFC0
EDC0
FFC0
FFC0
E1C0
9EC0
9EC0
7F00
ENDCHAR
STARTCHAR 263A
ENCODING 9786
SWIDTH 990 0
DWIDTH 11 0
BBX 10 10 0 0
BITMAP
7F00
7F00
FFC0
EDC0
FFC0
FFC0
9EC0
E1C0
E1C0
7F00
ENDCHAR
STARTCHAR 263F
ENCODING 9791
SWIDTH 990 0
DWIDTH 11 0
BBX 10 11 0 -1
BITMAP
6100
6100
1E00
7F00
80C0
80C0
7F00
0C00
0C00
7F00
0C00
ENDCHAR
STARTCHAR 2640
ENCODING 9792
SWIDTH 990 0
DWIDTH 11 0
BBX 10 11 0 -1
BITMAP
7F00
7F00
80C0
80C0
80C0
80C0
7F00
0C00
0C00
7F00
0C00
ENDCHAR
STARTCHAR 2641
ENCODING 9793
SWIDTH 990 0
DWIDTH 11 0
BBX 10 11 0 -1
BITMAP
0C00
0C00
7F00
0C00
7F00
7F00
80C0
80C0
80C0
80C0
7F00
ENDCHAR
STARTCHAR 2642
ENCODING 9794
SWIDTH 990 0
DWIDTH 11 0
BBX 10 11 0 -1
BITMAP
0C00
0C00
1E00
6D00
8CC0
8CC0
1E00
6100
6100
6100
1E00
ENDCHAR
STARTCHAR 2660
ENCODING 9824
SWIDTH 990 0
DWIDTH 11 0
BBX 10 10 0 0
BITMAP
0C00
0C00
1E00
7F00
FFC0
FFC0
FFC0
1E00
1E00
7F00
ENDCHAR
STARTCHAR 2661
ENCODING 9825
SWIDTH 990 0
DWIDTH 11 0
BBX 10 10 0 0
BITMAP
7300
7300
8CC0
80C0
80C0
80C0
6100
1200
1200
0C00
ENDCHAR
STARTCHAR 2662
ENCODING 9826
SWIDTH 990 0
DWIDTH 11 0
BBX 10 10 0 0
BITMAP
0C00
0C00
1200
6100
80C0
80C0
6100
1200
1200
0C00
ENDCHAR
STARTCHAR 2663
ENCODING 9827
SWIDTH 990 0
DWIDTH 11 0
BBX 10 10 0 0
BITMAP
1E00
1E00
1E00
FFC0
FFC0
FFC0
EDC0
0C00
0C00
1E00
ENDCHAR
STARTCHAR 2664
ENCODING 9828
SWIDTH 990 0
DWIDTH 11 0
BBX 10 10 0 0
BITMAP
0C00
0C00
1200
6100
80C0
80C0
E1C0
1200
1200
7F00
ENDCHAR
STARTCHAR 2665
ENCODING 9829
SWIDTH 990 0
DWIDTH 11 0
BBX 10 10 0 0
BITMAP
7300
7300
FFC0
FFC0
FFC0
FFC0
7F00
1E00
1E00
0C00
ENDCHAR
STARTCHAR 2666
ENCODING 9830
SWIDTH 990 0
DWIDTH 11 0
BBX 10 10 0 0
BITMAP
0C00
0C00
1E00
7F00
FFC0
FFC0
7F00
1E00
1E00
0C00
ENDCHAR
STARTCHAR 2667
ENCODING 9831
SWIDTH 990 0
DWIDTH 11 0
BBX 10 10 0 0
BITMAP
1E00
1E00
1200
EDC0
9EC0
9EC0
EDC0
0C00
0C00
1E00
ENDCHAR
STARTCHAR 2669
ENCODING 9833
SWIDTH 990 0
DWIDTH 11 0
BBX 7 10 1 0
BITMAP
02
02
02
02
02
02
3E
FE
FE
3C
ENDCHAR
STARTCHAR 266A
ENCODING 9834
SWIDTH 990 0
DWIDTH 11 0
BBX 10 10 0 0
BITMAP
0C00
0C00
0E00
0D00
0CC0
0CC0
7D00
FC00
FC00
7000
ENDCHAR
STARTCHAR 266B
ENCODING 9835
SWIDTH 990 0
DWIDTH 11 0
BBX 10 10 0 0
BITMAP
1FC0
1FC0
1FC0
10C0
10C0
10C0
71C0
F3C0
F3C0
6100
ENDCHAR
STARTCHAR 266C
ENCODING 9836
SWIDTH 990 0
DWIDTH 11 0
BBX 10 10 0 0
BITMAP
1FC0
1FC0
10C0
1FC0
10C0
10C0
71C0
F3C0
F3C0
6100
ENDCHAR
STARTCHAR 266D
ENCODING 9837
SWIDTH 990 0
DWIDTH 11 0
BBX 7 10 1 0
BITMAP
C0
C0
C0
DC
E2
E2
C2
C4
C4
F8
ENDCHAR
STARTCHAR 266E
ENCODING 9838
SWIDTH 990 0
DWIDTH 11 0
BBX 7 10 1 0
BITMAP
C0
C0
C6
DA
E6
E6
DA
E2
E2
02
ENDCHAR
STARTCHAR 266F
ENCODING 9839
SWIDTH 990 0
DWIDTH 11 0
BBX 7 10 1 0
BITMAP
04
04
26
3C
E6
E6
3C
E4
E4
20
ENDCHAR
STARTCHAR 2680
ENCODING 9856
SWIDTH 990 0
DWIDTH 11 0
BBX 10 10 0 0
BITMAP
FFC0
FFC0
FFC0
E1C0
E1C0
E1C0
E1C0
FFC0
FFC0
FFC0
ENDCHAR
STARTCHAR 2681
ENCODING 9857
SWIDTH 990 0
DWIDTH 11 0
BBX 10 10 0 0
BITMAP
FFC0
FFC0
8FC0
8FC0
FFC0
FFC0
FCC0
FCC0
FCC0
FFC0
ENDCHAR
STARTCHAR 2682
ENCODING 9858
SWIDTH 990 0
DWIDTH 11 0
BBX 10 10 0 0
BITMAP
FFC0
FFC0
9FC0
FFC0
F3C0
F3C0
FFC0
FEC0
FEC0
FFC0
ENDCHAR
STARTCHAR 2683
ENCODING 9859
SWIDTH 990 0
DWIDTH 11 0
BBX 10 10 0 0
BITMAP
FFC0
FFC0
9EC0
FFC0
FFC0
FFC0
FFC0
9EC0
9EC0
FFC0
ENDCHAR
STARTCHAR 2684
ENCODING 9860
SWIDTH 990 0
DWIDTH 11 0
BBX 10 10 0 0
BITMAP
FFC0
FFC0
9EC0
FFC0
F3C0
F3C0
FFC0
9EC0
9EC0
FFC0
ENDCHAR
STARTCHAR 2685
ENCODING 9861
SWIDTH 990 0
DWIDTH 11 0
BBX 10 10 0 0
BITMAP
FFC0
FFC0
9EC0
FFC0
9EC0
9EC0
FFC0
9EC0
9EC0
FFC0
ENDCHAR
STARTCHAR 26AA
ENCODING 9898
SWIDTH 990 0
DWIDTH 11 0
BBX 10 10 0 0
BITMAP
1E00
1E00
6100
80C0
80C0
80C0
80C0
6100
6100
1E00
ENDCHAR
STARTCHAR 26AB
ENCODING 9899
SWIDTH 990 0
DWIDTH 11 0
BBX 10 10 0 0
BITMAP
1E00
1E00
7F00
FFC0
FFC0
FFC0
FFC0
7F00
7F00
1E00
ENDCHAR
STARTCHAR 26BE
ENCODING 9918
SWIDTH 990 0
DWIDTH 11 0
BBX 10 10 0 0
BITMAP
1E00
1E00
6F00
EEC0
EDC0
EDC0
9DC0
7D00
7D00
1E00
ENDCHAR
STARTCHAR 26D4
ENCODING 9940
SWIDTH 990 0
DWIDTH 11 0
BBX 10 10 0 0
BITMAP
1E00
1E00
7F00
FFC0
80C0
80C0
FFC0
7F00
7F00
1E00
ENDCHAR
STARTCHAR 3001
ENCODING 12289
SWIDTH 990 0
DWIDTH 11 0
BBX 5 4 1 -1
BITMAP
C0
C0
20
18
ENDCHAR
STARTCHAR 3002
ENCODING 12290
SWIDTH 990 0
DWIDTH 11 0
BBX 6 6 1 0
BITMAP
38
38
C4
C4
C4
38
ENDCHAR
STARTCHAR 3007
ENCODING 12295
SWIDTH 990 0
DWIDTH 11 0
BBX 10 10 0 0
BITMAP
1E00
1E00
6100
80C0
80C0
80C0
80C0
6100
6100
1E00
ENDCHAR
STARTCHAR 300A
ENCODING 12298
SWIDTH 990 0
DWIDTH 11 0
BBX 10 10 0 0
BITMAP
0CC0
0CC0
1100
6200
8C00
8C00
6200
1100
1100
0CC0
ENDCHAR
STARTCHAR 300B
ENCODING 12299
SWIDTH 990 0
DWIDTH 11 0
BBX 10 10 0 0
BITMAP
8C00
8C00
6200
1100
0CC0
0CC0
1100
6200
6200
8C00
ENDCHAR
STARTCHAR 300C
ENCODING 12300
SWIDTH 990 0
DWIDTH 11 0
BBX 4 9 4 1
BITMAP
F0
F0
C0
C0
C0
C0
C0
C0
C0
ENDCHAR
STARTCHAR 300D
ENCODING 12301
SWIDTH 990 0
DWIDTH 11 0
BBX 5 8 1 0
BITMAP
18
18
18
18
18
18
18
F8
ENDCHAR
STARTCHAR 300E
ENCODING 12302
SWIDTH 990 0
DWIDTH 11 0
BBX 7 9 1 1
BITMAP
FE
FE
C2
DE
D8
D8
D8
F8
F8
ENDCHAR
STARTCHAR 300F
ENCODING 12303
SWIDTH 990 0
DWIDTH 11 0
BBX 7 8 1 0
BITMAP
1E
1A
1A
1A
FA
C2
C2
FE
ENDCHAR
STARTCHAR 3010
ENCODING 12304
SWIDTH 990 0
DWIDTH 11 0
BBX 7 10 1 0
BITMAP
FE
FE
FC
F8
F8
F8
F8
FC
FC
FE
ENDCHAR
STARTCHAR 3011
ENCODING 12305
SWIDTH 990 0
DWIDTH 11 0
BBX 7 10 1 0
BITMAP
FE
FE
3E
1E
1E
1E
1E
3E
3E
FE
ENDCHAR
STARTCHAR 3012
ENCODING 12306
SWIDTH 990 0
DWIDTH 11 0
BBX 10 10 0 0
BITMAP
FFC0
FFC0
0000
FFC0
0C00
0C00
0C00
0C00
0C00
0C00
ENDCHAR
STARTCHAR 3013
ENCODING 12307
SWIDTH 990 0
DWIDTH 11 0
BBX 10 7 0 1
BITMAP
FFC0
FFC0
0000
0000
FFC0
FFC0
FFC0
ENDCHAR
STARTCHAR 3014
ENCODING 12308
SWIDTH 990 0
DWIDTH 11 0
BBX 4 10 4 0
BITMAP
10
10
20
C0
C0
C0
C0
20
20
10
ENDCHAR
STARTCHAR 3015
ENCODING 12309
SWIDTH 990 0
DWIDTH 11 0
BBX 5 10 1 0
BITMAP
C0
C0
20
18
18
18
18
20
20
C0
ENDCHAR
STARTCHAR 3016
ENCODING 12310
SWIDTH 990 0
DWIDTH 11 0
BBX 7 10 1 0
BITMAP
FE
FE
C4
D8
D8
D8
D8
C4
C4
FE
ENDCHAR
STARTCHAR 3017
ENCODING 12311
SWIDTH 990 0
DWIDTH 11 0
BBX 7 10 1 0
BITMAP
FE
FE
22
1A
1A
1A
1A
22
22
FE
ENDCHAR
STARTCHAR 301A
ENCODING 12314
SWIDTH 990 0
DWIDTH 11 0
BBX 7 10 1 0
BITMAP
FE
FE
D8
D8
D8
D8
D8
D8
D8
FE
ENDCHAR
STARTCHAR 301B
ENCODING 12315
SWIDTH 990 0
DWIDTH 11 0
BBX 7 10 1 0
BITMAP
FE
FE
1A
1A
1A
1A
1A
1A
1A
FE
ENDCHAR
STARTCHAR 301C
ENCODING 12316
SWIDTH 990 0
DWIDTH 11 0
BBX 10 4 0 3
BITMAP
7000
8CC0
8CC0
0300
ENDCHAR
STARTCHAR 30FB
ENCODING 12539
SWIDTH 990 0
DWIDTH 11 0
BBX 5 6 3 1
BITMAP
70
F8
F8
F8
70
70
ENDCHAR
STARTCHAR FB01
ENCODING 64257
SWIDTH 990 0
DWIDTH 11 0
BBX 10 10 0 0
BITMAP
1E00
1E00
7000
FFC0
71C0
71C0
71C0
71C0
71C0
71C0
ENDCHAR
STARTCHAR FB02
ENCODING 64258
SWIDTH 990 0
DWIDTH 11 0
BBX 10 10 0 0
BITMAP
1FC0
1FC0
71C0
FFC0
71C0
71C0
71C0
71C0
71C0
71C0
ENDCHAR
STARTCHAR FE50
ENCODING 65104
SWIDTH 990 0
DWIDTH 11 0
BBX 5 4 1 -1
BITMAP
38
38
38
E0
ENDCHAR
STARTCHAR FE51
ENCODING 65105
SWIDTH 990 0
DWIDTH 11 0
BBX 5 4 1 -1
BITMAP
E0
E0
38
38
ENDCHAR
STARTCHAR FE52
ENCODING 65106
SWIDTH 990 0
DWIDTH 11 0
BBX 3 3 3 0
BITMAP
E0
E0
E0
ENDCHAR
STARTCHAR FE54
ENCODING 65108
SWIDTH 990 0
DWIDTH 11 0
BBX 5 8 1 0
BITMAP
38
38
00
00
38
38
38
E0
ENDCHAR
STARTCHAR FE55
ENCODING 65109
SWIDTH 990 0
DWIDTH 11 0
BBX 3 7 3 1
BITMAP
E0
E0
00
00
E0
E0
E0
ENDCHAR
STARTCHAR FE56
ENCODING 65110
SWIDTH 990 0
DWIDTH 11 0
BBX 10 10 0 0
BITMAP
7F00
7F00
E1C0
E1C0
0F00
0F00
1C00
0000
0000
1C00
ENDCHAR
STARTCHAR FE57
ENCODING 65111
SWIDTH 990 0
DWIDTH 11 0
BBX 4 10 3 0
BITMAP
F0
F0
F0
F0
E0
E0
E0
00
00
E0
ENDCHAR
STARTCHAR FE58
ENCODING 65112
SWIDTH 990 0
DWIDTH 11 0
BBX 9 3 1 3
BITMAP
FF80
FF80
FF80
ENDCHAR
STARTCHAR FE59
ENCODING 65113
SWIDTH 990 0
DWIDTH 11 0
BBX 5 10 3 0
BITMAP
18
18
70
E0
E0
E0
E0
70
70
18
ENDCHAR
STARTCHAR FE5A
ENCODING 65114
SWIDTH 990 0
DWIDTH 11 0
BBX 6 10 1 0
BITMAP
E0
E0
38
1C
1C
1C
1C
38
38
E0
ENDCHAR
STARTCHAR FE5B
ENCODING 65115
SWIDTH 990 0
DWIDTH 11 0
BBX 5 10 3 0
BITMAP
18
18
70
70
E0
E0
70
70
70
18
ENDCHAR
STARTCHAR FE5C
ENCODING 65116
SWIDTH 990 0
DWIDTH 11 0
BBX 6 10 1 0
BITMAP
E0
E0
38
38
1C
1C
38
38
38
E0
ENDCHAR
STARTCHAR FE5D
ENCODING 65117
SWIDTH 990 0
DWIDTH 11 0
BBX 4 10 4 0
BITMAP
10
10
20
C0
C0
C0
C0
20
20
10
ENDCHAR
STARTCHAR FE5E
ENCODING 65118
SWIDTH 990 0
DWIDTH 11 0
BBX 5 10 1 0
BITMAP
C0
C0
20
18
18
18
18
20
20
C0
ENDCHAR
STARTCHAR FE5F
ENCODING 65119
SWIDTH 990 0
DWIDTH 11 0
BBX 10 10 0 0
BITMAP
7300
7300
7300
FFC0
7300
7300
FFC0
7300
7300
7300
ENDCHAR
STARTCHAR FE60
ENCODING 65120
SWIDTH 990 0
DWIDTH 11 0
BBX 10 10 0 0
BITMAP
1C00
1C00
6200
7200
7C00
7C00
8EC0
8300
8300
7EC0
ENDCHAR
STARTCHAR FE61
ENCODING 65121
SWIDTH 990 0
DWIDTH 11 0
BBX 10 10 0 0
BITMAP
8CC0
8CC0
6D00
1E00
FFC0
FFC0
1E00
6D00
6D00
8CC0
ENDCHAR
STARTCHAR FE62
ENCODING 65122
SWIDTH 990 0
DWIDTH 11 0
BBX 7 7 1 1
BITMAP
18
18
FE
FE
18
18
18
ENDCHAR
STARTCHAR FE63
ENCODING 65123
SWIDTH 990 0
DWIDTH 11 0
BBX 9 3 1 3
BITMAP
FF80
FF80
FF80
ENDCHAR
STARTCHAR FE64
ENCODING 65124
SWIDTH 990 0
DWIDTH 11 0
BBX 7 10 1 0
BITMAP
06
06
1C
38
E0
E0
38
1C
1C
06
ENDCHAR
STARTCHAR FE65
ENCODING 65125
SWIDTH 990 0
DWIDTH 11 0
BBX 7 10 1 0
BITMAP
E0
E0
38
1C
06
06
1C
38
38
E0
ENDCHAR
STARTCHAR FE66
ENCODING 65126
SWIDTH 990 0
DWIDTH 11 0
BBX 7 6 1 1
BITMAP
FE
00
00
00
FE
FE
ENDCHAR
STARTCHAR FE68
ENCODING 65128
SWIDTH 990 0
DWIDTH 11 0
BBX 10 10 0 0
BITMAP
8000
8000
6000
1000
0C00
0C00
0200
0100
0100
00C0
ENDCHAR
STARTCHAR FE69
ENCODING 65129
SWIDTH 990 0
DWIDTH 11 0
BBX 10 10 0 0
BITMAP
0C00
0C00
7F00
EC00
7F00
7F00
0DC0
FF00
FF00
0C00
ENDCHAR
STARTCHAR FE6A
ENCODING 65130
SWIDTH 990 0
DWIDTH 11 0
BBX 10 10 0 0
BITMAP
60C0
60C0
9100
6200
0C00
0C00
1100
62C0
62C0
8100
ENDCHAR
STARTCHAR FE6B
ENCODING 65131
SWIDTH 990 0
DWIDTH 11 0
BBX 10 10 0 0
BITMAP
7F00
7F00
80C0
9EC0
92C0
92C0
9FC0
8000
8000
7F00
ENDCHAR
STARTCHAR FF01
ENCODING 65281
SWIDTH 990 0
DWIDTH 11 0
BBX 4 10 3 0
BITMAP
F0
F0
F0
F0
E0
E0
E0
00
00
E0
ENDCHAR
STARTCHAR FF02
ENCODING 65282
SWIDTH 990 0
DWIDTH 11 0
BBX 7 6 1 4
BITMAP
E6
E6
E6
22
C4
C4
ENDCHAR
STARTCHAR FF03
ENCODING 65283
SWIDTH 990 0
DWIDTH 11 0
BBX 10 10 0 0
BITMAP
7300
7300
7300
FFC0
7300
7300
FFC0
7300
7300
7300
ENDCHAR
STARTCHAR FF04
ENCODING 65284
SWIDTH 990 0
DWIDTH 11 0
BBX 10 10 0 0
BITMAP
0C00
0C00
7F00
EC00
7F00
7F00
0DC0
FF00
FF00
0C00
ENDCHAR
STARTCHAR FF05
ENCODING 65285
SWIDTH 990 0
DWIDTH 11 0
BBX 10 10 0 0
BITMAP
60C0
60C0
9100
6200
0C00
0C00
1100
62C0
62C0
8100
ENDCHAR
STARTCHAR FF06
ENCODING 65286
SWIDTH 990 0
DWIDTH 11 0
BBX 10 10 0 0
BITMAP
1C00
1C00
6200
7200
7C00
7C00
8EC0
8300
8300
7EC0
ENDCHAR
STARTCHAR FF07
ENCODING 65287
SWIDTH 990 0
DWIDTH 11 0
BBX 3 6 3 4
BITMAP
E0
E0
E0
60
80
80
ENDCHAR
STARTCHAR FF08
ENCODING 65288
SWIDTH 990 0
DWIDTH 11 0
BBX 5 10 3 0
BITMAP
18
18
70
E0
E0
E0
E0
70
70
18
ENDCHAR
STARTCHAR FF09
ENCODING 65289
SWIDTH 990 0
DWIDTH 11 0
BBX 6 10 1 0
BITMAP
E0
E0
38
1C
1C
1C
1C
38
38
E0
ENDCHAR
STARTCHAR FF0A
ENCODING 65290
SWIDTH 990 0
DWIDTH 11 0
BBX 10 10 0 0
BITMAP
8CC0
8CC0
6D00
1E00
FFC0
FFC0
1E00
6D00
6D00
8CC0
ENDCHAR
STARTCHAR FF0B
ENCODING 65291
SWIDTH 990 0
DWIDTH 11 0
BBX 7 7 1 1
BITMAP
18
18
FE
FE
18
18
18
ENDCHAR
STARTCHAR FF0C
ENCODING 65292
SWIDTH 990 0
DWIDTH 11 0
BBX 5 4 1 -1
BITMAP
38
38
38
E0
ENDCHAR
STARTCHAR FF0D
ENCODING 65293
SWIDTH 990 0
DWIDTH 11 0
BBX 9 3 1 3
BITMAP
FF80
FF80
FF80
ENDCHAR
STARTCHAR FF0E
ENCODING 65294
SWIDTH 990 0
DWIDTH 11 0
BBX 3 3 3 0
BITMAP
E0
E0
E0
ENDCHAR
STARTCHAR FF0F
ENCODING 65295
SWIDTH 990 0
DWIDTH 11 0
BBX 10 10 0 0
BITMAP
00C0
00C0
0100
0200
0C00
0C00
1000
6000
6000
8000
ENDCHAR
STARTCHAR FF10
ENCODING 65296
SWIDTH 990 0
DWIDTH 11 0
BBX 10 10 0 0
BITMAP
1E00
1E00
6300
E1C0
E1C0
E1C0
E1C0
7100
7100
1E00
ENDCHAR
STARTCHAR FF11
ENCODING 65297
SWIDTH 990 0
DWIDTH 11 0
BBX 9 10 1 0
BITMAP
1C00
1C00
3C00
1C00
1C00
1C00
1C00
1C00
1C00
FF80
ENDCHAR
STARTCHAR FF12
ENCODING 65298
SWIDTH 990 0
DWIDTH 11 0
BBX 10 10 0 0
BITMAP
7F00
7F00
E1C0
03C0
1F00
1F00
7E00
F000
F000
FFC0
ENDCHAR
STARTCHAR FF13
ENCODING 65299
SWIDTH 990 0
DWIDTH 11 0
BBX 10 10 0 0
BITMAP
7FC0
7FC0
0300
0E00
1F00
1F00
01C0
E1C0
E1C0
7F00
ENDCHAR
STARTCHAR FF14
ENCODING 65300
SWIDTH 990 0
DWIDTH 11 0
BBX 10 10 0 0
BITMAP
0F00
0F00
1F00
7300
E300
E300
FFC0
0300
0300
0300
ENDCHAR
STARTCHAR FF15
ENCODING 65301
SWIDTH 990 0
DWIDTH 11 0
BBX 10 10 0 0
BITMAP
FF00
FF00
E000
FF00
01C0
01C0
01C0
E1C0
E1C0
7F00
ENDCHAR
STARTCHAR FF16
ENCODING 65302
SWIDTH 990 0
DWIDTH 11 0
BBX 10 10 0 0
BITMAP
1F00
1F00
7000
E000
FF00
FF00
E1C0
E1C0
E1C0
7F00
ENDCHAR
STARTCHAR FF17
ENCODING 65303
SWIDTH 990 0
DWIDTH 11 0
BBX 10 10 0 0
BITMAP
FFC0
FFC0
E1C0
0300
0E00
0E00
1C00
1C00
1C00
1C00
ENDCHAR
STARTCHAR FF18
ENCODING 65304
SWIDTH 990 0
DWIDTH 11 0
BBX 10 10 0 0
BITMAP
7F00
7F00
E1C0
E1C0
7F00
7F00
E1C0
E1C0
E1C0
7F00
ENDCHAR
STARTCHAR FF19
ENCODING 65305
SWIDTH 990 0
DWIDTH 11 0
BBX 10 10 0 0
BITMAP
7F00
7F00
E1C0
E1C0
7FC0
7FC0
01C0
0300
0300
7E00
ENDCHAR
STARTCHAR FF1A
ENCODING 65306
SWIDTH 990 0
DWIDTH 11 0
BBX 3 7 3 1
BITMAP
E0
E0
00
00
E0
E0
E0
ENDCHAR
STARTCHAR FF1B
ENCODING 65307
SWIDTH 990 0
DWIDTH 11 0
BBX 5 8 1 0
BITMAP
38
38
00
00
38
38
38
E0
ENDCHAR
STARTCHAR FF1C
ENCODING 65308
SWIDTH 990 0
DWIDTH 11 0
BBX 7 10 1 0
BITMAP
06
06
1C
38
E0
E0
38
1C
1C
06
ENDCHAR
STARTCHAR FF1D
ENCODING 65309
SWIDTH 990 0
DWIDTH 11 0
BBX 7 6 1 1
BITMAP
FE
00
00
00
FE
FE
ENDCHAR
STARTCHAR FF1E
ENCODING 65310
SWIDTH 990 0
DWIDTH 11 0
BBX 7 10 1 0
BITMAP
E0
E0
38
1C
06
06
1C
38
38
E0
ENDCHAR
STARTCHAR FF1F
ENCODING 65311
SWIDTH 990 0
DWIDTH 11 0
BBX 10 10 0 0
BITMAP
7F00
7F00
E1C0
E1C0
0F00
0F00
1C00
0000
0000
1C00
ENDCHAR
STARTCHAR FF20
ENCODING 65312
SWIDTH 990 0
DWIDTH 11 0
BBX 10 10 0 0
BITMAP
7F00
7F00
80C0
9EC0
92C0
92C0
9FC0
8000
8000
7F00
ENDCHAR
STARTCHAR FF21
ENCODING 65313
SWIDTH 990 0
DWIDTH 11 0
BBX 10 10 0 0
BITMAP
1E00
1E00
7300
E1C0
E1C0
E1C0
FFC0
E1C0
E1C0
E1C0
ENDCHAR
STARTCHAR FF22
ENCODING 65314
SWIDTH 990 0
DWIDTH 11 0
BBX 10 10 0 0
BITMAP
FF00
FF00
E1C0
E1C0
FF00
FF00
E1C0
E1C0
E1C0
FF00
ENDCHAR
STARTCHAR FF23
ENCODING 65315
SWIDTH 990 0
DWIDTH 11 0
BBX 10 10 0 0
BITMAP
1F00
1F00
71C0
E000
E000
E000
E000
71C0
71C0
1F00
ENDCHAR
STARTCHAR FF24
ENCODING 65316
SWIDTH 990 0
DWIDTH 11 0
BBX 10 10 0 0
BITMAP
FE00
FE00
E300
E1C0
E1C0
E1C0
E1C0
E300
E300
FE00
ENDCHAR
STARTCHAR FF25
ENCODING 65317
SWIDTH 990 0
DWIDTH 11 0
BBX 10 10 0 0
BITMAP
FFC0
FFC0
E000
E000
FF00
FF00
E000
E000
E000
FFC0
ENDCHAR
STARTCHAR FF26
ENCODING 65318
SWIDTH 990 0
DWIDTH 11 0
BBX 10 10 0 0
BITMAP
FFC0
FFC0
E000
E000
FF00
FF00
E000
E000
E000
E000
ENDCHAR
STARTCHAR FF27
ENCODING 65319
SWIDTH 990 0
DWIDTH 11 0
BBX 10 10 0 0
BITMAP
1FC0
1FC0
7000
E000
E3C0
E3C0
E1C0
71C0
71C0
1FC0
ENDCHAR
STARTCHAR FF28
ENCODING 65320
SWIDTH 990 0
DWIDTH 11 0
BBX 10 10 0 0
BITMAP
E1C0
E1C0
E1C0
E1C0
FFC0
FFC0
E1C0
E1C0
E1C0
E1C0
ENDCHAR
STARTCHAR FF29
ENCODING 65321
SWIDTH 990 0
DWIDTH 11 0
BBX 9 10 1 0
BITMAP
FF80
FF80
1C00
1C00
1C00
1C00
1C00
1C00
1C00
FF80
ENDCHAR
STARTCHAR FF2A
ENCODING 65322
SWIDTH 990 0
DWIDTH 11 0
BBX 10 10 0 0
BITMAP
0FC0
0FC0
01C0
01C0
01C0
01C0
E1C0
E1C0
E1C0
7F00
ENDCHAR
STARTCHAR FF2B
ENCODING 65323
SWIDTH 990 0
DWIDTH 11 0
BBX 10 10 0 0
BITMAP
E1C0
E1C0
E300
EE00
FC00
FC00
FE00
EF00
EF00
E3C0
ENDCHAR
STARTCHAR FF2C
ENCODING 65324
SWIDTH 990 0
DWIDTH 11 0
BBX 9 10 1 0
BITMAP
E000
E000
E000
E000
E000
E000
E000
E000
E000
FF80
ENDCHAR
STARTCHAR FF2D
ENCODING 65325
SWIDTH 990 0
DWIDTH 11 0
BBX 10 10 0 0
BITMAP
E1C0
E1C0
F3C0
FFC0
FFC0
FFC0
EDC0
E1C0
E1C0
E1C0
ENDCHAR
STARTCHAR FF2E
ENCODING 65326
SWIDTH 990 0
DWIDTH 11 0
BBX 10 10 0 0
BITMAP
E1C0
E1C0
F1C0
FDC0
FFC0
FFC0
EFC0
E3C0
E3C0
E1C0
ENDCHAR
STARTCHAR FF2F
ENCODING 65327
SWIDTH 990 0
DWIDTH 11 0
BBX 10 10 0 0
BITMAP
7F00
7F00
E1C0
E1C0
E1C0
E1C0
E1C0
E1C0
E1C0
7F00
ENDCHAR
STARTCHAR FF30
ENCODING 65328
SWIDTH 990 0
DWIDTH 11 0
BBX 10 10 0 0
BITMAP
FF00
FF00
E1C0
E1C0
E1C0
E1C0
FF00
E000
E000
E000
ENDCHAR
STARTCHAR FF31
ENCODING 65329
SWIDTH 990 0
DWIDTH 11 0
BBX 10 10 0 0
BITMAP
7F00
7F00
E1C0
E1C0
E1C0
E1C0
EFC0
E300
E300
7EC0
ENDCHAR
STARTCHAR FF32
ENCODING 65330
SWIDTH 990 0
DWIDTH 11 0
BBX 10 10 0 0
BITMAP
FF00
FF00
E1C0
E1C0
E3C0
E3C0
FE00
EF00
EF00
E3C0
ENDCHAR
STARTCHAR FF33
ENCODING 65331
SWIDTH 990 0
DWIDTH 11 0
BBX 10 10 0 0
BITMAP
7E00
7E00
E300
E000
7F00
7F00
01C0
E1C0
E1C0
7F00
ENDCHAR
STARTCHAR FF34
ENCODING 65332
SWIDTH 990 0
DWIDTH 11 0
BBX 9 10 1 0
BITMAP
FF80
FF80
1C00
1C00
1C00
1C00
1C00
1C00
1C00
1C00
ENDCHAR
STARTCHAR FF35
ENCODING 65333
SWIDTH 990 0
DWIDTH 11 0
BBX 10 10 0 0
BITMAP
E1C0
E1C0
E1C0
E1C0
E1C0
E1C0
E1C0
E1C0
E1C0
7F00
ENDCHAR
STARTCHAR FF36
ENCODING 65334
SWIDTH 990 0
DWIDTH 11 0
BBX 10 10 0 0
BITMAP
E1C0
E1C0
E1C0
E1C0
F3C0
F3C0
7F00
1E00
1E00
0C00
ENDCHAR
STARTCHAR FF37
ENCODING 65335
SWIDTH 990 0
DWIDTH 11 0
BBX 10 10 0 0
BITMAP
E1C0
E1C0
E1C0
EDC0
FFC0
FFC0
FFC0
F3C0
F3C0
E1C0
ENDCHAR
STARTCHAR FF38
ENCODING 65336
SWIDTH 990 0
DWIDTH 11 0
BBX 10 10 0 0
BITMAP
E1C0
E1C0
F3C0
7F00
1E00
1E00
7F00
F3C0
F3C0
E1C0
ENDCHAR
STARTCHAR FF39
ENCODING 65337
SWIDTH 990 0
DWIDTH 11 0
BBX 9 10 1 0
BITMAP
E380
E380
E380
E380
3E00
3E00
1C00
1C00
1C00
1C00
ENDCHAR
STARTCHAR FF3A
ENCODING 65338
SWIDTH 990 0
DWIDTH 11 0
BBX 10 10 0 0
BITMAP
FFC0
FFC0
03C0
0F00
1E00
1E00
7C00
F000
F000
FFC0
ENDCHAR
STARTCHAR FF3B
ENCODING 65339
SWIDTH 990 0
DWIDTH 11 0
BBX 5 10 3 0
BITMAP
F8
F8
E0
E0
E0
E0
E0
E0
E0
F8
ENDCHAR
STARTCHAR FF3C
ENCODING 65340
SWIDTH 990 0
DWIDTH 11 0
BBX 10 10 0 0
BITMAP
8000
8000
6000
1000
0C00
0C00
0200
0100
0100
00C0
ENDCHAR
STARTCHAR FF3D
ENCODING 65341
SWIDTH 990 0
DWIDTH 11 0
BBX 6 10 1 0
BITMAP
FC
FC
1C
1C
1C
1C
1C
1C
1C
FC
ENDCHAR
STARTCHAR FF3E
ENCODING 65342
SWIDTH 990 0
DWIDTH 11 0
BBX 7 4 1 6
BITMAP
18
18
24
C2
ENDCHAR
STARTCHAR FF3F
ENCODING 65343
SWIDTH 990 0
DWIDTH 11 0
BBX 10 1 0 -1
BITMAP
FFC0
ENDCHAR
STARTCHAR FF40
ENCODING 65344
SWIDTH 990 0
DWIDTH 11 0
BBX 3 3 3 7
BITMAP
80
80
60
ENDCHAR
STARTCHAR FF41
ENCODING 65345
SWIDTH 990 0
DWIDTH 11 0
BBX 10 10 0 0
BITMAP
1E00
1E00
7300
E1C0
E1C0
E1C0
FFC0
E1C0
E1C0
E1C0
ENDCHAR
STARTCHAR FF42
ENCODING 65346
SWIDTH 990 0
DWIDTH 11 0
BBX 10 10 0 0
BITMAP
FF00
FF00
E1C0
E1C0
FF00
FF00
E1C0
E1C0
E1C0
FF00
ENDCHAR
STARTCHAR FF43
ENCODING 65347
SWIDTH 990 0
DWIDTH 11 0
BBX 10 10 0 0
BITMAP
1F00
1F00
71C0
E000
E000
E000
E000
71C0
71C0
1F00
ENDCHAR
STARTCHAR FF44
ENCODING 65348
SWIDTH 990 0
DWIDTH 11 0
BBX 10 10 0 0
BITMAP
FE00
FE00
E300
E1C0
E1C0
E1C0
E1C0
E300
E300
FE00
ENDCHAR
STARTCHAR FF45
ENCODING 65349
SWIDTH 990 0
DWIDTH 11 0
BBX 10 10 0 0
BITMAP
FFC0
FFC0
E000
E000
FF00
FF00
E000
E000
E000
FFC0
ENDCHAR
STARTCHAR FF46
ENCODING 65350
SWIDTH 990 0
DWIDTH 11 0
BBX 10 10 0 0
BITMAP
FFC0
FFC0
E000
E000
FF00
FF00
E000
E000
E000
E000
ENDCHAR
STARTCHAR FF47
ENCODING 65351
SWIDTH 990 0
DWIDTH 11 0
BBX 10 10 0 0
BITMAP
1FC0
1FC0
7000
E000
E3C0
E3C0
E1C0
71C0
71C0
1FC0
ENDCHAR
STARTCHAR FF48
ENCODING 65352
SWIDTH 990 0
DWIDTH 11 0
BBX 10 10 0 0
BITMAP
E1C0
E1C0
E1C0
E1C0
FFC0
FFC0
E1C0
E1C0
E1C0
E1C0
ENDCHAR
STARTCHAR FF49
ENCODING 65353
SWIDTH 990 0
DWIDTH 11 0
BBX 9 10 1 0
BITMAP
FF80
FF80
1C00
1C00
1C00
1C00
1C00
1C00
1C00
FF80
ENDCHAR
STARTCHAR FF4A
ENCODING 65354
SWIDTH 990 0
DWIDTH 11 0
BBX 10 10 0 0
BITMAP
0FC0
0FC0
01C0
01C0
01C0
01C0
E1C0
E1C0
E1C0
7F00
ENDCHAR
STARTCHAR FF4B
ENCODING 65355
SWIDTH 990 0
DWIDTH 11 0
BBX 10 10 0 0
BITMAP
E1C0
E1C0
E300
EE00
FC00
FC00
FE00
EF00
EF00
E3C0
ENDCHAR
STARTCHAR FF4C
ENCODING 65356
SWIDTH 990 0
DWIDTH 11 0
BBX 9 10 1 0
BITMAP
E000
E000
E000
E000
E000
E000
E000
E000
E000
FF80
ENDCHAR
STARTCHAR FF4D
ENCODING 65357
SWIDTH 990 0
DWIDTH 11 0
BBX 10 10 0 0
BITMAP
E1C0
E1C0
F3C0
FFC0
FFC0
FFC0
EDC0
E1C0
E1C0
E1C0
ENDCHAR
STARTCHAR FF4E
ENCODING 65358
SWIDTH 990 0
DWIDTH 11 0
BBX 10 10 0 0
BITMAP
E1C0
E1C0
F1C0
FDC0
FFC0
FFC0
EFC0
E3C0
E3C0
E1C0
ENDCHAR
STARTCHAR FF4F
ENCODING 65359
SWIDTH 990 0
DWIDTH 11 0
BBX 10 10 0 0
BITMAP
7F00
7F00
E1C0
E1C0
E1C0
E1C0
E1C0
E1C0
E1C0
7F00
ENDCHAR
STARTCHAR FF50
ENCODING 65360
SWIDTH 990 0
DWIDTH 11 0
BBX 10 10 0 0
BITMAP
FF00
FF00
E1C0
E1C0
E1C0
E1C0
FF00
E000
E000
E000
ENDCHAR
STARTCHAR FF51
ENCODING 65361
SWIDTH 990 0
DWIDTH 11 0
BBX 10 10 0 0
BITMAP
7F00
7F00
E1C0
E1C0
E1C0
E1C0
EFC0
E300
E300
7EC0
ENDCHAR
STARTCHAR FF52
ENCODING 65362
SWIDTH 990 0
DWIDTH 11 0
BBX 10 10 0 0
BITMAP
FF00
FF00
E1C0
E1C0
E3C0
E3C0
FE00
EF00
EF00
E3C0
ENDCHAR
STARTCHAR FF53
ENCODING 65363
SWIDTH 990 0
DWIDTH 11 0
BBX 10 10 0 0
BITMAP
7E00
7E00
E300
E000
7F00
7F00
01C0
E1C0
E1C0
7F00
ENDCHAR
STARTCHAR FF54
ENCODING 65364
SWIDTH 990 0
DWIDTH 11 0
BBX 9 10 1 0
BITMAP
FF80
FF80
1C00
1C00
1C00
1C00
1C00
1C00
1C00
1C00
ENDCHAR
STARTCHAR FF55
ENCODING 65365
SWIDTH 990 0
DWIDTH 11 0
BBX 10 10 0 0
BITMAP
E1C0
E1C0
E1C0
E1C0
E1C0
E1C0
E1C0
E1C0
E1C0
7F00
ENDCHAR
STARTCHAR FF56
ENCODING 65366
SWIDTH 990 0
DWIDTH 11 0
BBX 10 10 0 0
BITMAP
E1C0
E1C0
E1C0
E1C0
F3C0
F3C0
7F00
1E00
1E00
0C00
ENDCHAR
STARTCHAR FF57
ENCODING 65367
SWIDTH 990 0
DWIDTH 11 0
BBX 10 10 0 0
BITMAP
E1C0
E1C0
E1C0
EDC0
FFC0
FFC0
FFC0
F3C0
F3C0
E1C0
ENDCHAR
STARTCHAR FF58
ENCODING 65368
SWIDTH 990 0
DWIDTH 11 0
BBX 10 10 0 0
BITMAP
E1C0
E1C0
F3C0
7F00
1E00
1E00
7F00
F3C0
F3C0
E1C0
ENDCHAR
STARTCHAR FF59
ENCODING 65369
SWIDTH 990 0
DWIDTH 11 0
BBX 9 10 1 0
BITMAP
E380
E380
E380
E380
3E00
3E00
1C00
1C00
1C00
1C00
ENDCHAR
STARTCHAR FF5A
ENCODING 65370
SWIDTH 990 0
DWIDTH 11 0
BBX 10 10 0 0
BITMAP
FFC0
FFC0
03C0
0F00
1E00
1E00
7C00
F000
F000
FFC0
ENDCHAR
STARTCHAR FF5B
ENCODING 65371
SWIDTH 990 0
DWIDTH 11 0
BBX 5 10 3 0
BITMAP
18
18
70
70
E0
E0
70
70
70
18
ENDCHAR
STARTCHAR FF5C
ENCODING 65372
SWIDTH 990 0
DWIDTH 11 0
BBX 3 10 4 0
BITMAP
E0
E0
E0
E0
E0
E0
E0
E0
E0
E0
ENDCHAR
STARTCHAR FF5D
ENCODING 65373
SWIDTH 990 0
DWIDTH 11 0
BBX 6 10 1 0
BITMAP
E0
E0
38
38
1C
1C
38
38
38
E0
ENDCHAR
STARTCHAR FF5E
ENCODING 65374
SWIDTH 990 0
DWIDTH 11 0
BBX 10 4 0 3
BITMAP
7000
8CC0
8CC0
0300
ENDCHAR
STARTCHAR FF5F
ENCODING 65375
SWIDTH 990 0
DWIDTH 11 0
BBX 7 11 1 0
BITMAP
1A
24
24
D8
D8
D8
D8
D8
24
24
1A
ENDCHAR
STARTCHAR FF60
ENCODING 65376
SWIDTH 990 0
DWIDTH 11 0
BBX 7 11 1 0
BITMAP
D8
24
24
1A
1A
1A
1A
1A
24
24
D8
ENDCHAR
STARTCHAR FF61
ENCODING 65377
SWIDTH 990 0
DWIDTH 11 0
BBX 6 6 1 0
BITMAP
38
38
C4
C4
C4
38
ENDCHAR
STARTCHAR FF62
ENCODING 65378
SWIDTH 990 0
DWIDTH 11 0
BBX 4 9 4 1
BITMAP
F0
F0
C0
C0
C0
C0
C0
C0
C0
ENDCHAR
STARTCHAR FF63
ENCODING 65379
SWIDTH 990 0
DWIDTH 11 0
BBX 5 8 1 0
BITMAP
18
18
18
18
18
18
18
F8
ENDCHAR
STARTCHAR FF64
ENCODING 65380
SWIDTH 990 0
DWIDTH 11 0
BBX 5 4 1 -1
BITMAP
C0
C0
20
18
ENDCHAR
STARTCHAR FF65
ENCODING 65381
SWIDTH 990 0
DWIDTH 11 0
BBX 3 3 4 3
BITMAP
E0
E0
E0
ENDCHAR
STARTCHAR FFFD
ENCODING 65533
SWIDTH 990 0
DWIDTH 11 0
BBX 10 10 0 0
BITMAP
FFC0
FFC0
80C0
9EC0
F0C0
F0C0
FFC0
F3C0
F3C0
FFC0
ENDCHAR
ENDFONT
